<?xml version="1.0" encoding="utf-8" standalone="no"?>
<!DOCTYPE svg PUBLIC "-//W3C//DTD SVG 1.1//EN"
  "http://www.w3.org/Graphics/SVG/1.1/DTD/svg11.dtd">
<svg xmlns:xlink="http://www.w3.org/1999/xlink" width="309.6pt" height="230.4pt" viewBox="0 0 309.6 230.4" xmlns="http://www.w3.org/2000/svg" version="1.1">
 <metadata>
  <rdf:RDF xmlns:dc="http://purl.org/dc/elements/1.1/" xmlns:cc="http://creativecommons.org/ns#" xmlns:rdf="http://www.w3.org/1999/02/22-rdf-syntax-ns#">
   <cc:Work>
    <dc:type rdf:resource="http://purl.org/dc/dcmitype/StillImage"/>
    <dc:date>2026-01-21T00:29:18.006220</dc:date>
    <dc:format>image/svg+xml</dc:format>
    <dc:creator>
     <cc:Agent>
      <dc:title>Matplotlib v3.10.8, https://matplotlib.org/</dc:title>
     </cc:Agent>
    </dc:creator>
   </cc:Work>
  </rdf:RDF>
 </metadata>
 <defs>
  <style type="text/css">*{stroke-linejoin: round; stroke-linecap: butt}</style>
 </defs>
 <g id="figure_1">
  <g id="patch_1">
   <path d="M 0 230.4 
L 309.6 230.4 
L 309.6 0 
L 0 0 
z
" style="fill: #ffffff"/>
  </g>
  <g id="axes_1">
   <g id="patch_2">
    <path d="M 52.632 191.232 
L 294.12 191.232 
L 294.12 11.52 
L 52.632 11.52 
z
" style="fill: #ffffff"/>
   </g>
   <g id="matplotlib.axis_1">
    <g id="xtick_1">
     <g id="line2d_1">
      <defs>
       <path id="m1a6ee3f69a" d="M 0 0 
L 0 3.5 
" style="stroke: #000000; stroke-width: 0.8"/>
      </defs>
      <g>
       <use xlink:href="#m1a6ee3f69a" x="52.632" y="191.232" style="stroke: #000000; stroke-width: 0.8"/>
      </g>
     </g>
     <g id="text_1">
      <!-- $\mathdefault{10^{0}}$ -->
      <g transform="translate(43.832 205.830437) scale(0.1 -0.1)">
       <defs>
        <path id="DejaVuSans-31" d="M 794 531 
L 1825 531 
L 1825 4091 
L 703 3866 
L 703 4441 
L 1819 4666 
L 2450 4666 
L 2450 531 
L 3481 531 
L 3481 0 
L 794 0 
L 794 531 
z
" transform="scale(0.015625)"/>
        <path id="DejaVuSans-30" d="M 2034 4250 
Q 1547 4250 1301 3770 
Q 1056 3291 1056 2328 
Q 1056 1369 1301 889 
Q 1547 409 2034 409 
Q 2525 409 2770 889 
Q 3016 1369 3016 2328 
Q 3016 3291 2770 3770 
Q 2525 4250 2034 4250 
z
M 2034 4750 
Q 2819 4750 3233 4129 
Q 3647 3509 3647 2328 
Q 3647 1150 3233 529 
Q 2819 -91 2034 -91 
Q 1250 -91 836 529 
Q 422 1150 422 2328 
Q 422 3509 836 4129 
Q 1250 4750 2034 4750 
z
" transform="scale(0.015625)"/>
       </defs>
       <use xlink:href="#DejaVuSans-31" transform="translate(0 0.765625)"/>
       <use xlink:href="#DejaVuSans-30" transform="translate(63.623047 0.765625)"/>
       <use xlink:href="#DejaVuSans-30" transform="translate(128.203125 39.046875) scale(0.7)"/>
      </g>
     </g>
    </g>
    <g id="xtick_2">
     <g id="line2d_2">
      <g>
       <use xlink:href="#m1a6ee3f69a" x="89.522411" y="191.232" style="stroke: #000000; stroke-width: 0.8"/>
      </g>
     </g>
     <g id="text_2">
      <!-- $\mathdefault{10^{1}}$ -->
      <g transform="translate(80.722411 205.830437) scale(0.1 -0.1)">
       <use xlink:href="#DejaVuSans-31" transform="translate(0 0.684375)"/>
       <use xlink:href="#DejaVuSans-30" transform="translate(63.623047 0.684375)"/>
       <use xlink:href="#DejaVuSans-31" transform="translate(128.203125 38.965625) scale(0.7)"/>
      </g>
     </g>
    </g>
    <g id="xtick_3">
     <g id="line2d_3">
      <g>
       <use xlink:href="#m1a6ee3f69a" x="126.412823" y="191.232" style="stroke: #000000; stroke-width: 0.8"/>
      </g>
     </g>
     <g id="text_3">
      <!-- $\mathdefault{10^{2}}$ -->
      <g transform="translate(117.612823 205.830437) scale(0.1 -0.1)">
       <defs>
        <path id="DejaVuSans-32" d="M 1228 531 
L 3431 531 
L 3431 0 
L 469 0 
L 469 531 
Q 828 903 1448 1529 
Q 2069 2156 2228 2338 
Q 2531 2678 2651 2914 
Q 2772 3150 2772 3378 
Q 2772 3750 2511 3984 
Q 2250 4219 1831 4219 
Q 1534 4219 1204 4116 
Q 875 4013 500 3803 
L 500 4441 
Q 881 4594 1212 4672 
Q 1544 4750 1819 4750 
Q 2544 4750 2975 4387 
Q 3406 4025 3406 3419 
Q 3406 3131 3298 2873 
Q 3191 2616 2906 2266 
Q 2828 2175 2409 1742 
Q 1991 1309 1228 531 
z
" transform="scale(0.015625)"/>
       </defs>
       <use xlink:href="#DejaVuSans-31" transform="translate(0 0.765625)"/>
       <use xlink:href="#DejaVuSans-30" transform="translate(63.623047 0.765625)"/>
       <use xlink:href="#DejaVuSans-32" transform="translate(128.203125 39.046875) scale(0.7)"/>
      </g>
     </g>
    </g>
    <g id="xtick_4">
     <g id="line2d_4">
      <g>
       <use xlink:href="#m1a6ee3f69a" x="163.303234" y="191.232" style="stroke: #000000; stroke-width: 0.8"/>
      </g>
     </g>
     <g id="text_4">
      <!-- $\mathdefault{10^{3}}$ -->
      <g transform="translate(154.503234 205.830437) scale(0.1 -0.1)">
       <defs>
        <path id="DejaVuSans-33" d="M 2597 2516 
Q 3050 2419 3304 2112 
Q 3559 1806 3559 1356 
Q 3559 666 3084 287 
Q 2609 -91 1734 -91 
Q 1441 -91 1130 -33 
Q 819 25 488 141 
L 488 750 
Q 750 597 1062 519 
Q 1375 441 1716 441 
Q 2309 441 2620 675 
Q 2931 909 2931 1356 
Q 2931 1769 2642 2001 
Q 2353 2234 1838 2234 
L 1294 2234 
L 1294 2753 
L 1863 2753 
Q 2328 2753 2575 2939 
Q 2822 3125 2822 3475 
Q 2822 3834 2567 4026 
Q 2313 4219 1838 4219 
Q 1578 4219 1281 4162 
Q 984 4106 628 3988 
L 628 4550 
Q 988 4650 1302 4700 
Q 1616 4750 1894 4750 
Q 2613 4750 3031 4423 
Q 3450 4097 3450 3541 
Q 3450 3153 3228 2886 
Q 3006 2619 2597 2516 
z
" transform="scale(0.015625)"/>
       </defs>
       <use xlink:href="#DejaVuSans-31" transform="translate(0 0.765625)"/>
       <use xlink:href="#DejaVuSans-30" transform="translate(63.623047 0.765625)"/>
       <use xlink:href="#DejaVuSans-33" transform="translate(128.203125 39.046875) scale(0.7)"/>
      </g>
     </g>
    </g>
    <g id="xtick_5">
     <g id="line2d_5">
      <g>
       <use xlink:href="#m1a6ee3f69a" x="200.193646" y="191.232" style="stroke: #000000; stroke-width: 0.8"/>
      </g>
     </g>
     <g id="text_5">
      <!-- $\mathdefault{10^{4}}$ -->
      <g transform="translate(191.393646 205.830437) scale(0.1 -0.1)">
       <defs>
        <path id="DejaVuSans-34" d="M 2419 4116 
L 825 1625 
L 2419 1625 
L 2419 4116 
z
M 2253 4666 
L 3047 4666 
L 3047 1625 
L 3713 1625 
L 3713 1100 
L 3047 1100 
L 3047 0 
L 2419 0 
L 2419 1100 
L 313 1100 
L 313 1709 
L 2253 4666 
z
" transform="scale(0.015625)"/>
       </defs>
       <use xlink:href="#DejaVuSans-31" transform="translate(0 0.684375)"/>
       <use xlink:href="#DejaVuSans-30" transform="translate(63.623047 0.684375)"/>
       <use xlink:href="#DejaVuSans-34" transform="translate(128.203125 38.965625) scale(0.7)"/>
      </g>
     </g>
    </g>
    <g id="xtick_6">
     <g id="line2d_6">
      <g>
       <use xlink:href="#m1a6ee3f69a" x="237.084057" y="191.232" style="stroke: #000000; stroke-width: 0.8"/>
      </g>
     </g>
     <g id="text_6">
      <!-- $\mathdefault{10^{5}}$ -->
      <g transform="translate(228.284057 205.830437) scale(0.1 -0.1)">
       <defs>
        <path id="DejaVuSans-35" d="M 691 4666 
L 3169 4666 
L 3169 4134 
L 1269 4134 
L 1269 2991 
Q 1406 3038 1543 3061 
Q 1681 3084 1819 3084 
Q 2600 3084 3056 2656 
Q 3513 2228 3513 1497 
Q 3513 744 3044 326 
Q 2575 -91 1722 -91 
Q 1428 -91 1123 -41 
Q 819 9 494 109 
L 494 744 
Q 775 591 1075 516 
Q 1375 441 1709 441 
Q 2250 441 2565 725 
Q 2881 1009 2881 1497 
Q 2881 1984 2565 2268 
Q 2250 2553 1709 2553 
Q 1456 2553 1204 2497 
Q 953 2441 691 2322 
L 691 4666 
z
" transform="scale(0.015625)"/>
       </defs>
       <use xlink:href="#DejaVuSans-31" transform="translate(0 0.684375)"/>
       <use xlink:href="#DejaVuSans-30" transform="translate(63.623047 0.684375)"/>
       <use xlink:href="#DejaVuSans-35" transform="translate(128.203125 38.965625) scale(0.7)"/>
      </g>
     </g>
    </g>
    <g id="xtick_7">
     <g id="line2d_7">
      <g>
       <use xlink:href="#m1a6ee3f69a" x="273.974469" y="191.232" style="stroke: #000000; stroke-width: 0.8"/>
      </g>
     </g>
     <g id="text_7">
      <!-- $\mathdefault{10^{6}}$ -->
      <g transform="translate(265.174469 205.830437) scale(0.1 -0.1)">
       <defs>
        <path id="DejaVuSans-36" d="M 2113 2584 
Q 1688 2584 1439 2293 
Q 1191 2003 1191 1497 
Q 1191 994 1439 701 
Q 1688 409 2113 409 
Q 2538 409 2786 701 
Q 3034 994 3034 1497 
Q 3034 2003 2786 2293 
Q 2538 2584 2113 2584 
z
M 3366 4563 
L 3366 3988 
Q 3128 4100 2886 4159 
Q 2644 4219 2406 4219 
Q 1781 4219 1451 3797 
Q 1122 3375 1075 2522 
Q 1259 2794 1537 2939 
Q 1816 3084 2150 3084 
Q 2853 3084 3261 2657 
Q 3669 2231 3669 1497 
Q 3669 778 3244 343 
Q 2819 -91 2113 -91 
Q 1303 -91 875 529 
Q 447 1150 447 2328 
Q 447 3434 972 4092 
Q 1497 4750 2381 4750 
Q 2619 4750 2861 4703 
Q 3103 4656 3366 4563 
z
" transform="scale(0.015625)"/>
       </defs>
       <use xlink:href="#DejaVuSans-31" transform="translate(0 0.765625)"/>
       <use xlink:href="#DejaVuSans-30" transform="translate(63.623047 0.765625)"/>
       <use xlink:href="#DejaVuSans-36" transform="translate(128.203125 39.046875) scale(0.7)"/>
      </g>
     </g>
    </g>
    <g id="xtick_8">
     <g id="line2d_8">
      <defs>
       <path id="m3b2af48caa" d="M 0 0 
L 0 2 
" style="stroke: #000000; stroke-width: 0.6"/>
      </defs>
      <g>
       <use xlink:href="#m3b2af48caa" x="63.73712" y="191.232" style="stroke: #000000; stroke-width: 0.6"/>
      </g>
     </g>
    </g>
    <g id="xtick_9">
     <g id="line2d_9">
      <g>
       <use xlink:href="#m3b2af48caa" x="70.233199" y="191.232" style="stroke: #000000; stroke-width: 0.6"/>
      </g>
     </g>
    </g>
    <g id="xtick_10">
     <g id="line2d_10">
      <g>
       <use xlink:href="#m3b2af48caa" x="74.842241" y="191.232" style="stroke: #000000; stroke-width: 0.6"/>
      </g>
     </g>
    </g>
    <g id="xtick_11">
     <g id="line2d_11">
      <g>
       <use xlink:href="#m3b2af48caa" x="78.417291" y="191.232" style="stroke: #000000; stroke-width: 0.6"/>
      </g>
     </g>
    </g>
    <g id="xtick_12">
     <g id="line2d_12">
      <g>
       <use xlink:href="#m3b2af48caa" x="81.33832" y="191.232" style="stroke: #000000; stroke-width: 0.6"/>
      </g>
     </g>
    </g>
    <g id="xtick_13">
     <g id="line2d_13">
      <g>
       <use xlink:href="#m3b2af48caa" x="83.808014" y="191.232" style="stroke: #000000; stroke-width: 0.6"/>
      </g>
     </g>
    </g>
    <g id="xtick_14">
     <g id="line2d_14">
      <g>
       <use xlink:href="#m3b2af48caa" x="85.947361" y="191.232" style="stroke: #000000; stroke-width: 0.6"/>
      </g>
     </g>
    </g>
    <g id="xtick_15">
     <g id="line2d_15">
      <g>
       <use xlink:href="#m3b2af48caa" x="87.834399" y="191.232" style="stroke: #000000; stroke-width: 0.6"/>
      </g>
     </g>
    </g>
    <g id="xtick_16">
     <g id="line2d_16">
      <g>
       <use xlink:href="#m3b2af48caa" x="100.627532" y="191.232" style="stroke: #000000; stroke-width: 0.6"/>
      </g>
     </g>
    </g>
    <g id="xtick_17">
     <g id="line2d_17">
      <g>
       <use xlink:href="#m3b2af48caa" x="107.123611" y="191.232" style="stroke: #000000; stroke-width: 0.6"/>
      </g>
     </g>
    </g>
    <g id="xtick_18">
     <g id="line2d_18">
      <g>
       <use xlink:href="#m3b2af48caa" x="111.732652" y="191.232" style="stroke: #000000; stroke-width: 0.6"/>
      </g>
     </g>
    </g>
    <g id="xtick_19">
     <g id="line2d_19">
      <g>
       <use xlink:href="#m3b2af48caa" x="115.307703" y="191.232" style="stroke: #000000; stroke-width: 0.6"/>
      </g>
     </g>
    </g>
    <g id="xtick_20">
     <g id="line2d_20">
      <g>
       <use xlink:href="#m3b2af48caa" x="118.228731" y="191.232" style="stroke: #000000; stroke-width: 0.6"/>
      </g>
     </g>
    </g>
    <g id="xtick_21">
     <g id="line2d_21">
      <g>
       <use xlink:href="#m3b2af48caa" x="120.698426" y="191.232" style="stroke: #000000; stroke-width: 0.6"/>
      </g>
     </g>
    </g>
    <g id="xtick_22">
     <g id="line2d_22">
      <g>
       <use xlink:href="#m3b2af48caa" x="122.837773" y="191.232" style="stroke: #000000; stroke-width: 0.6"/>
      </g>
     </g>
    </g>
    <g id="xtick_23">
     <g id="line2d_23">
      <g>
       <use xlink:href="#m3b2af48caa" x="124.72481" y="191.232" style="stroke: #000000; stroke-width: 0.6"/>
      </g>
     </g>
    </g>
    <g id="xtick_24">
     <g id="line2d_24">
      <g>
       <use xlink:href="#m3b2af48caa" x="137.517943" y="191.232" style="stroke: #000000; stroke-width: 0.6"/>
      </g>
     </g>
    </g>
    <g id="xtick_25">
     <g id="line2d_25">
      <g>
       <use xlink:href="#m3b2af48caa" x="144.014022" y="191.232" style="stroke: #000000; stroke-width: 0.6"/>
      </g>
     </g>
    </g>
    <g id="xtick_26">
     <g id="line2d_26">
      <g>
       <use xlink:href="#m3b2af48caa" x="148.623064" y="191.232" style="stroke: #000000; stroke-width: 0.6"/>
      </g>
     </g>
    </g>
    <g id="xtick_27">
     <g id="line2d_27">
      <g>
       <use xlink:href="#m3b2af48caa" x="152.198114" y="191.232" style="stroke: #000000; stroke-width: 0.6"/>
      </g>
     </g>
    </g>
    <g id="xtick_28">
     <g id="line2d_28">
      <g>
       <use xlink:href="#m3b2af48caa" x="155.119143" y="191.232" style="stroke: #000000; stroke-width: 0.6"/>
      </g>
     </g>
    </g>
    <g id="xtick_29">
     <g id="line2d_29">
      <g>
       <use xlink:href="#m3b2af48caa" x="157.588837" y="191.232" style="stroke: #000000; stroke-width: 0.6"/>
      </g>
     </g>
    </g>
    <g id="xtick_30">
     <g id="line2d_30">
      <g>
       <use xlink:href="#m3b2af48caa" x="159.728184" y="191.232" style="stroke: #000000; stroke-width: 0.6"/>
      </g>
     </g>
    </g>
    <g id="xtick_31">
     <g id="line2d_31">
      <g>
       <use xlink:href="#m3b2af48caa" x="161.615222" y="191.232" style="stroke: #000000; stroke-width: 0.6"/>
      </g>
     </g>
    </g>
    <g id="xtick_32">
     <g id="line2d_32">
      <g>
       <use xlink:href="#m3b2af48caa" x="174.408355" y="191.232" style="stroke: #000000; stroke-width: 0.6"/>
      </g>
     </g>
    </g>
    <g id="xtick_33">
     <g id="line2d_33">
      <g>
       <use xlink:href="#m3b2af48caa" x="180.904434" y="191.232" style="stroke: #000000; stroke-width: 0.6"/>
      </g>
     </g>
    </g>
    <g id="xtick_34">
     <g id="line2d_34">
      <g>
       <use xlink:href="#m3b2af48caa" x="185.513475" y="191.232" style="stroke: #000000; stroke-width: 0.6"/>
      </g>
     </g>
    </g>
    <g id="xtick_35">
     <g id="line2d_35">
      <g>
       <use xlink:href="#m3b2af48caa" x="189.088525" y="191.232" style="stroke: #000000; stroke-width: 0.6"/>
      </g>
     </g>
    </g>
    <g id="xtick_36">
     <g id="line2d_36">
      <g>
       <use xlink:href="#m3b2af48caa" x="192.009554" y="191.232" style="stroke: #000000; stroke-width: 0.6"/>
      </g>
     </g>
    </g>
    <g id="xtick_37">
     <g id="line2d_37">
      <g>
       <use xlink:href="#m3b2af48caa" x="194.479249" y="191.232" style="stroke: #000000; stroke-width: 0.6"/>
      </g>
     </g>
    </g>
    <g id="xtick_38">
     <g id="line2d_38">
      <g>
       <use xlink:href="#m3b2af48caa" x="196.618596" y="191.232" style="stroke: #000000; stroke-width: 0.6"/>
      </g>
     </g>
    </g>
    <g id="xtick_39">
     <g id="line2d_39">
      <g>
       <use xlink:href="#m3b2af48caa" x="198.505633" y="191.232" style="stroke: #000000; stroke-width: 0.6"/>
      </g>
     </g>
    </g>
    <g id="xtick_40">
     <g id="line2d_40">
      <g>
       <use xlink:href="#m3b2af48caa" x="211.298766" y="191.232" style="stroke: #000000; stroke-width: 0.6"/>
      </g>
     </g>
    </g>
    <g id="xtick_41">
     <g id="line2d_41">
      <g>
       <use xlink:href="#m3b2af48caa" x="217.794845" y="191.232" style="stroke: #000000; stroke-width: 0.6"/>
      </g>
     </g>
    </g>
    <g id="xtick_42">
     <g id="line2d_42">
      <g>
       <use xlink:href="#m3b2af48caa" x="222.403887" y="191.232" style="stroke: #000000; stroke-width: 0.6"/>
      </g>
     </g>
    </g>
    <g id="xtick_43">
     <g id="line2d_43">
      <g>
       <use xlink:href="#m3b2af48caa" x="225.978937" y="191.232" style="stroke: #000000; stroke-width: 0.6"/>
      </g>
     </g>
    </g>
    <g id="xtick_44">
     <g id="line2d_44">
      <g>
       <use xlink:href="#m3b2af48caa" x="228.899966" y="191.232" style="stroke: #000000; stroke-width: 0.6"/>
      </g>
     </g>
    </g>
    <g id="xtick_45">
     <g id="line2d_45">
      <g>
       <use xlink:href="#m3b2af48caa" x="231.36966" y="191.232" style="stroke: #000000; stroke-width: 0.6"/>
      </g>
     </g>
    </g>
    <g id="xtick_46">
     <g id="line2d_46">
      <g>
       <use xlink:href="#m3b2af48caa" x="233.509007" y="191.232" style="stroke: #000000; stroke-width: 0.6"/>
      </g>
     </g>
    </g>
    <g id="xtick_47">
     <g id="line2d_47">
      <g>
       <use xlink:href="#m3b2af48caa" x="235.396045" y="191.232" style="stroke: #000000; stroke-width: 0.6"/>
      </g>
     </g>
    </g>
    <g id="xtick_48">
     <g id="line2d_48">
      <g>
       <use xlink:href="#m3b2af48caa" x="248.189178" y="191.232" style="stroke: #000000; stroke-width: 0.6"/>
      </g>
     </g>
    </g>
    <g id="xtick_49">
     <g id="line2d_49">
      <g>
       <use xlink:href="#m3b2af48caa" x="254.685257" y="191.232" style="stroke: #000000; stroke-width: 0.6"/>
      </g>
     </g>
    </g>
    <g id="xtick_50">
     <g id="line2d_50">
      <g>
       <use xlink:href="#m3b2af48caa" x="259.294298" y="191.232" style="stroke: #000000; stroke-width: 0.6"/>
      </g>
     </g>
    </g>
    <g id="xtick_51">
     <g id="line2d_51">
      <g>
       <use xlink:href="#m3b2af48caa" x="262.869348" y="191.232" style="stroke: #000000; stroke-width: 0.6"/>
      </g>
     </g>
    </g>
    <g id="xtick_52">
     <g id="line2d_52">
      <g>
       <use xlink:href="#m3b2af48caa" x="265.790377" y="191.232" style="stroke: #000000; stroke-width: 0.6"/>
      </g>
     </g>
    </g>
    <g id="xtick_53">
     <g id="line2d_53">
      <g>
       <use xlink:href="#m3b2af48caa" x="268.260072" y="191.232" style="stroke: #000000; stroke-width: 0.6"/>
      </g>
     </g>
    </g>
    <g id="xtick_54">
     <g id="line2d_54">
      <g>
       <use xlink:href="#m3b2af48caa" x="270.399418" y="191.232" style="stroke: #000000; stroke-width: 0.6"/>
      </g>
     </g>
    </g>
    <g id="xtick_55">
     <g id="line2d_55">
      <g>
       <use xlink:href="#m3b2af48caa" x="272.286456" y="191.232" style="stroke: #000000; stroke-width: 0.6"/>
      </g>
     </g>
    </g>
    <g id="xtick_56">
     <g id="line2d_56">
      <g>
       <use xlink:href="#m3b2af48caa" x="285.079589" y="191.232" style="stroke: #000000; stroke-width: 0.6"/>
      </g>
     </g>
    </g>
    <g id="xtick_57">
     <g id="line2d_57">
      <g>
       <use xlink:href="#m3b2af48caa" x="291.575668" y="191.232" style="stroke: #000000; stroke-width: 0.6"/>
      </g>
     </g>
    </g>
    <g id="text_8">
     <!-- Pressure head -->
     <g transform="translate(137.958812 219.508562) scale(0.1 -0.1)">
      <defs>
       <path id="DejaVuSans-50" d="M 1259 4147 
L 1259 2394 
L 2053 2394 
Q 2494 2394 2734 2622 
Q 2975 2850 2975 3272 
Q 2975 3691 2734 3919 
Q 2494 4147 2053 4147 
L 1259 4147 
z
M 628 4666 
L 2053 4666 
Q 2838 4666 3239 4311 
Q 3641 3956 3641 3272 
Q 3641 2581 3239 2228 
Q 2838 1875 2053 1875 
L 1259 1875 
L 1259 0 
L 628 0 
L 628 4666 
z
" transform="scale(0.015625)"/>
       <path id="DejaVuSans-72" d="M 2631 2963 
Q 2534 3019 2420 3045 
Q 2306 3072 2169 3072 
Q 1681 3072 1420 2755 
Q 1159 2438 1159 1844 
L 1159 0 
L 581 0 
L 581 3500 
L 1159 3500 
L 1159 2956 
Q 1341 3275 1631 3429 
Q 1922 3584 2338 3584 
Q 2397 3584 2469 3576 
Q 2541 3569 2628 3553 
L 2631 2963 
z
" transform="scale(0.015625)"/>
       <path id="DejaVuSans-65" d="M 3597 1894 
L 3597 1613 
L 953 1613 
Q 991 1019 1311 708 
Q 1631 397 2203 397 
Q 2534 397 2845 478 
Q 3156 559 3463 722 
L 3463 178 
Q 3153 47 2828 -22 
Q 2503 -91 2169 -91 
Q 1331 -91 842 396 
Q 353 884 353 1716 
Q 353 2575 817 3079 
Q 1281 3584 2069 3584 
Q 2775 3584 3186 3129 
Q 3597 2675 3597 1894 
z
M 3022 2063 
Q 3016 2534 2758 2815 
Q 2500 3097 2075 3097 
Q 1594 3097 1305 2825 
Q 1016 2553 972 2059 
L 3022 2063 
z
" transform="scale(0.015625)"/>
       <path id="DejaVuSans-73" d="M 2834 3397 
L 2834 2853 
Q 2591 2978 2328 3040 
Q 2066 3103 1784 3103 
Q 1356 3103 1142 2972 
Q 928 2841 928 2578 
Q 928 2378 1081 2264 
Q 1234 2150 1697 2047 
L 1894 2003 
Q 2506 1872 2764 1633 
Q 3022 1394 3022 966 
Q 3022 478 2636 193 
Q 2250 -91 1575 -91 
Q 1294 -91 989 -36 
Q 684 19 347 128 
L 347 722 
Q 666 556 975 473 
Q 1284 391 1588 391 
Q 1994 391 2212 530 
Q 2431 669 2431 922 
Q 2431 1156 2273 1281 
Q 2116 1406 1581 1522 
L 1381 1569 
Q 847 1681 609 1914 
Q 372 2147 372 2553 
Q 372 3047 722 3315 
Q 1072 3584 1716 3584 
Q 2034 3584 2315 3537 
Q 2597 3491 2834 3397 
z
" transform="scale(0.015625)"/>
       <path id="DejaVuSans-75" d="M 544 1381 
L 544 3500 
L 1119 3500 
L 1119 1403 
Q 1119 906 1312 657 
Q 1506 409 1894 409 
Q 2359 409 2629 706 
Q 2900 1003 2900 1516 
L 2900 3500 
L 3475 3500 
L 3475 0 
L 2900 0 
L 2900 538 
Q 2691 219 2414 64 
Q 2138 -91 1772 -91 
Q 1169 -91 856 284 
Q 544 659 544 1381 
z
M 1991 3584 
L 1991 3584 
z
" transform="scale(0.015625)"/>
       <path id="DejaVuSans-20" transform="scale(0.015625)"/>
       <path id="DejaVuSans-68" d="M 3513 2113 
L 3513 0 
L 2938 0 
L 2938 2094 
Q 2938 2591 2744 2837 
Q 2550 3084 2163 3084 
Q 1697 3084 1428 2787 
Q 1159 2491 1159 1978 
L 1159 0 
L 581 0 
L 581 4863 
L 1159 4863 
L 1159 2956 
Q 1366 3272 1645 3428 
Q 1925 3584 2291 3584 
Q 2894 3584 3203 3211 
Q 3513 2838 3513 2113 
z
" transform="scale(0.015625)"/>
       <path id="DejaVuSans-61" d="M 2194 1759 
Q 1497 1759 1228 1600 
Q 959 1441 959 1056 
Q 959 750 1161 570 
Q 1363 391 1709 391 
Q 2188 391 2477 730 
Q 2766 1069 2766 1631 
L 2766 1759 
L 2194 1759 
z
M 3341 1997 
L 3341 0 
L 2766 0 
L 2766 531 
Q 2569 213 2275 61 
Q 1981 -91 1556 -91 
Q 1019 -91 701 211 
Q 384 513 384 1019 
Q 384 1609 779 1909 
Q 1175 2209 1959 2209 
L 2766 2209 
L 2766 2266 
Q 2766 2663 2505 2880 
Q 2244 3097 1772 3097 
Q 1472 3097 1187 3025 
Q 903 2953 641 2809 
L 641 3341 
Q 956 3463 1253 3523 
Q 1550 3584 1831 3584 
Q 2591 3584 2966 3190 
Q 3341 2797 3341 1997 
z
" transform="scale(0.015625)"/>
       <path id="DejaVuSans-64" d="M 2906 2969 
L 2906 4863 
L 3481 4863 
L 3481 0 
L 2906 0 
L 2906 525 
Q 2725 213 2448 61 
Q 2172 -91 1784 -91 
Q 1150 -91 751 415 
Q 353 922 353 1747 
Q 353 2572 751 3078 
Q 1150 3584 1784 3584 
Q 2172 3584 2448 3432 
Q 2725 3281 2906 2969 
z
M 947 1747 
Q 947 1113 1208 752 
Q 1469 391 1925 391 
Q 2381 391 2643 752 
Q 2906 1113 2906 1747 
Q 2906 2381 2643 2742 
Q 2381 3103 1925 3103 
Q 1469 3103 1208 2742 
Q 947 2381 947 1747 
z
" transform="scale(0.015625)"/>
      </defs>
      <use xlink:href="#DejaVuSans-50"/>
      <use xlink:href="#DejaVuSans-72" transform="translate(58.552734 0)"/>
      <use xlink:href="#DejaVuSans-65" transform="translate(97.416016 0)"/>
      <use xlink:href="#DejaVuSans-73" transform="translate(158.939453 0)"/>
      <use xlink:href="#DejaVuSans-73" transform="translate(211.039062 0)"/>
      <use xlink:href="#DejaVuSans-75" transform="translate(263.138672 0)"/>
      <use xlink:href="#DejaVuSans-72" transform="translate(326.517578 0)"/>
      <use xlink:href="#DejaVuSans-65" transform="translate(365.380859 0)"/>
      <use xlink:href="#DejaVuSans-20" transform="translate(426.904297 0)"/>
      <use xlink:href="#DejaVuSans-68" transform="translate(458.691406 0)"/>
      <use xlink:href="#DejaVuSans-65" transform="translate(522.070312 0)"/>
      <use xlink:href="#DejaVuSans-61" transform="translate(583.59375 0)"/>
      <use xlink:href="#DejaVuSans-64" transform="translate(644.873047 0)"/>
     </g>
    </g>
   </g>
   <g id="matplotlib.axis_2">
    <g id="ytick_1">
     <g id="line2d_58">
      <defs>
       <path id="m9caaf71be9" d="M 0 0 
L -3.5 0 
" style="stroke: #000000; stroke-width: 0.8"/>
      </defs>
      <g>
       <use xlink:href="#m9caaf71be9" x="52.632" y="191.232" style="stroke: #000000; stroke-width: 0.8"/>
      </g>
     </g>
     <g id="text_9">
      <!-- 0.000 -->
      <g transform="translate(17.003875 195.031219) scale(0.1 -0.1)">
       <defs>
        <path id="DejaVuSans-2e" d="M 684 794 
L 1344 794 
L 1344 0 
L 684 0 
L 684 794 
z
" transform="scale(0.015625)"/>
       </defs>
       <use xlink:href="#DejaVuSans-30"/>
       <use xlink:href="#DejaVuSans-2e" transform="translate(63.623047 0)"/>
       <use xlink:href="#DejaVuSans-30" transform="translate(95.410156 0)"/>
       <use xlink:href="#DejaVuSans-30" transform="translate(159.033203 0)"/>
       <use xlink:href="#DejaVuSans-30" transform="translate(222.65625 0)"/>
      </g>
     </g>
    </g>
    <g id="ytick_2">
     <g id="line2d_59">
      <g>
       <use xlink:href="#m9caaf71be9" x="52.632" y="167.753739" style="stroke: #000000; stroke-width: 0.8"/>
      </g>
     </g>
     <g id="text_10">
      <!-- 0.025 -->
      <g transform="translate(17.003875 171.552958) scale(0.1 -0.1)">
       <use xlink:href="#DejaVuSans-30"/>
       <use xlink:href="#DejaVuSans-2e" transform="translate(63.623047 0)"/>
       <use xlink:href="#DejaVuSans-30" transform="translate(95.410156 0)"/>
       <use xlink:href="#DejaVuSans-32" transform="translate(159.033203 0)"/>
       <use xlink:href="#DejaVuSans-35" transform="translate(222.65625 0)"/>
      </g>
     </g>
    </g>
    <g id="ytick_3">
     <g id="line2d_60">
      <g>
       <use xlink:href="#m9caaf71be9" x="52.632" y="144.275478" style="stroke: #000000; stroke-width: 0.8"/>
      </g>
     </g>
     <g id="text_11">
      <!-- 0.050 -->
      <g transform="translate(17.003875 148.074697) scale(0.1 -0.1)">
       <use xlink:href="#DejaVuSans-30"/>
       <use xlink:href="#DejaVuSans-2e" transform="translate(63.623047 0)"/>
       <use xlink:href="#DejaVuSans-30" transform="translate(95.410156 0)"/>
       <use xlink:href="#DejaVuSans-35" transform="translate(159.033203 0)"/>
       <use xlink:href="#DejaVuSans-30" transform="translate(222.65625 0)"/>
      </g>
     </g>
    </g>
    <g id="ytick_4">
     <g id="line2d_61">
      <g>
       <use xlink:href="#m9caaf71be9" x="52.632" y="120.797217" style="stroke: #000000; stroke-width: 0.8"/>
      </g>
     </g>
     <g id="text_12">
      <!-- 0.075 -->
      <g transform="translate(17.003875 124.596436) scale(0.1 -0.1)">
       <defs>
        <path id="DejaVuSans-37" d="M 525 4666 
L 3525 4666 
L 3525 4397 
L 1831 0 
L 1172 0 
L 2766 4134 
L 525 4134 
L 525 4666 
z
" transform="scale(0.015625)"/>
       </defs>
       <use xlink:href="#DejaVuSans-30"/>
       <use xlink:href="#DejaVuSans-2e" transform="translate(63.623047 0)"/>
       <use xlink:href="#DejaVuSans-30" transform="translate(95.410156 0)"/>
       <use xlink:href="#DejaVuSans-37" transform="translate(159.033203 0)"/>
       <use xlink:href="#DejaVuSans-35" transform="translate(222.65625 0)"/>
      </g>
     </g>
    </g>
    <g id="ytick_5">
     <g id="line2d_62">
      <g>
       <use xlink:href="#m9caaf71be9" x="52.632" y="97.318957" style="stroke: #000000; stroke-width: 0.8"/>
      </g>
     </g>
     <g id="text_13">
      <!-- 0.100 -->
      <g transform="translate(17.003875 101.118175) scale(0.1 -0.1)">
       <use xlink:href="#DejaVuSans-30"/>
       <use xlink:href="#DejaVuSans-2e" transform="translate(63.623047 0)"/>
       <use xlink:href="#DejaVuSans-31" transform="translate(95.410156 0)"/>
       <use xlink:href="#DejaVuSans-30" transform="translate(159.033203 0)"/>
       <use xlink:href="#DejaVuSans-30" transform="translate(222.65625 0)"/>
      </g>
     </g>
    </g>
    <g id="ytick_6">
     <g id="line2d_63">
      <g>
       <use xlink:href="#m9caaf71be9" x="52.632" y="73.840696" style="stroke: #000000; stroke-width: 0.8"/>
      </g>
     </g>
     <g id="text_14">
      <!-- 0.125 -->
      <g transform="translate(17.003875 77.639914) scale(0.1 -0.1)">
       <use xlink:href="#DejaVuSans-30"/>
       <use xlink:href="#DejaVuSans-2e" transform="translate(63.623047 0)"/>
       <use xlink:href="#DejaVuSans-31" transform="translate(95.410156 0)"/>
       <use xlink:href="#DejaVuSans-32" transform="translate(159.033203 0)"/>
       <use xlink:href="#DejaVuSans-35" transform="translate(222.65625 0)"/>
      </g>
     </g>
    </g>
    <g id="ytick_7">
     <g id="line2d_64">
      <g>
       <use xlink:href="#m9caaf71be9" x="52.632" y="50.362435" style="stroke: #000000; stroke-width: 0.8"/>
      </g>
     </g>
     <g id="text_15">
      <!-- 0.150 -->
      <g transform="translate(17.003875 54.161654) scale(0.1 -0.1)">
       <use xlink:href="#DejaVuSans-30"/>
       <use xlink:href="#DejaVuSans-2e" transform="translate(63.623047 0)"/>
       <use xlink:href="#DejaVuSans-31" transform="translate(95.410156 0)"/>
       <use xlink:href="#DejaVuSans-35" transform="translate(159.033203 0)"/>
       <use xlink:href="#DejaVuSans-30" transform="translate(222.65625 0)"/>
      </g>
     </g>
    </g>
    <g id="ytick_8">
     <g id="line2d_65">
      <g>
       <use xlink:href="#m9caaf71be9" x="52.632" y="26.884174" style="stroke: #000000; stroke-width: 0.8"/>
      </g>
     </g>
     <g id="text_16">
      <!-- 0.175 -->
      <g transform="translate(17.003875 30.683393) scale(0.1 -0.1)">
       <use xlink:href="#DejaVuSans-30"/>
       <use xlink:href="#DejaVuSans-2e" transform="translate(63.623047 0)"/>
       <use xlink:href="#DejaVuSans-31" transform="translate(95.410156 0)"/>
       <use xlink:href="#DejaVuSans-37" transform="translate(159.033203 0)"/>
       <use xlink:href="#DejaVuSans-35" transform="translate(222.65625 0)"/>
      </g>
     </g>
    </g>
    <g id="text_17">
     <!-- Volumetric water content -->
     <g transform="translate(10.924187 164.693188) rotate(-90) scale(0.1 -0.1)">
      <defs>
       <path id="DejaVuSans-56" d="M 1831 0 
L 50 4666 
L 709 4666 
L 2188 738 
L 3669 4666 
L 4325 4666 
L 2547 0 
L 1831 0 
z
" transform="scale(0.015625)"/>
       <path id="DejaVuSans-6f" d="M 1959 3097 
Q 1497 3097 1228 2736 
Q 959 2375 959 1747 
Q 959 1119 1226 758 
Q 1494 397 1959 397 
Q 2419 397 2687 759 
Q 2956 1122 2956 1747 
Q 2956 2369 2687 2733 
Q 2419 3097 1959 3097 
z
M 1959 3584 
Q 2709 3584 3137 3096 
Q 3566 2609 3566 1747 
Q 3566 888 3137 398 
Q 2709 -91 1959 -91 
Q 1206 -91 779 398 
Q 353 888 353 1747 
Q 353 2609 779 3096 
Q 1206 3584 1959 3584 
z
" transform="scale(0.015625)"/>
       <path id="DejaVuSans-6c" d="M 603 4863 
L 1178 4863 
L 1178 0 
L 603 0 
L 603 4863 
z
" transform="scale(0.015625)"/>
       <path id="DejaVuSans-6d" d="M 3328 2828 
Q 3544 3216 3844 3400 
Q 4144 3584 4550 3584 
Q 5097 3584 5394 3201 
Q 5691 2819 5691 2113 
L 5691 0 
L 5113 0 
L 5113 2094 
Q 5113 2597 4934 2840 
Q 4756 3084 4391 3084 
Q 3944 3084 3684 2787 
Q 3425 2491 3425 1978 
L 3425 0 
L 2847 0 
L 2847 2094 
Q 2847 2600 2669 2842 
Q 2491 3084 2119 3084 
Q 1678 3084 1418 2786 
Q 1159 2488 1159 1978 
L 1159 0 
L 581 0 
L 581 3500 
L 1159 3500 
L 1159 2956 
Q 1356 3278 1631 3431 
Q 1906 3584 2284 3584 
Q 2666 3584 2933 3390 
Q 3200 3197 3328 2828 
z
" transform="scale(0.015625)"/>
       <path id="DejaVuSans-74" d="M 1172 4494 
L 1172 3500 
L 2356 3500 
L 2356 3053 
L 1172 3053 
L 1172 1153 
Q 1172 725 1289 603 
Q 1406 481 1766 481 
L 2356 481 
L 2356 0 
L 1766 0 
Q 1100 0 847 248 
Q 594 497 594 1153 
L 594 3053 
L 172 3053 
L 172 3500 
L 594 3500 
L 594 4494 
L 1172 4494 
z
" transform="scale(0.015625)"/>
       <path id="DejaVuSans-69" d="M 603 3500 
L 1178 3500 
L 1178 0 
L 603 0 
L 603 3500 
z
M 603 4863 
L 1178 4863 
L 1178 4134 
L 603 4134 
L 603 4863 
z
" transform="scale(0.015625)"/>
       <path id="DejaVuSans-63" d="M 3122 3366 
L 3122 2828 
Q 2878 2963 2633 3030 
Q 2388 3097 2138 3097 
Q 1578 3097 1268 2742 
Q 959 2388 959 1747 
Q 959 1106 1268 751 
Q 1578 397 2138 397 
Q 2388 397 2633 464 
Q 2878 531 3122 666 
L 3122 134 
Q 2881 22 2623 -34 
Q 2366 -91 2075 -91 
Q 1284 -91 818 406 
Q 353 903 353 1747 
Q 353 2603 823 3093 
Q 1294 3584 2113 3584 
Q 2378 3584 2631 3529 
Q 2884 3475 3122 3366 
z
" transform="scale(0.015625)"/>
       <path id="DejaVuSans-77" d="M 269 3500 
L 844 3500 
L 1563 769 
L 2278 3500 
L 2956 3500 
L 3675 769 
L 4391 3500 
L 4966 3500 
L 4050 0 
L 3372 0 
L 2619 2869 
L 1863 0 
L 1184 0 
L 269 3500 
z
" transform="scale(0.015625)"/>
       <path id="DejaVuSans-6e" d="M 3513 2113 
L 3513 0 
L 2938 0 
L 2938 2094 
Q 2938 2591 2744 2837 
Q 2550 3084 2163 3084 
Q 1697 3084 1428 2787 
Q 1159 2491 1159 1978 
L 1159 0 
L 581 0 
L 581 3500 
L 1159 3500 
L 1159 2956 
Q 1366 3272 1645 3428 
Q 1925 3584 2291 3584 
Q 2894 3584 3203 3211 
Q 3513 2838 3513 2113 
z
" transform="scale(0.015625)"/>
      </defs>
      <use xlink:href="#DejaVuSans-56"/>
      <use xlink:href="#DejaVuSans-6f" transform="translate(60.658203 0)"/>
      <use xlink:href="#DejaVuSans-6c" transform="translate(121.839844 0)"/>
      <use xlink:href="#DejaVuSans-75" transform="translate(149.623047 0)"/>
      <use xlink:href="#DejaVuSans-6d" transform="translate(213.001953 0)"/>
      <use xlink:href="#DejaVuSans-65" transform="translate(310.414062 0)"/>
      <use xlink:href="#DejaVuSans-74" transform="translate(371.9375 0)"/>
      <use xlink:href="#DejaVuSans-72" transform="translate(411.146484 0)"/>
      <use xlink:href="#DejaVuSans-69" transform="translate(452.259766 0)"/>
      <use xlink:href="#DejaVuSans-63" transform="translate(480.042969 0)"/>
      <use xlink:href="#DejaVuSans-20" transform="translate(535.023438 0)"/>
      <use xlink:href="#DejaVuSans-77" transform="translate(566.810547 0)"/>
      <use xlink:href="#DejaVuSans-61" transform="translate(648.597656 0)"/>
      <use xlink:href="#DejaVuSans-74" transform="translate(709.876953 0)"/>
      <use xlink:href="#DejaVuSans-65" transform="translate(749.085938 0)"/>
      <use xlink:href="#DejaVuSans-72" transform="translate(810.609375 0)"/>
      <use xlink:href="#DejaVuSans-20" transform="translate(851.722656 0)"/>
      <use xlink:href="#DejaVuSans-63" transform="translate(883.509766 0)"/>
      <use xlink:href="#DejaVuSans-6f" transform="translate(938.490234 0)"/>
      <use xlink:href="#DejaVuSans-6e" transform="translate(999.671875 0)"/>
      <use xlink:href="#DejaVuSans-74" transform="translate(1063.050781 0)"/>
      <use xlink:href="#DejaVuSans-65" transform="translate(1102.259766 0)"/>
      <use xlink:href="#DejaVuSans-6e" transform="translate(1163.783203 0)"/>
      <use xlink:href="#DejaVuSans-74" transform="translate(1227.162109 0)"/>
     </g>
    </g>
   </g>
   <g id="line2d_66">
    <defs>
     <path id="mdf92c387b1" d="M 0 3 
C 0.795609 3 1.55874 2.683901 2.12132 2.12132 
C 2.683901 1.55874 3 0.795609 3 0 
C 3 -0.795609 2.683901 -1.55874 2.12132 -2.12132 
C 1.55874 -2.683901 0.795609 -3 0 -3 
C -0.795609 -3 -1.55874 -2.683901 -2.12132 -2.12132 
C -2.683901 -1.55874 -3 -0.795609 -3 0 
C -3 0.795609 -2.683901 1.55874 -2.12132 2.12132 
C -1.55874 2.683901 -0.795609 3 0 3 
z
" style="stroke: #000000"/>
    </defs>
    <g clip-path="url(#p87931b066b)">
     <use xlink:href="#mdf92c387b1" x="70.007384" y="34.960696" style="stroke: #000000"/>
     <use xlink:href="#mdf92c387b1" x="70.265617" y="35.054609" style="stroke: #000000"/>
     <use xlink:href="#mdf92c387b1" x="70.486959" y="34.960696" style="stroke: #000000"/>
     <use xlink:href="#mdf92c387b1" x="70.745192" y="34.960696" style="stroke: #000000"/>
     <use xlink:href="#mdf92c387b1" x="71.077206" y="35.054609" style="stroke: #000000"/>
     <use xlink:href="#mdf92c387b1" x="71.44611" y="35.054609" style="stroke: #000000"/>
     <use xlink:href="#mdf92c387b1" x="71.741233" y="35.148522" style="stroke: #000000"/>
     <use xlink:href="#mdf92c387b1" x="71.999466" y="35.336348" style="stroke: #000000"/>
     <use xlink:href="#mdf92c387b1" x="72.073247" y="35.430261" style="stroke: #000000"/>
     <use xlink:href="#mdf92c387b1" x="72.110137" y="35.524174" style="stroke: #000000"/>
     <use xlink:href="#mdf92c387b1" x="72.257699" y="35.712" style="stroke: #000000"/>
     <use xlink:href="#mdf92c387b1" x="71.999466" y="35.899826" style="stroke: #000000"/>
     <use xlink:href="#mdf92c387b1" x="71.667452" y="36.087652" style="stroke: #000000"/>
     <use xlink:href="#mdf92c387b1" x="72.147028" y="36.275478" style="stroke: #000000"/>
     <use xlink:href="#mdf92c387b1" x="72.737274" y="36.463304" style="stroke: #000000"/>
     <use xlink:href="#mdf92c387b1" x="72.921726" y="36.745043" style="stroke: #000000"/>
     <use xlink:href="#mdf92c387b1" x="72.995507" y="36.93287" style="stroke: #000000"/>
     <use xlink:href="#mdf92c387b1" x="73.143069" y="37.214609" style="stroke: #000000"/>
     <use xlink:href="#mdf92c387b1" x="73.143069" y="37.496348" style="stroke: #000000"/>
     <use xlink:href="#mdf92c387b1" x="73.770206" y="37.684174" style="stroke: #000000"/>
     <use xlink:href="#mdf92c387b1" x="74.840028" y="37.965913" style="stroke: #000000"/>
     <use xlink:href="#mdf92c387b1" x="75.282713" y="38.153739" style="stroke: #000000"/>
     <use xlink:href="#mdf92c387b1" x="75.540946" y="38.529391" style="stroke: #000000"/>
     <use xlink:href="#mdf92c387b1" x="73.917767" y="38.81113" style="stroke: #000000"/>
     <use xlink:href="#mdf92c387b1" x="71.778124" y="39.280696" style="stroke: #000000"/>
     <use xlink:href="#mdf92c387b1" x="72.257699" y="39.656348" style="stroke: #000000"/>
     <use xlink:href="#mdf92c387b1" x="72.626603" y="39.938087" style="stroke: #000000"/>
     <use xlink:href="#mdf92c387b1" x="73.438192" y="40.407652" style="stroke: #000000"/>
     <use xlink:href="#mdf92c387b1" x="74.876918" y="40.783304" style="stroke: #000000"/>
     <use xlink:href="#mdf92c387b1" x="75.762288" y="41.346783" style="stroke: #000000"/>
     <use xlink:href="#mdf92c387b1" x="77.127233" y="41.722435" style="stroke: #000000"/>
     <use xlink:href="#mdf92c387b1" x="78.897973" y="42.004174" style="stroke: #000000"/>
     <use xlink:href="#mdf92c387b1" x="79.340658" y="42.473739" style="stroke: #000000"/>
     <use xlink:href="#mdf92c387b1" x="79.52511" y="42.849391" style="stroke: #000000"/>
     <use xlink:href="#mdf92c387b1" x="80.115357" y="43.318957" style="stroke: #000000"/>
     <use xlink:href="#mdf92c387b1" x="79.967795" y="43.882435" style="stroke: #000000"/>
     <use xlink:href="#mdf92c387b1" x="80.004685" y="44.445913" style="stroke: #000000"/>
     <use xlink:href="#mdf92c387b1" x="80.373589" y="44.915478" style="stroke: #000000"/>
     <use xlink:href="#mdf92c387b1" x="80.484261" y="45.29113" style="stroke: #000000"/>
     <use xlink:href="#mdf92c387b1" x="81.000726" y="45.854609" style="stroke: #000000"/>
     <use xlink:href="#mdf92c387b1" x="81.996768" y="46.418087" style="stroke: #000000"/>
     <use xlink:href="#mdf92c387b1" x="84.173302" y="46.981565" style="stroke: #000000"/>
     <use xlink:href="#mdf92c387b1" x="87.013863" y="47.638957" style="stroke: #000000"/>
     <use xlink:href="#mdf92c387b1" x="89.780644" y="48.202435" style="stroke: #000000"/>
     <use xlink:href="#mdf92c387b1" x="93.543466" y="48.859826" style="stroke: #000000"/>
     <use xlink:href="#mdf92c387b1" x="100.515754" y="49.517217" style="stroke: #000000"/>
     <use xlink:href="#mdf92c387b1" x="107.783165" y="50.174609" style="stroke: #000000"/>
     <use xlink:href="#mdf92c387b1" x="112.837151" y="50.925913" style="stroke: #000000"/>
     <use xlink:href="#mdf92c387b1" x="115.788384" y="51.865043" style="stroke: #000000"/>
     <use xlink:href="#mdf92c387b1" x="117.15333" y="52.616348" style="stroke: #000000"/>
     <use xlink:href="#mdf92c387b1" x="117.891138" y="53.367652" style="stroke: #000000"/>
     <use xlink:href="#mdf92c387b1" x="119.034741" y="54.400696" style="stroke: #000000"/>
     <use xlink:href="#mdf92c387b1" x="119.92011" y="55.339826" style="stroke: #000000"/>
     <use xlink:href="#mdf92c387b1" x="120.76859" y="56.37287" style="stroke: #000000"/>
     <use xlink:href="#mdf92c387b1" x="121.65396" y="57.593739" style="stroke: #000000"/>
     <use xlink:href="#mdf92c387b1" x="122.281097" y="58.720696" style="stroke: #000000"/>
     <use xlink:href="#mdf92c387b1" x="123.129576" y="60.129391" style="stroke: #000000"/>
     <use xlink:href="#mdf92c387b1" x="124.162508" y="61.632" style="stroke: #000000"/>
     <use xlink:href="#mdf92c387b1" x="124.568302" y="63.040696" style="stroke: #000000"/>
     <use xlink:href="#mdf92c387b1" x="124.826535" y="64.355478" style="stroke: #000000"/>
     <use xlink:href="#mdf92c387b1" x="125.379891" y="65.764174" style="stroke: #000000"/>
     <use xlink:href="#mdf92c387b1" x="125.379891" y="66.985043" style="stroke: #000000"/>
     <use xlink:href="#mdf92c387b1" x="125.711905" y="68.299826" style="stroke: #000000"/>
     <use xlink:href="#mdf92c387b1" x="126.19148" y="69.520696" style="stroke: #000000"/>
     <use xlink:href="#mdf92c387b1" x="126.375933" y="70.741565" style="stroke: #000000"/>
     <use xlink:href="#mdf92c387b1" x="126.449713" y="72.056348" style="stroke: #000000"/>
     <use xlink:href="#mdf92c387b1" x="126.855508" y="73.465043" style="stroke: #000000"/>
     <use xlink:href="#mdf92c387b1" x="127.371974" y="74.779826" style="stroke: #000000"/>
     <use xlink:href="#mdf92c387b1" x="127.667097" y="76.094609" style="stroke: #000000"/>
     <use xlink:href="#mdf92c387b1" x="128.036001" y="77.409391" style="stroke: #000000"/>
     <use xlink:href="#mdf92c387b1" x="128.552467" y="78.724174" style="stroke: #000000"/>
     <use xlink:href="#mdf92c387b1" x="129.032042" y="80.038957" style="stroke: #000000"/>
     <use xlink:href="#mdf92c387b1" x="129.437837" y="81.353739" style="stroke: #000000"/>
     <use xlink:href="#mdf92c387b1" x="129.880522" y="82.668522" style="stroke: #000000"/>
     <use xlink:href="#mdf92c387b1" x="130.396987" y="84.17113" style="stroke: #000000"/>
     <use xlink:href="#mdf92c387b1" x="131.097905" y="85.767652" style="stroke: #000000"/>
     <use xlink:href="#mdf92c387b1" x="131.761933" y="87.364174" style="stroke: #000000"/>
     <use xlink:href="#mdf92c387b1" x="132.42596" y="89.148522" style="stroke: #000000"/>
     <use xlink:href="#mdf92c387b1" x="133.016207" y="90.745043" style="stroke: #000000"/>
     <use xlink:href="#mdf92c387b1" x="133.680234" y="92.247652" style="stroke: #000000"/>
     <use xlink:href="#mdf92c387b1" x="134.786946" y="93.938087" style="stroke: #000000"/>
     <use xlink:href="#mdf92c387b1" x="135.746097" y="95.440696" style="stroke: #000000"/>
     <use xlink:href="#mdf92c387b1" x="136.594576" y="96.943304" style="stroke: #000000"/>
     <use xlink:href="#mdf92c387b1" x="137.701289" y="98.445913" style="stroke: #000000"/>
     <use xlink:href="#mdf92c387b1" x="138.844892" y="100.042435" style="stroke: #000000"/>
     <use xlink:href="#mdf92c387b1" x="140.062275" y="101.545043" style="stroke: #000000"/>
     <use xlink:href="#mdf92c387b1" x="141.39033" y="103.235478" style="stroke: #000000"/>
     <use xlink:href="#mdf92c387b1" x="142.718385" y="104.644174" style="stroke: #000000"/>
     <use xlink:href="#mdf92c387b1" x="144.08333" y="105.865043" style="stroke: #000000"/>
     <use xlink:href="#mdf92c387b1" x="145.632727" y="107.085913" style="stroke: #000000"/>
     <use xlink:href="#mdf92c387b1" x="147.477248" y="108.400696" style="stroke: #000000"/>
     <use xlink:href="#mdf92c387b1" x="149.46933" y="109.715478" style="stroke: #000000"/>
     <use xlink:href="#mdf92c387b1" x="151.645864" y="111.030261" style="stroke: #000000"/>
     <use xlink:href="#mdf92c387b1" x="153.822399" y="112.25113" style="stroke: #000000"/>
     <use xlink:href="#mdf92c387b1" x="156.109604" y="113.284174" style="stroke: #000000"/>
     <use xlink:href="#mdf92c387b1" x="158.47059" y="114.41113" style="stroke: #000000"/>
     <use xlink:href="#mdf92c387b1" x="160.831577" y="115.444174" style="stroke: #000000"/>
     <use xlink:href="#mdf92c387b1" x="163.229454" y="116.477217" style="stroke: #000000"/>
     <use xlink:href="#mdf92c387b1" x="165.59044" y="117.416348" style="stroke: #000000"/>
     <use xlink:href="#mdf92c387b1" x="189.864331" y="159.395478" style="stroke: #000000"/>
     <use xlink:href="#mdf92c387b1" x="199.086933" y="165.312" style="stroke: #000000"/>
     <use xlink:href="#mdf92c387b1" x="206.096112" y="171.040696" style="stroke: #000000"/>
     <use xlink:href="#mdf92c387b1" x="219.007756" y="177.426783" style="stroke: #000000"/>
     <use xlink:href="#mdf92c387b1" x="231.9194" y="181.746783" style="stroke: #000000"/>
     <use xlink:href="#mdf92c387b1" x="237.084057" y="183.718957" style="stroke: #000000"/>
     <use xlink:href="#mdf92c387b1" x="247.413372" y="185.69113" style="stroke: #000000"/>
     <use xlink:href="#mdf92c387b1" x="264.014058" y="188.13287" style="stroke: #000000"/>
     <use xlink:href="#mdf92c387b1" x="287.623921" y="191.232" style="stroke: #000000"/>
    </g>
   </g>
   <g id="line2d_67">
    <path d="M 52.632 34.961495 
L 84.183196 35.071715 
L 91.464241 35.309803 
L 96.318271 35.707754 
L 99.958794 36.276903 
L 102.385809 36.873805 
L 104.812824 37.729058 
L 107.239839 38.941205 
L 108.453347 39.718656 
L 109.666854 40.633079 
L 110.880362 41.702577 
L 112.093869 42.94532 
L 113.307377 44.378592 
L 114.520884 46.017555 
L 115.734392 47.873793 
L 116.947899 49.953729 
L 119.374915 54.77563 
L 121.80193 60.381769 
L 125.442452 69.721496 
L 129.082975 79.170989 
L 131.50999 85.014665 
L 133.937005 90.262059 
L 136.36402 94.834476 
L 138.791035 98.737747 
L 141.21805 102.032173 
L 143.645065 104.806362 
L 146.07208 107.159175 
L 148.499095 109.189337 
L 152.139618 111.83276 
L 161.847678 118.447844 
L 164.274693 120.375231 
L 166.701709 122.520227 
L 169.128724 124.916061 
L 171.555739 127.578432 
L 173.982754 130.502688 
L 177.623276 135.318258 
L 182.477307 142.267372 
L 189.758352 152.766902 
L 193.398874 157.635534 
L 197.039397 162.09136 
L 200.67992 166.08637 
L 204.320442 169.614456 
L 207.960965 172.696553 
L 211.601487 175.368503 
L 215.24201 177.672568 
L 218.882533 179.652101 
L 222.523055 181.348529 
L 226.163578 182.79984 
L 229.804101 184.04 
L 234.658131 185.416171 
L 239.512161 186.529924 
L 244.366191 187.430816 
L 250.433729 188.318483 
L 257.714774 189.114672 
L 266.209327 189.773058 
L 275.917387 190.278822 
L 288.052462 190.672123 
L 294.12 190.802906 
L 294.12 190.802906 
" clip-path="url(#p87931b066b)" style="fill: none; stroke-dasharray: 5.55,2.4; stroke-dashoffset: 0; stroke: #ff0000; stroke-width: 1.5"/>
   </g>
   <g id="line2d_68">
    <path d="M 52.632 34.963556 
L 63.553568 35.068839 
L 67.19409 35.328152 
L 69.621106 35.773872 
L 70.834613 36.153942 
L 72.048121 36.686387 
L 73.261628 37.407066 
L 74.475136 38.338868 
L 75.688643 39.47586 
L 80.542673 44.691792 
L 81.756181 45.730245 
L 82.969688 46.573137 
L 84.183196 47.231177 
L 85.396704 47.730517 
L 87.823719 48.374656 
L 90.250734 48.717212 
L 93.891256 48.953926 
L 109.666854 49.594949 
L 112.093869 50.012945 
L 114.520884 50.769649 
L 115.734392 51.350088 
L 116.947899 52.121962 
L 118.161407 53.139316 
L 119.374915 54.463928 
L 120.588422 56.160825 
L 121.80193 58.289634 
L 123.015437 60.891395 
L 124.228945 63.972418 
L 126.65596 71.344833 
L 130.296482 83.38111 
L 131.50999 87.022965 
L 132.723497 90.2972 
L 133.937005 93.164766 
L 135.150513 95.626882 
L 136.36402 97.71257 
L 137.577528 99.466513 
L 138.791035 100.939567 
L 140.004543 102.182455 
L 142.431558 104.160419 
L 144.858573 105.710617 
L 154.566633 111.267589 
L 156.993648 113.008267 
L 159.420663 115.003415 
L 161.847678 117.27812 
L 164.274693 119.840134 
L 166.701709 122.679289 
L 170.342231 127.392819 
L 173.982754 132.509953 
L 186.117829 149.963272 
L 189.758352 154.695222 
L 193.398874 159.032887 
L 197.039397 162.951899 
L 200.67992 166.455199 
L 204.320442 169.562917 
L 207.960965 172.304649 
L 211.601487 174.714125 
L 215.24201 176.825835 
L 218.882533 178.673041 
L 222.523055 180.286714 
L 226.163578 181.695066 
L 231.017608 183.296849 
L 235.871638 184.630676 
L 240.725668 185.740847 
L 246.793206 186.870177 
L 252.860744 187.767429 
L 260.141789 188.604085 
L 268.636342 189.328486 
L 278.344402 189.9153 
L 290.479477 190.40139 
L 294.12 190.508615 
L 294.12 190.508615 
" clip-path="url(#p87931b066b)" style="fill: none; stroke-dasharray: 9.6,2.4,1.5,2.4; stroke-dashoffset: 0; stroke: #0000ff; stroke-width: 1.5"/>
   </g>
   <g id="line2d_69">
    <path d="M 52.632 34.961024 
L 70.834613 34.96274 
L 72.048121 36.316772 
L 73.261628 37.937099 
L 75.688643 40.621106 
L 78.115658 42.703259 
L 80.542673 44.318719 
L 82.969688 45.572364 
L 85.396704 46.54561 
L 87.823719 47.301716 
L 91.464241 48.133468 
L 95.104764 48.708735 
L 99.958794 49.226997 
L 109.666854 50.09861 
L 112.093869 50.523682 
L 114.520884 51.24305 
L 115.734392 51.785446 
L 116.947899 52.505361 
L 118.161407 53.45711 
L 119.374915 54.704342 
L 120.588422 56.316282 
L 121.80193 58.359564 
L 123.015437 60.884768 
L 124.228945 63.908739 
L 125.442452 67.397152 
L 127.869467 75.33238 
L 130.296482 83.422284 
L 131.50999 87.108953 
L 132.723497 90.412808 
L 133.937005 93.292231 
L 135.150513 95.749848 
L 136.36402 97.818336 
L 137.577528 99.546732 
L 138.791035 100.989946 
L 140.004543 102.201975 
L 142.431558 104.123902 
L 144.858573 105.633102 
L 153.353126 110.387492 
L 155.780141 112.038357 
L 158.207156 113.931697 
L 160.634171 116.098192 
L 163.061186 118.551543 
L 165.488201 121.287863 
L 167.915216 124.285652 
L 171.555739 129.186556 
L 176.409769 136.18985 
L 183.690814 146.740216 
L 187.331337 151.680341 
L 190.971859 156.260542 
L 194.612382 160.434934 
L 198.252905 164.191348 
L 201.893427 167.540406 
L 205.53395 170.506425 
L 209.174472 173.12077 
L 212.814995 175.417419 
L 216.455518 177.430227 
L 220.09604 179.191363 
L 223.736563 180.730518 
L 227.377085 182.074589 
L 232.231116 183.604429 
L 237.085146 184.879582 
L 241.939176 185.942016 
L 248.006714 187.024082 
L 254.074251 187.884964 
L 261.355296 188.68893 
L 269.849849 189.386291 
L 279.55791 189.952389 
L 291.692985 190.422498 
L 294.12 190.493338 
L 294.12 190.493338 
" clip-path="url(#p87931b066b)" style="fill: none; stroke: #008000; stroke-width: 1.5; stroke-linecap: square"/>
   </g>
   <g id="line2d_70">
    <path d="M 52.632 35.05396 
L 65.980583 35.267286 
L 68.407598 35.399366 
L 69.621106 35.547216 
L 70.834613 35.841234 
L 72.048121 36.428344 
L 73.261628 37.484683 
L 75.688643 40.553195 
L 76.902151 41.722999 
L 78.115658 42.433476 
L 79.329166 42.837096 
L 81.756181 43.258646 
L 89.037226 44.259622 
L 92.677749 44.988706 
L 96.318271 45.957455 
L 99.958794 47.232944 
L 102.385809 48.291227 
L 104.812824 49.544097 
L 107.239839 51.016019 
L 109.666854 52.730233 
L 112.093869 54.70704 
L 114.520884 56.961869 
L 116.947899 59.50332 
L 119.374915 62.331471 
L 121.80193 65.436752 
L 124.228945 68.849973 
L 127.869467 74.427371 
L 131.50999 80.402206 
L 137.577528 90.840211 
L 144.858573 103.360602 
L 149.712603 111.310285 
L 154.566633 118.765368 
L 158.207156 123.987619 
L 161.847678 128.880677 
L 165.488201 133.445589 
L 169.128724 137.691082 
L 172.769246 141.630765 
L 176.409769 145.281086 
L 180.050291 148.659905 
L 183.690814 151.785517 
L 187.331337 154.676024 
L 192.185367 158.194451 
L 197.039397 161.365065 
L 201.893427 164.223907 
L 206.747457 166.803799 
L 211.601487 169.134417 
L 216.455518 171.242459 
L 222.523055 173.600757 
L 228.590593 175.689841 
L 234.658131 177.54562 
L 241.939176 179.508175 
L 249.220221 181.225521 
L 257.714774 182.970618 
L 266.209327 184.485789 
L 275.917387 185.989273 
L 286.838955 187.449332 
L 294.12 188.31365 
L 294.12 188.31365 
" clip-path="url(#p87931b066b)" style="fill: none; stroke-dasharray: 1.5,2.475; stroke-dashoffset: 0; stroke: #ff00ff; stroke-width: 1.5"/>
   </g>
   <g id="patch_3">
    <path d="M 52.632 191.232 
L 52.632 11.52 
" style="fill: none; stroke: #000000; stroke-width: 0.8; stroke-linejoin: miter; stroke-linecap: square"/>
   </g>
   <g id="patch_4">
    <path d="M 294.12 191.232 
L 294.12 11.52 
" style="fill: none; stroke: #000000; stroke-width: 0.8; stroke-linejoin: miter; stroke-linecap: square"/>
   </g>
   <g id="patch_5">
    <path d="M 52.632 191.232 
L 294.12 191.232 
" style="fill: none; stroke: #000000; stroke-width: 0.8; stroke-linejoin: miter; stroke-linecap: square"/>
   </g>
   <g id="patch_6">
    <path d="M 52.632 11.52 
L 294.12 11.52 
" style="fill: none; stroke: #000000; stroke-width: 0.8; stroke-linejoin: miter; stroke-linecap: square"/>
   </g>
  </g>
  <g id="legend_1">
   <g id="patch_7">
    <path d="M 221.75625 81.390625 
L 302.6 81.390625 
Q 304.6 81.390625 304.6 79.390625 
L 304.6 7 
Q 304.6 5 302.6 5 
L 221.75625 5 
Q 219.75625 5 219.75625 7 
L 219.75625 79.390625 
Q 219.75625 81.390625 221.75625 81.390625 
z
" style="fill: #ffffff; stroke: #cccccc; stroke-linejoin: miter"/>
   </g>
   <g id="line2d_71">
    <g>
     <use xlink:href="#mdf92c387b1" x="233.75625" y="13.098438" style="stroke: #000000"/>
    </g>
   </g>
   <g id="text_18">
    <!-- Measured -->
    <g transform="translate(251.75625 16.598438) scale(0.1 -0.1)">
     <defs>
      <path id="DejaVuSans-4d" d="M 628 4666 
L 1569 4666 
L 2759 1491 
L 3956 4666 
L 4897 4666 
L 4897 0 
L 4281 0 
L 4281 4097 
L 3078 897 
L 2444 897 
L 1241 4097 
L 1241 0 
L 628 0 
L 628 4666 
z
" transform="scale(0.015625)"/>
     </defs>
     <use xlink:href="#DejaVuSans-4d"/>
     <use xlink:href="#DejaVuSans-65" transform="translate(86.279297 0)"/>
     <use xlink:href="#DejaVuSans-61" transform="translate(147.802734 0)"/>
     <use xlink:href="#DejaVuSans-73" transform="translate(209.082031 0)"/>
     <use xlink:href="#DejaVuSans-75" transform="translate(261.181641 0)"/>
     <use xlink:href="#DejaVuSans-72" transform="translate(324.560547 0)"/>
     <use xlink:href="#DejaVuSans-65" transform="translate(363.423828 0)"/>
     <use xlink:href="#DejaVuSans-64" transform="translate(424.947266 0)"/>
    </g>
   </g>
   <g id="line2d_72">
    <path d="M 223.75625 27.776563 
L 233.75625 27.776563 
L 243.75625 27.776563 
" style="fill: none; stroke-dasharray: 5.55,2.4; stroke-dashoffset: 0; stroke: #ff0000; stroke-width: 1.5"/>
   </g>
   <g id="text_19">
    <!-- dual-VG -->
    <g transform="translate(251.75625 31.276563) scale(0.1 -0.1)">
     <defs>
      <path id="DejaVuSans-2d" d="M 313 2009 
L 1997 2009 
L 1997 1497 
L 313 1497 
L 313 2009 
z
" transform="scale(0.015625)"/>
      <path id="DejaVuSans-47" d="M 3809 666 
L 3809 1919 
L 2778 1919 
L 2778 2438 
L 4434 2438 
L 4434 434 
Q 4069 175 3628 42 
Q 3188 -91 2688 -91 
Q 1594 -91 976 548 
Q 359 1188 359 2328 
Q 359 3472 976 4111 
Q 1594 4750 2688 4750 
Q 3144 4750 3555 4637 
Q 3966 4525 4313 4306 
L 4313 3634 
Q 3963 3931 3569 4081 
Q 3175 4231 2741 4231 
Q 1884 4231 1454 3753 
Q 1025 3275 1025 2328 
Q 1025 1384 1454 906 
Q 1884 428 2741 428 
Q 3075 428 3337 486 
Q 3600 544 3809 666 
z
" transform="scale(0.015625)"/>
     </defs>
     <use xlink:href="#DejaVuSans-64"/>
     <use xlink:href="#DejaVuSans-75" transform="translate(63.476562 0)"/>
     <use xlink:href="#DejaVuSans-61" transform="translate(126.855469 0)"/>
     <use xlink:href="#DejaVuSans-6c" transform="translate(188.134766 0)"/>
     <use xlink:href="#DejaVuSans-2d" transform="translate(215.917969 0)"/>
     <use xlink:href="#DejaVuSans-56" transform="translate(246.126953 0)"/>
     <use xlink:href="#DejaVuSans-47" transform="translate(314.535156 0)"/>
    </g>
   </g>
   <g id="line2d_73">
    <path d="M 223.75625 42.454688 
L 233.75625 42.454688 
L 243.75625 42.454688 
" style="fill: none; stroke-dasharray: 9.6,2.4,1.5,2.4; stroke-dashoffset: 0; stroke: #0000ff; stroke-width: 1.5"/>
   </g>
   <g id="text_20">
    <!-- tri-VG -->
    <g transform="translate(251.75625 45.954688) scale(0.1 -0.1)">
     <use xlink:href="#DejaVuSans-74"/>
     <use xlink:href="#DejaVuSans-72" transform="translate(39.208984 0)"/>
     <use xlink:href="#DejaVuSans-69" transform="translate(80.322266 0)"/>
     <use xlink:href="#DejaVuSans-2d" transform="translate(108.105469 0)"/>
     <use xlink:href="#DejaVuSans-56" transform="translate(138.314453 0)"/>
     <use xlink:href="#DejaVuSans-47" transform="translate(206.722656 0)"/>
    </g>
   </g>
   <g id="line2d_74">
    <path d="M 223.75625 57.132813 
L 233.75625 57.132813 
L 243.75625 57.132813 
" style="fill: none; stroke: #008000; stroke-width: 1.5; stroke-linecap: square"/>
   </g>
   <g id="text_21">
    <!-- BVV -->
    <g transform="translate(251.75625 60.632813) scale(0.1 -0.1)">
     <defs>
      <path id="DejaVuSans-42" d="M 1259 2228 
L 1259 519 
L 2272 519 
Q 2781 519 3026 730 
Q 3272 941 3272 1375 
Q 3272 1813 3026 2020 
Q 2781 2228 2272 2228 
L 1259 2228 
z
M 1259 4147 
L 1259 2741 
L 2194 2741 
Q 2656 2741 2882 2914 
Q 3109 3088 3109 3444 
Q 3109 3797 2882 3972 
Q 2656 4147 2194 4147 
L 1259 4147 
z
M 628 4666 
L 2241 4666 
Q 2963 4666 3353 4366 
Q 3744 4066 3744 3513 
Q 3744 3084 3544 2831 
Q 3344 2578 2956 2516 
Q 3422 2416 3680 2098 
Q 3938 1781 3938 1306 
Q 3938 681 3513 340 
Q 3088 0 2303 0 
L 628 0 
L 628 4666 
z
" transform="scale(0.015625)"/>
     </defs>
     <use xlink:href="#DejaVuSans-42"/>
     <use xlink:href="#DejaVuSans-56" transform="translate(65.478516 0)"/>
     <use xlink:href="#DejaVuSans-56" transform="translate(133.886719 0)"/>
    </g>
   </g>
   <g id="line2d_75">
    <path d="M 223.75625 71.810938 
L 233.75625 71.810938 
L 243.75625 71.810938 
" style="fill: none; stroke-dasharray: 1.5,2.475; stroke-dashoffset: 0; stroke: #ff00ff; stroke-width: 1.5"/>
   </g>
   <g id="text_22">
    <!-- VVP -->
    <g transform="translate(251.75625 75.310938) scale(0.1 -0.1)">
     <use xlink:href="#DejaVuSans-56"/>
     <use xlink:href="#DejaVuSans-56" transform="translate(68.408203 0)"/>
     <use xlink:href="#DejaVuSans-50" transform="translate(136.816406 0)"/>
    </g>
   </g>
  </g>
 </g>
 <defs>
  <clipPath id="p87931b066b">
   <rect x="52.632" y="11.52" width="241.488" height="179.712"/>
  </clipPath>
 </defs>
</svg>
