<?xml version="1.0" encoding="utf-8" standalone="no"?>
<!DOCTYPE svg PUBLIC "-//W3C//DTD SVG 1.1//EN"
  "http://www.w3.org/Graphics/SVG/1.1/DTD/svg11.dtd">
<svg xmlns:xlink="http://www.w3.org/1999/xlink" width="396pt" height="324pt" viewBox="0 0 396 324" xmlns="http://www.w3.org/2000/svg" version="1.1">
 <metadata>
  <rdf:RDF xmlns:dc="http://purl.org/dc/elements/1.1/" xmlns:cc="http://creativecommons.org/ns#" xmlns:rdf="http://www.w3.org/1999/02/22-rdf-syntax-ns#">
   <cc:Work>
    <dc:type rdf:resource="http://purl.org/dc/dcmitype/StillImage"/>
    <dc:date>2026-01-21T18:07:52.674280</dc:date>
    <dc:format>image/svg+xml</dc:format>
    <dc:creator>
     <cc:Agent>
      <dc:title>Matplotlib v3.10.8, https://matplotlib.org/</dc:title>
     </cc:Agent>
    </dc:creator>
   </cc:Work>
  </rdf:RDF>
 </metadata>
 <defs>
  <style type="text/css">*{stroke-linejoin: round; stroke-linecap: butt}</style>
 </defs>
 <g id="figure_1">
  <g id="patch_1">
   <path d="M 0 324 
L 396 324 
L 396 0 
L 0 0 
z
" style="fill: #ffffff"/>
  </g>
  <g id="axes_1">
   <g id="patch_2">
    <path d="M 59.4 285.12 
L 376.2 285.12 
L 376.2 16.2 
L 59.4 16.2 
z
" style="fill: #ffffff"/>
   </g>
   <g id="matplotlib.axis_1">
    <g id="xtick_1">
     <g id="line2d_1">
      <defs>
       <path id="m016915f971" d="M 0 0 
L 0 3.5 
" style="stroke: #000000; stroke-width: 0.8"/>
      </defs>
      <g>
       <use xlink:href="#m016915f971" x="59.4" y="285.12" style="stroke: #000000; stroke-width: 0.8"/>
      </g>
     </g>
     <g id="text_1">
      <!-- $\mathdefault{10^{0}}$ -->
      <g transform="translate(50.6 299.718437) scale(0.1 -0.1)">
       <defs>
        <path id="DejaVuSans-31" d="M 794 531 
L 1825 531 
L 1825 4091 
L 703 3866 
L 703 4441 
L 1819 4666 
L 2450 4666 
L 2450 531 
L 3481 531 
L 3481 0 
L 794 0 
L 794 531 
z
" transform="scale(0.015625)"/>
        <path id="DejaVuSans-30" d="M 2034 4250 
Q 1547 4250 1301 3770 
Q 1056 3291 1056 2328 
Q 1056 1369 1301 889 
Q 1547 409 2034 409 
Q 2525 409 2770 889 
Q 3016 1369 3016 2328 
Q 3016 3291 2770 3770 
Q 2525 4250 2034 4250 
z
M 2034 4750 
Q 2819 4750 3233 4129 
Q 3647 3509 3647 2328 
Q 3647 1150 3233 529 
Q 2819 -91 2034 -91 
Q 1250 -91 836 529 
Q 422 1150 422 2328 
Q 422 3509 836 4129 
Q 1250 4750 2034 4750 
z
" transform="scale(0.015625)"/>
       </defs>
       <use xlink:href="#DejaVuSans-31" transform="translate(0 0.765625)"/>
       <use xlink:href="#DejaVuSans-30" transform="translate(63.623047 0.765625)"/>
       <use xlink:href="#DejaVuSans-30" transform="translate(128.203125 39.046875) scale(0.7)"/>
      </g>
     </g>
    </g>
    <g id="xtick_2">
     <g id="line2d_2">
      <g>
       <use xlink:href="#m016915f971" x="203.851437" y="285.12" style="stroke: #000000; stroke-width: 0.8"/>
      </g>
     </g>
     <g id="text_2">
      <!-- $\mathdefault{10^{1}}$ -->
      <g transform="translate(195.051437 299.718437) scale(0.1 -0.1)">
       <use xlink:href="#DejaVuSans-31" transform="translate(0 0.684375)"/>
       <use xlink:href="#DejaVuSans-30" transform="translate(63.623047 0.684375)"/>
       <use xlink:href="#DejaVuSans-31" transform="translate(128.203125 38.965625) scale(0.7)"/>
      </g>
     </g>
    </g>
    <g id="xtick_3">
     <g id="line2d_3">
      <g>
       <use xlink:href="#m016915f971" x="348.302874" y="285.12" style="stroke: #000000; stroke-width: 0.8"/>
      </g>
     </g>
     <g id="text_3">
      <!-- $\mathdefault{10^{2}}$ -->
      <g transform="translate(339.502874 299.718437) scale(0.1 -0.1)">
       <defs>
        <path id="DejaVuSans-32" d="M 1228 531 
L 3431 531 
L 3431 0 
L 469 0 
L 469 531 
Q 828 903 1448 1529 
Q 2069 2156 2228 2338 
Q 2531 2678 2651 2914 
Q 2772 3150 2772 3378 
Q 2772 3750 2511 3984 
Q 2250 4219 1831 4219 
Q 1534 4219 1204 4116 
Q 875 4013 500 3803 
L 500 4441 
Q 881 4594 1212 4672 
Q 1544 4750 1819 4750 
Q 2544 4750 2975 4387 
Q 3406 4025 3406 3419 
Q 3406 3131 3298 2873 
Q 3191 2616 2906 2266 
Q 2828 2175 2409 1742 
Q 1991 1309 1228 531 
z
" transform="scale(0.015625)"/>
       </defs>
       <use xlink:href="#DejaVuSans-31" transform="translate(0 0.765625)"/>
       <use xlink:href="#DejaVuSans-30" transform="translate(63.623047 0.765625)"/>
       <use xlink:href="#DejaVuSans-32" transform="translate(128.203125 39.046875) scale(0.7)"/>
      </g>
     </g>
    </g>
    <g id="xtick_4">
     <g id="line2d_4">
      <defs>
       <path id="mc9e1a4b027" d="M 0 0 
L 0 2 
" style="stroke: #000000; stroke-width: 0.6"/>
      </defs>
      <g>
       <use xlink:href="#mc9e1a4b027" x="102.884215" y="285.12" style="stroke: #000000; stroke-width: 0.6"/>
      </g>
     </g>
    </g>
    <g id="xtick_5">
     <g id="line2d_5">
      <g>
       <use xlink:href="#mc9e1a4b027" x="128.320851" y="285.12" style="stroke: #000000; stroke-width: 0.6"/>
      </g>
     </g>
    </g>
    <g id="xtick_6">
     <g id="line2d_6">
      <g>
       <use xlink:href="#mc9e1a4b027" x="146.368431" y="285.12" style="stroke: #000000; stroke-width: 0.6"/>
      </g>
     </g>
    </g>
    <g id="xtick_7">
     <g id="line2d_7">
      <g>
       <use xlink:href="#mc9e1a4b027" x="160.367222" y="285.12" style="stroke: #000000; stroke-width: 0.6"/>
      </g>
     </g>
    </g>
    <g id="xtick_8">
     <g id="line2d_8">
      <g>
       <use xlink:href="#mc9e1a4b027" x="171.805066" y="285.12" style="stroke: #000000; stroke-width: 0.6"/>
      </g>
     </g>
    </g>
    <g id="xtick_9">
     <g id="line2d_9">
      <g>
       <use xlink:href="#mc9e1a4b027" x="181.475626" y="285.12" style="stroke: #000000; stroke-width: 0.6"/>
      </g>
     </g>
    </g>
    <g id="xtick_10">
     <g id="line2d_10">
      <g>
       <use xlink:href="#mc9e1a4b027" x="189.852646" y="285.12" style="stroke: #000000; stroke-width: 0.6"/>
      </g>
     </g>
    </g>
    <g id="xtick_11">
     <g id="line2d_11">
      <g>
       <use xlink:href="#mc9e1a4b027" x="197.241702" y="285.12" style="stroke: #000000; stroke-width: 0.6"/>
      </g>
     </g>
    </g>
    <g id="xtick_12">
     <g id="line2d_12">
      <g>
       <use xlink:href="#mc9e1a4b027" x="247.335653" y="285.12" style="stroke: #000000; stroke-width: 0.6"/>
      </g>
     </g>
    </g>
    <g id="xtick_13">
     <g id="line2d_13">
      <g>
       <use xlink:href="#mc9e1a4b027" x="272.772288" y="285.12" style="stroke: #000000; stroke-width: 0.6"/>
      </g>
     </g>
    </g>
    <g id="xtick_14">
     <g id="line2d_14">
      <g>
       <use xlink:href="#mc9e1a4b027" x="290.819868" y="285.12" style="stroke: #000000; stroke-width: 0.6"/>
      </g>
     </g>
    </g>
    <g id="xtick_15">
     <g id="line2d_15">
      <g>
       <use xlink:href="#mc9e1a4b027" x="304.818659" y="285.12" style="stroke: #000000; stroke-width: 0.6"/>
      </g>
     </g>
    </g>
    <g id="xtick_16">
     <g id="line2d_16">
      <g>
       <use xlink:href="#mc9e1a4b027" x="316.256504" y="285.12" style="stroke: #000000; stroke-width: 0.6"/>
      </g>
     </g>
    </g>
    <g id="xtick_17">
     <g id="line2d_17">
      <g>
       <use xlink:href="#mc9e1a4b027" x="325.927063" y="285.12" style="stroke: #000000; stroke-width: 0.6"/>
      </g>
     </g>
    </g>
    <g id="xtick_18">
     <g id="line2d_18">
      <g>
       <use xlink:href="#mc9e1a4b027" x="334.304084" y="285.12" style="stroke: #000000; stroke-width: 0.6"/>
      </g>
     </g>
    </g>
    <g id="xtick_19">
     <g id="line2d_19">
      <g>
       <use xlink:href="#mc9e1a4b027" x="341.693139" y="285.12" style="stroke: #000000; stroke-width: 0.6"/>
      </g>
     </g>
    </g>
    <g id="text_4">
     <!-- Matric head -->
     <g transform="translate(188.195312 313.396563) scale(0.1 -0.1)">
      <defs>
       <path id="DejaVuSans-4d" d="M 628 4666 
L 1569 4666 
L 2759 1491 
L 3956 4666 
L 4897 4666 
L 4897 0 
L 4281 0 
L 4281 4097 
L 3078 897 
L 2444 897 
L 1241 4097 
L 1241 0 
L 628 0 
L 628 4666 
z
" transform="scale(0.015625)"/>
       <path id="DejaVuSans-61" d="M 2194 1759 
Q 1497 1759 1228 1600 
Q 959 1441 959 1056 
Q 959 750 1161 570 
Q 1363 391 1709 391 
Q 2188 391 2477 730 
Q 2766 1069 2766 1631 
L 2766 1759 
L 2194 1759 
z
M 3341 1997 
L 3341 0 
L 2766 0 
L 2766 531 
Q 2569 213 2275 61 
Q 1981 -91 1556 -91 
Q 1019 -91 701 211 
Q 384 513 384 1019 
Q 384 1609 779 1909 
Q 1175 2209 1959 2209 
L 2766 2209 
L 2766 2266 
Q 2766 2663 2505 2880 
Q 2244 3097 1772 3097 
Q 1472 3097 1187 3025 
Q 903 2953 641 2809 
L 641 3341 
Q 956 3463 1253 3523 
Q 1550 3584 1831 3584 
Q 2591 3584 2966 3190 
Q 3341 2797 3341 1997 
z
" transform="scale(0.015625)"/>
       <path id="DejaVuSans-74" d="M 1172 4494 
L 1172 3500 
L 2356 3500 
L 2356 3053 
L 1172 3053 
L 1172 1153 
Q 1172 725 1289 603 
Q 1406 481 1766 481 
L 2356 481 
L 2356 0 
L 1766 0 
Q 1100 0 847 248 
Q 594 497 594 1153 
L 594 3053 
L 172 3053 
L 172 3500 
L 594 3500 
L 594 4494 
L 1172 4494 
z
" transform="scale(0.015625)"/>
       <path id="DejaVuSans-72" d="M 2631 2963 
Q 2534 3019 2420 3045 
Q 2306 3072 2169 3072 
Q 1681 3072 1420 2755 
Q 1159 2438 1159 1844 
L 1159 0 
L 581 0 
L 581 3500 
L 1159 3500 
L 1159 2956 
Q 1341 3275 1631 3429 
Q 1922 3584 2338 3584 
Q 2397 3584 2469 3576 
Q 2541 3569 2628 3553 
L 2631 2963 
z
" transform="scale(0.015625)"/>
       <path id="DejaVuSans-69" d="M 603 3500 
L 1178 3500 
L 1178 0 
L 603 0 
L 603 3500 
z
M 603 4863 
L 1178 4863 
L 1178 4134 
L 603 4134 
L 603 4863 
z
" transform="scale(0.015625)"/>
       <path id="DejaVuSans-63" d="M 3122 3366 
L 3122 2828 
Q 2878 2963 2633 3030 
Q 2388 3097 2138 3097 
Q 1578 3097 1268 2742 
Q 959 2388 959 1747 
Q 959 1106 1268 751 
Q 1578 397 2138 397 
Q 2388 397 2633 464 
Q 2878 531 3122 666 
L 3122 134 
Q 2881 22 2623 -34 
Q 2366 -91 2075 -91 
Q 1284 -91 818 406 
Q 353 903 353 1747 
Q 353 2603 823 3093 
Q 1294 3584 2113 3584 
Q 2378 3584 2631 3529 
Q 2884 3475 3122 3366 
z
" transform="scale(0.015625)"/>
       <path id="DejaVuSans-20" transform="scale(0.015625)"/>
       <path id="DejaVuSans-68" d="M 3513 2113 
L 3513 0 
L 2938 0 
L 2938 2094 
Q 2938 2591 2744 2837 
Q 2550 3084 2163 3084 
Q 1697 3084 1428 2787 
Q 1159 2491 1159 1978 
L 1159 0 
L 581 0 
L 581 4863 
L 1159 4863 
L 1159 2956 
Q 1366 3272 1645 3428 
Q 1925 3584 2291 3584 
Q 2894 3584 3203 3211 
Q 3513 2838 3513 2113 
z
" transform="scale(0.015625)"/>
       <path id="DejaVuSans-65" d="M 3597 1894 
L 3597 1613 
L 953 1613 
Q 991 1019 1311 708 
Q 1631 397 2203 397 
Q 2534 397 2845 478 
Q 3156 559 3463 722 
L 3463 178 
Q 3153 47 2828 -22 
Q 2503 -91 2169 -91 
Q 1331 -91 842 396 
Q 353 884 353 1716 
Q 353 2575 817 3079 
Q 1281 3584 2069 3584 
Q 2775 3584 3186 3129 
Q 3597 2675 3597 1894 
z
M 3022 2063 
Q 3016 2534 2758 2815 
Q 2500 3097 2075 3097 
Q 1594 3097 1305 2825 
Q 1016 2553 972 2059 
L 3022 2063 
z
" transform="scale(0.015625)"/>
       <path id="DejaVuSans-64" d="M 2906 2969 
L 2906 4863 
L 3481 4863 
L 3481 0 
L 2906 0 
L 2906 525 
Q 2725 213 2448 61 
Q 2172 -91 1784 -91 
Q 1150 -91 751 415 
Q 353 922 353 1747 
Q 353 2572 751 3078 
Q 1150 3584 1784 3584 
Q 2172 3584 2448 3432 
Q 2725 3281 2906 2969 
z
M 947 1747 
Q 947 1113 1208 752 
Q 1469 391 1925 391 
Q 2381 391 2643 752 
Q 2906 1113 2906 1747 
Q 2906 2381 2643 2742 
Q 2381 3103 1925 3103 
Q 1469 3103 1208 2742 
Q 947 2381 947 1747 
z
" transform="scale(0.015625)"/>
      </defs>
      <use xlink:href="#DejaVuSans-4d"/>
      <use xlink:href="#DejaVuSans-61" transform="translate(86.279297 0)"/>
      <use xlink:href="#DejaVuSans-74" transform="translate(147.558594 0)"/>
      <use xlink:href="#DejaVuSans-72" transform="translate(186.767578 0)"/>
      <use xlink:href="#DejaVuSans-69" transform="translate(227.880859 0)"/>
      <use xlink:href="#DejaVuSans-63" transform="translate(255.664062 0)"/>
      <use xlink:href="#DejaVuSans-20" transform="translate(310.644531 0)"/>
      <use xlink:href="#DejaVuSans-68" transform="translate(342.431641 0)"/>
      <use xlink:href="#DejaVuSans-65" transform="translate(405.810547 0)"/>
      <use xlink:href="#DejaVuSans-61" transform="translate(467.333984 0)"/>
      <use xlink:href="#DejaVuSans-64" transform="translate(528.613281 0)"/>
     </g>
    </g>
   </g>
   <g id="matplotlib.axis_2">
    <g id="ytick_1">
     <g id="line2d_20">
      <defs>
       <path id="m20fb3335c6" d="M 0 0 
L -3.5 0 
" style="stroke: #000000; stroke-width: 0.8"/>
      </defs>
      <g>
       <use xlink:href="#m20fb3335c6" x="59.4" y="285.12" style="stroke: #000000; stroke-width: 0.8"/>
      </g>
     </g>
     <g id="text_5">
      <!-- 0.00 -->
      <g transform="translate(30.134375 288.919219) scale(0.1 -0.1)">
       <defs>
        <path id="DejaVuSans-2e" d="M 684 794 
L 1344 794 
L 1344 0 
L 684 0 
L 684 794 
z
" transform="scale(0.015625)"/>
       </defs>
       <use xlink:href="#DejaVuSans-30"/>
       <use xlink:href="#DejaVuSans-2e" transform="translate(63.623047 0)"/>
       <use xlink:href="#DejaVuSans-30" transform="translate(95.410156 0)"/>
       <use xlink:href="#DejaVuSans-30" transform="translate(159.033203 0)"/>
      </g>
     </g>
    </g>
    <g id="ytick_2">
     <g id="line2d_21">
      <g>
       <use xlink:href="#m20fb3335c6" x="59.4" y="252.184299" style="stroke: #000000; stroke-width: 0.8"/>
      </g>
     </g>
     <g id="text_6">
      <!-- 0.05 -->
      <g transform="translate(30.134375 255.983518) scale(0.1 -0.1)">
       <defs>
        <path id="DejaVuSans-35" d="M 691 4666 
L 3169 4666 
L 3169 4134 
L 1269 4134 
L 1269 2991 
Q 1406 3038 1543 3061 
Q 1681 3084 1819 3084 
Q 2600 3084 3056 2656 
Q 3513 2228 3513 1497 
Q 3513 744 3044 326 
Q 2575 -91 1722 -91 
Q 1428 -91 1123 -41 
Q 819 9 494 109 
L 494 744 
Q 775 591 1075 516 
Q 1375 441 1709 441 
Q 2250 441 2565 725 
Q 2881 1009 2881 1497 
Q 2881 1984 2565 2268 
Q 2250 2553 1709 2553 
Q 1456 2553 1204 2497 
Q 953 2441 691 2322 
L 691 4666 
z
" transform="scale(0.015625)"/>
       </defs>
       <use xlink:href="#DejaVuSans-30"/>
       <use xlink:href="#DejaVuSans-2e" transform="translate(63.623047 0)"/>
       <use xlink:href="#DejaVuSans-30" transform="translate(95.410156 0)"/>
       <use xlink:href="#DejaVuSans-35" transform="translate(159.033203 0)"/>
      </g>
     </g>
    </g>
    <g id="ytick_3">
     <g id="line2d_22">
      <g>
       <use xlink:href="#m20fb3335c6" x="59.4" y="219.248598" style="stroke: #000000; stroke-width: 0.8"/>
      </g>
     </g>
     <g id="text_7">
      <!-- 0.10 -->
      <g transform="translate(30.134375 223.047816) scale(0.1 -0.1)">
       <use xlink:href="#DejaVuSans-30"/>
       <use xlink:href="#DejaVuSans-2e" transform="translate(63.623047 0)"/>
       <use xlink:href="#DejaVuSans-31" transform="translate(95.410156 0)"/>
       <use xlink:href="#DejaVuSans-30" transform="translate(159.033203 0)"/>
      </g>
     </g>
    </g>
    <g id="ytick_4">
     <g id="line2d_23">
      <g>
       <use xlink:href="#m20fb3335c6" x="59.4" y="186.312897" style="stroke: #000000; stroke-width: 0.8"/>
      </g>
     </g>
     <g id="text_8">
      <!-- 0.15 -->
      <g transform="translate(30.134375 190.112115) scale(0.1 -0.1)">
       <use xlink:href="#DejaVuSans-30"/>
       <use xlink:href="#DejaVuSans-2e" transform="translate(63.623047 0)"/>
       <use xlink:href="#DejaVuSans-31" transform="translate(95.410156 0)"/>
       <use xlink:href="#DejaVuSans-35" transform="translate(159.033203 0)"/>
      </g>
     </g>
    </g>
    <g id="ytick_5">
     <g id="line2d_24">
      <g>
       <use xlink:href="#m20fb3335c6" x="59.4" y="153.377195" style="stroke: #000000; stroke-width: 0.8"/>
      </g>
     </g>
     <g id="text_9">
      <!-- 0.20 -->
      <g transform="translate(30.134375 157.176414) scale(0.1 -0.1)">
       <use xlink:href="#DejaVuSans-30"/>
       <use xlink:href="#DejaVuSans-2e" transform="translate(63.623047 0)"/>
       <use xlink:href="#DejaVuSans-32" transform="translate(95.410156 0)"/>
       <use xlink:href="#DejaVuSans-30" transform="translate(159.033203 0)"/>
      </g>
     </g>
    </g>
    <g id="ytick_6">
     <g id="line2d_25">
      <g>
       <use xlink:href="#m20fb3335c6" x="59.4" y="120.441494" style="stroke: #000000; stroke-width: 0.8"/>
      </g>
     </g>
     <g id="text_10">
      <!-- 0.25 -->
      <g transform="translate(30.134375 124.240713) scale(0.1 -0.1)">
       <use xlink:href="#DejaVuSans-30"/>
       <use xlink:href="#DejaVuSans-2e" transform="translate(63.623047 0)"/>
       <use xlink:href="#DejaVuSans-32" transform="translate(95.410156 0)"/>
       <use xlink:href="#DejaVuSans-35" transform="translate(159.033203 0)"/>
      </g>
     </g>
    </g>
    <g id="ytick_7">
     <g id="line2d_26">
      <g>
       <use xlink:href="#m20fb3335c6" x="59.4" y="87.505793" style="stroke: #000000; stroke-width: 0.8"/>
      </g>
     </g>
     <g id="text_11">
      <!-- 0.30 -->
      <g transform="translate(30.134375 91.305012) scale(0.1 -0.1)">
       <defs>
        <path id="DejaVuSans-33" d="M 2597 2516 
Q 3050 2419 3304 2112 
Q 3559 1806 3559 1356 
Q 3559 666 3084 287 
Q 2609 -91 1734 -91 
Q 1441 -91 1130 -33 
Q 819 25 488 141 
L 488 750 
Q 750 597 1062 519 
Q 1375 441 1716 441 
Q 2309 441 2620 675 
Q 2931 909 2931 1356 
Q 2931 1769 2642 2001 
Q 2353 2234 1838 2234 
L 1294 2234 
L 1294 2753 
L 1863 2753 
Q 2328 2753 2575 2939 
Q 2822 3125 2822 3475 
Q 2822 3834 2567 4026 
Q 2313 4219 1838 4219 
Q 1578 4219 1281 4162 
Q 984 4106 628 3988 
L 628 4550 
Q 988 4650 1302 4700 
Q 1616 4750 1894 4750 
Q 2613 4750 3031 4423 
Q 3450 4097 3450 3541 
Q 3450 3153 3228 2886 
Q 3006 2619 2597 2516 
z
" transform="scale(0.015625)"/>
       </defs>
       <use xlink:href="#DejaVuSans-30"/>
       <use xlink:href="#DejaVuSans-2e" transform="translate(63.623047 0)"/>
       <use xlink:href="#DejaVuSans-33" transform="translate(95.410156 0)"/>
       <use xlink:href="#DejaVuSans-30" transform="translate(159.033203 0)"/>
      </g>
     </g>
    </g>
    <g id="ytick_8">
     <g id="line2d_27">
      <g>
       <use xlink:href="#m20fb3335c6" x="59.4" y="54.570092" style="stroke: #000000; stroke-width: 0.8"/>
      </g>
     </g>
     <g id="text_12">
      <!-- 0.35 -->
      <g transform="translate(30.134375 58.369311) scale(0.1 -0.1)">
       <use xlink:href="#DejaVuSans-30"/>
       <use xlink:href="#DejaVuSans-2e" transform="translate(63.623047 0)"/>
       <use xlink:href="#DejaVuSans-33" transform="translate(95.410156 0)"/>
       <use xlink:href="#DejaVuSans-35" transform="translate(159.033203 0)"/>
      </g>
     </g>
    </g>
    <g id="ytick_9">
     <g id="line2d_28">
      <g>
       <use xlink:href="#m20fb3335c6" x="59.4" y="21.634391" style="stroke: #000000; stroke-width: 0.8"/>
      </g>
     </g>
     <g id="text_13">
      <!-- 0.40 -->
      <g transform="translate(30.134375 25.433609) scale(0.1 -0.1)">
       <defs>
        <path id="DejaVuSans-34" d="M 2419 4116 
L 825 1625 
L 2419 1625 
L 2419 4116 
z
M 2253 4666 
L 3047 4666 
L 3047 1625 
L 3713 1625 
L 3713 1100 
L 3047 1100 
L 3047 0 
L 2419 0 
L 2419 1100 
L 313 1100 
L 313 1709 
L 2253 4666 
z
" transform="scale(0.015625)"/>
       </defs>
       <use xlink:href="#DejaVuSans-30"/>
       <use xlink:href="#DejaVuSans-2e" transform="translate(63.623047 0)"/>
       <use xlink:href="#DejaVuSans-34" transform="translate(95.410156 0)"/>
       <use xlink:href="#DejaVuSans-30" transform="translate(159.033203 0)"/>
      </g>
     </g>
    </g>
    <g id="text_14">
     <!-- Volumetric water content -->
     <g transform="translate(24.054687 213.977188) rotate(-90) scale(0.1 -0.1)">
      <defs>
       <path id="DejaVuSans-56" d="M 1831 0 
L 50 4666 
L 709 4666 
L 2188 738 
L 3669 4666 
L 4325 4666 
L 2547 0 
L 1831 0 
z
" transform="scale(0.015625)"/>
       <path id="DejaVuSans-6f" d="M 1959 3097 
Q 1497 3097 1228 2736 
Q 959 2375 959 1747 
Q 959 1119 1226 758 
Q 1494 397 1959 397 
Q 2419 397 2687 759 
Q 2956 1122 2956 1747 
Q 2956 2369 2687 2733 
Q 2419 3097 1959 3097 
z
M 1959 3584 
Q 2709 3584 3137 3096 
Q 3566 2609 3566 1747 
Q 3566 888 3137 398 
Q 2709 -91 1959 -91 
Q 1206 -91 779 398 
Q 353 888 353 1747 
Q 353 2609 779 3096 
Q 1206 3584 1959 3584 
z
" transform="scale(0.015625)"/>
       <path id="DejaVuSans-6c" d="M 603 4863 
L 1178 4863 
L 1178 0 
L 603 0 
L 603 4863 
z
" transform="scale(0.015625)"/>
       <path id="DejaVuSans-75" d="M 544 1381 
L 544 3500 
L 1119 3500 
L 1119 1403 
Q 1119 906 1312 657 
Q 1506 409 1894 409 
Q 2359 409 2629 706 
Q 2900 1003 2900 1516 
L 2900 3500 
L 3475 3500 
L 3475 0 
L 2900 0 
L 2900 538 
Q 2691 219 2414 64 
Q 2138 -91 1772 -91 
Q 1169 -91 856 284 
Q 544 659 544 1381 
z
M 1991 3584 
L 1991 3584 
z
" transform="scale(0.015625)"/>
       <path id="DejaVuSans-6d" d="M 3328 2828 
Q 3544 3216 3844 3400 
Q 4144 3584 4550 3584 
Q 5097 3584 5394 3201 
Q 5691 2819 5691 2113 
L 5691 0 
L 5113 0 
L 5113 2094 
Q 5113 2597 4934 2840 
Q 4756 3084 4391 3084 
Q 3944 3084 3684 2787 
Q 3425 2491 3425 1978 
L 3425 0 
L 2847 0 
L 2847 2094 
Q 2847 2600 2669 2842 
Q 2491 3084 2119 3084 
Q 1678 3084 1418 2786 
Q 1159 2488 1159 1978 
L 1159 0 
L 581 0 
L 581 3500 
L 1159 3500 
L 1159 2956 
Q 1356 3278 1631 3431 
Q 1906 3584 2284 3584 
Q 2666 3584 2933 3390 
Q 3200 3197 3328 2828 
z
" transform="scale(0.015625)"/>
       <path id="DejaVuSans-77" d="M 269 3500 
L 844 3500 
L 1563 769 
L 2278 3500 
L 2956 3500 
L 3675 769 
L 4391 3500 
L 4966 3500 
L 4050 0 
L 3372 0 
L 2619 2869 
L 1863 0 
L 1184 0 
L 269 3500 
z
" transform="scale(0.015625)"/>
       <path id="DejaVuSans-6e" d="M 3513 2113 
L 3513 0 
L 2938 0 
L 2938 2094 
Q 2938 2591 2744 2837 
Q 2550 3084 2163 3084 
Q 1697 3084 1428 2787 
Q 1159 2491 1159 1978 
L 1159 0 
L 581 0 
L 581 3500 
L 1159 3500 
L 1159 2956 
Q 1366 3272 1645 3428 
Q 1925 3584 2291 3584 
Q 2894 3584 3203 3211 
Q 3513 2838 3513 2113 
z
" transform="scale(0.015625)"/>
      </defs>
      <use xlink:href="#DejaVuSans-56"/>
      <use xlink:href="#DejaVuSans-6f" transform="translate(60.658203 0)"/>
      <use xlink:href="#DejaVuSans-6c" transform="translate(121.839844 0)"/>
      <use xlink:href="#DejaVuSans-75" transform="translate(149.623047 0)"/>
      <use xlink:href="#DejaVuSans-6d" transform="translate(213.001953 0)"/>
      <use xlink:href="#DejaVuSans-65" transform="translate(310.414062 0)"/>
      <use xlink:href="#DejaVuSans-74" transform="translate(371.9375 0)"/>
      <use xlink:href="#DejaVuSans-72" transform="translate(411.146484 0)"/>
      <use xlink:href="#DejaVuSans-69" transform="translate(452.259766 0)"/>
      <use xlink:href="#DejaVuSans-63" transform="translate(480.042969 0)"/>
      <use xlink:href="#DejaVuSans-20" transform="translate(535.023438 0)"/>
      <use xlink:href="#DejaVuSans-77" transform="translate(566.810547 0)"/>
      <use xlink:href="#DejaVuSans-61" transform="translate(648.597656 0)"/>
      <use xlink:href="#DejaVuSans-74" transform="translate(709.876953 0)"/>
      <use xlink:href="#DejaVuSans-65" transform="translate(749.085938 0)"/>
      <use xlink:href="#DejaVuSans-72" transform="translate(810.609375 0)"/>
      <use xlink:href="#DejaVuSans-20" transform="translate(851.722656 0)"/>
      <use xlink:href="#DejaVuSans-63" transform="translate(883.509766 0)"/>
      <use xlink:href="#DejaVuSans-6f" transform="translate(938.490234 0)"/>
      <use xlink:href="#DejaVuSans-6e" transform="translate(999.671875 0)"/>
      <use xlink:href="#DejaVuSans-74" transform="translate(1063.050781 0)"/>
      <use xlink:href="#DejaVuSans-65" transform="translate(1102.259766 0)"/>
      <use xlink:href="#DejaVuSans-6e" transform="translate(1163.783203 0)"/>
      <use xlink:href="#DejaVuSans-74" transform="translate(1227.162109 0)"/>
     </g>
    </g>
   </g>
   <g id="line2d_29">
    <defs>
     <path id="mb94da5b9f7" d="M 0 3 
C 0.795609 3 1.55874 2.683901 2.12132 2.12132 
C 2.683901 1.55874 3 0.795609 3 0 
C 3 -0.795609 2.683901 -1.55874 2.12132 -2.12132 
C 1.55874 -2.683901 0.795609 -3 0 -3 
C -0.795609 -3 -1.55874 -2.683901 -2.12132 -2.12132 
C -2.683901 -1.55874 -3 -0.795609 -3 0 
C -3 0.795609 -2.683901 1.55874 -2.12132 2.12132 
C -1.55874 2.683901 -0.795609 3 0 3 
z
" style="stroke: #0000ff"/>
    </defs>
    <g clip-path="url(#pf725a09b1c)">
     <use xlink:href="#mb94da5b9f7" x="209.83067" y="54.570092" style="fill: #0000ff; stroke: #0000ff"/>
     <use xlink:href="#mb94da5b9f7" x="220.310718" y="54.570092" style="fill: #0000ff; stroke: #0000ff"/>
     <use xlink:href="#mb94da5b9f7" x="224.959842" y="51.276522" style="fill: #0000ff; stroke: #0000ff"/>
     <use xlink:href="#mb94da5b9f7" x="233.336862" y="54.570092" style="fill: #0000ff; stroke: #0000ff"/>
     <use xlink:href="#mb94da5b9f7" x="256.103543" y="60.498518" style="fill: #0000ff; stroke: #0000ff"/>
     <use xlink:href="#mb94da5b9f7" x="268.444057" y="63.462731" style="fill: #0000ff; stroke: #0000ff"/>
     <use xlink:href="#mb94da5b9f7" x="278.751521" y="67.744372" style="fill: #0000ff; stroke: #0000ff"/>
     <use xlink:href="#mb94da5b9f7" x="284.210133" y="72.684727" style="fill: #0000ff; stroke: #0000ff"/>
     <use xlink:href="#mb94da5b9f7" x="285.928993" y="80.918653" style="fill: #0000ff; stroke: #0000ff"/>
     <use xlink:href="#mb94da5b9f7" x="287.602011" y="74.331513" style="fill: #0000ff; stroke: #0000ff"/>
     <use xlink:href="#mb94da5b9f7" x="290.819868" y="79.601225" style="fill: #0000ff; stroke: #0000ff"/>
     <use xlink:href="#mb94da5b9f7" x="293.880693" y="93.565962" style="fill: #0000ff; stroke: #0000ff"/>
     <use xlink:href="#mb94da5b9f7" x="296.799101" y="98.045217" style="fill: #0000ff; stroke: #0000ff"/>
     <use xlink:href="#mb94da5b9f7" x="298.208923" y="99.362645" style="fill: #0000ff; stroke: #0000ff"/>
     <use xlink:href="#mb94da5b9f7" x="300.936939" y="113.327383" style="fill: #0000ff; stroke: #0000ff"/>
     <use xlink:href="#mb94da5b9f7" x="302.257713" y="120.441494" style="fill: #0000ff; stroke: #0000ff"/>
     <use xlink:href="#mb94da5b9f7" x="303.551253" y="125.711206" style="fill: #0000ff; stroke: #0000ff"/>
     <use xlink:href="#mb94da5b9f7" x="304.818659" y="130.322205" style="fill: #0000ff; stroke: #0000ff"/>
     <use xlink:href="#mb94da5b9f7" x="306.060966" y="134.406231" style="fill: #0000ff; stroke: #0000ff"/>
     <use xlink:href="#mb94da5b9f7" x="307.279149" y="150.083625" style="fill: #0000ff; stroke: #0000ff"/>
     <use xlink:href="#mb94da5b9f7" x="308.474127" y="149.424911" style="fill: #0000ff; stroke: #0000ff"/>
     <use xlink:href="#mb94da5b9f7" x="309.646768" y="153.640681" style="fill: #0000ff; stroke: #0000ff"/>
     <use xlink:href="#mb94da5b9f7" x="310.797892" y="153.377195" style="fill: #0000ff; stroke: #0000ff"/>
     <use xlink:href="#mb94da5b9f7" x="311.928273" y="165.299919" style="fill: #0000ff; stroke: #0000ff"/>
     <use xlink:href="#mb94da5b9f7" x="315.202118" y="177.0909" style="fill: #0000ff; stroke: #0000ff"/>
     <use xlink:href="#mb94da5b9f7" x="316.256504" y="173.138616" style="fill: #0000ff; stroke: #0000ff"/>
     <use xlink:href="#mb94da5b9f7" x="317.29346" y="167.868904" style="fill: #0000ff; stroke: #0000ff"/>
     <use xlink:href="#mb94da5b9f7" x="318.313555" y="183.085198" style="fill: #0000ff; stroke: #0000ff"/>
     <use xlink:href="#mb94da5b9f7" x="320.305293" y="183.019326" style="fill: #0000ff; stroke: #0000ff"/>
     <use xlink:href="#mb94da5b9f7" x="321.27794" y="189.606467" style="fill: #0000ff; stroke: #0000ff"/>
     <use xlink:href="#mb94da5b9f7" x="322.235736" y="179.725756" style="fill: #0000ff; stroke: #0000ff"/>
     <use xlink:href="#mb94da5b9f7" x="323.17913" y="192.900037" style="fill: #0000ff; stroke: #0000ff"/>
     <use xlink:href="#mb94da5b9f7" x="324.108546" y="196.852321" style="fill: #0000ff; stroke: #0000ff"/>
     <use xlink:href="#mb94da5b9f7" x="325.024394" y="188.947753" style="fill: #0000ff; stroke: #0000ff"/>
     <use xlink:href="#mb94da5b9f7" x="325.927063" y="194.217465" style="fill: #0000ff; stroke: #0000ff"/>
     <use xlink:href="#mb94da5b9f7" x="329.413208" y="196.852321" style="fill: #0000ff; stroke: #0000ff"/>
     <use xlink:href="#mb94da5b9f7" x="331.906296" y="202.122033" style="fill: #0000ff; stroke: #0000ff"/>
     <use xlink:href="#mb94da5b9f7" x="333.51496" y="203.439461" style="fill: #0000ff; stroke: #0000ff"/>
     <use xlink:href="#mb94da5b9f7" x="337.364908" y="206.733031" style="fill: #0000ff; stroke: #0000ff"/>
     <use xlink:href="#mb94da5b9f7" x="340.992188" y="210.026601" style="fill: #0000ff; stroke: #0000ff"/>
     <use xlink:href="#mb94da5b9f7" x="344.421154" y="219.248598" style="fill: #0000ff; stroke: #0000ff"/>
     <use xlink:href="#mb94da5b9f7" x="350.763365" y="219.248598" style="fill: #0000ff; stroke: #0000ff"/>
    </g>
   </g>
   <g id="line2d_30">
    <path d="M 59.4 55.776926 
L 234.515578 55.87434 
L 245.659296 56.088873 
L 252.027136 56.382837 
L 256.803015 56.772682 
L 261.578894 57.410575 
L 264.762814 58.046087 
L 267.946734 58.92351 
L 271.130653 60.130087 
L 272.722613 60.891354 
L 274.314573 61.7802 
L 275.906533 62.815938 
L 277.498492 64.02004 
L 279.090452 65.416106 
L 280.682412 67.029695 
L 282.274372 68.887997 
L 283.866332 71.01929 
L 285.458291 73.45214 
L 287.050251 76.214302 
L 288.642211 79.331313 
L 290.234171 82.824766 
L 291.826131 86.710349 
L 293.41809 90.99573 
L 295.01005 95.678491 
L 298.19397 106.165767 
L 301.377889 117.898148 
L 312.521608 161.044127 
L 315.705528 171.645604 
L 317.297487 176.421859 
L 318.889447 180.827803 
L 320.481407 184.861115 
L 322.073367 188.528019 
L 323.665327 191.841469 
L 325.257286 194.819381 
L 326.849246 197.48304 
L 328.441206 199.85572 
L 330.033166 201.961573 
L 331.625126 203.82475 
L 333.217085 205.46875 
L 334.809045 206.915973 
L 336.401005 208.187415 
L 337.992965 209.302505 
L 341.176884 211.133135 
L 344.360804 212.530739 
L 347.544724 213.594094 
L 350.728643 214.401133 
L 353.912563 215.012541 
L 358.688442 215.662214 
L 363.464322 216.088985 
L 369.832161 216.438977 
L 376.2 216.638282 
L 376.2 216.638282 
" clip-path="url(#pf725a09b1c)" style="fill: none; stroke-dasharray: 5.55,2.4; stroke-dashoffset: 0; stroke: #ff0000; stroke-width: 1.5"/>
   </g>
   <g id="line2d_31">
    <path d="M 59.4 59.922148 
L 285.458291 59.922148 
L 290.234171 81.755216 
L 293.41809 95.189107 
L 296.60201 107.73558 
L 299.78593 119.453257 
L 302.969849 130.396887 
L 306.153769 140.617602 
L 309.337688 150.163155 
L 312.521608 159.078147 
L 315.705528 167.404232 
L 318.889447 175.180312 
L 322.073367 182.442719 
L 325.257286 189.225384 
L 328.441206 195.56 
L 331.625126 201.476163 
L 334.809045 207.001516 
L 337.992965 212.161874 
L 341.176884 216.981349 
L 344.360804 221.482459 
L 347.544724 225.686234 
L 350.728643 229.612315 
L 353.912563 233.279047 
L 357.096482 236.703562 
L 360.280402 239.90186 
L 365.056281 244.307567 
L 369.832161 248.284016 
L 374.60804 251.87303 
L 376.2 252.989906 
L 376.2 252.989906 
" clip-path="url(#pf725a09b1c)" style="fill: none; stroke-dasharray: 9.6,2.4,1.5,2.4; stroke-dashoffset: 0; stroke: #0000ff; stroke-width: 1.5"/>
   </g>
   <g id="line2d_32">
    <path d="M 59.4 47.223523 
L 108.750754 47.427895 
L 135.81407 47.740366 
L 154.917588 48.156781 
L 170.837186 48.718578 
L 183.572864 49.381219 
L 194.716583 50.178561 
L 204.268342 51.073812 
L 213.820101 52.215667 
L 221.779899 53.395853 
L 229.739698 54.821705 
L 236.107538 56.164126 
L 242.475377 57.706196 
L 248.843216 59.465443 
L 255.211055 61.457041 
L 261.578894 63.692529 
L 267.946734 66.17848 
L 274.314573 68.91526 
L 280.682412 71.896054 
L 287.050251 75.106323 
L 293.41809 78.523816 
L 296.60201 97.269084 
L 299.78593 113.739887 
L 302.969849 128.136797 
L 306.153769 140.758733 
L 309.337688 151.860688 
L 312.521608 161.660092 
L 315.705528 170.342266 
L 318.889447 178.065099 
L 322.073367 184.963061 
L 325.257286 191.150642 
L 328.441206 196.725293 
L 331.625126 201.769954 
L 334.809045 206.355211 
L 337.992965 210.541141 
L 341.176884 214.37889 
L 344.360804 217.91202 
L 347.544724 221.177659 
L 350.728643 224.207472 
L 355.504523 228.368085 
L 360.280402 232.133386 
L 365.056281 235.563197 
L 369.832161 238.705234 
L 374.60804 241.597789 
L 376.2 242.51206 
L 376.2 242.51206 
" clip-path="url(#pf725a09b1c)" style="fill: none; stroke: #008000; stroke-width: 1.5; stroke-linecap: square"/>
   </g>
   <g id="line2d_33">
    <path d="M 59.4 48.559871 
L 108.750754 48.785145 
L 138.99799 49.134172 
L 161.285427 49.611553 
L 178.796985 50.208015 
L 193.124623 50.910713 
L 205.860302 51.756556 
L 217.00402 52.716584 
L 226.555779 53.741345 
L 236.107538 54.992231 
L 244.067337 56.245254 
L 252.027136 57.745992 
L 258.394975 59.197751 
L 263.170854 60.507997 
L 266.354774 61.536851 
L 269.538693 62.741419 
L 272.722613 64.188519 
L 275.906533 65.974274 
L 277.498492 67.034726 
L 279.090452 68.234474 
L 280.682412 69.598483 
L 282.274372 71.155417 
L 283.866332 72.937672 
L 285.458291 74.981149 
L 287.050251 77.32462 
L 288.642211 80.008548 
L 290.234171 83.073238 
L 291.826131 86.556178 
L 293.41809 90.488579 
L 295.01005 94.891224 
L 296.60201 99.769966 
L 298.19397 105.111457 
L 301.377889 117.01559 
L 306.153769 136.71719 
L 309.337688 149.824825 
L 312.521608 161.940585 
L 314.113568 167.445276 
L 315.705528 172.528135 
L 317.297487 177.175402 
L 318.889447 181.390522 
L 320.481407 185.190238 
L 322.073367 188.600649 
L 323.665327 191.653661 
L 325.257286 194.384047 
L 326.849246 196.827189 
L 328.441206 199.017469 
L 330.033166 200.987212 
L 333.217085 204.380709 
L 336.401005 207.209088 
L 339.584925 209.627707 
L 342.768844 211.752182 
L 347.544724 214.564353 
L 352.320603 217.086858 
L 358.688442 220.184144 
L 366.648241 223.808278 
L 376.2 227.933355 
L 376.2 227.933355 
" clip-path="url(#pf725a09b1c)" style="fill: none; stroke-dasharray: 1.5,2.475; stroke-dashoffset: 0; stroke: #ff00ff; stroke-width: 1.5"/>
   </g>
   <g id="patch_3">
    <path d="M 59.4 285.12 
L 59.4 16.2 
" style="fill: none; stroke: #000000; stroke-width: 0.8; stroke-linejoin: miter; stroke-linecap: square"/>
   </g>
   <g id="patch_4">
    <path d="M 376.2 285.12 
L 376.2 16.2 
" style="fill: none; stroke: #000000; stroke-width: 0.8; stroke-linejoin: miter; stroke-linecap: square"/>
   </g>
   <g id="patch_5">
    <path d="M 59.4 285.12 
L 376.2 285.12 
" style="fill: none; stroke: #000000; stroke-width: 0.8; stroke-linejoin: miter; stroke-linecap: square"/>
   </g>
   <g id="patch_6">
    <path d="M 59.4 16.2 
L 376.2 16.2 
" style="fill: none; stroke: #000000; stroke-width: 0.8; stroke-linejoin: miter; stroke-linecap: square"/>
   </g>
  </g>
  <g id="legend_1">
   <g id="patch_7">
    <path d="M 299.6875 81.390625 
L 389 81.390625 
Q 391 81.390625 391 79.390625 
L 391 7 
Q 391 5 389 5 
L 299.6875 5 
Q 297.6875 5 297.6875 7 
L 297.6875 79.390625 
Q 297.6875 81.390625 299.6875 81.390625 
z
" style="fill: #ffffff; stroke: #cccccc; stroke-linejoin: miter"/>
   </g>
   <g id="line2d_34">
    <g>
     <use xlink:href="#mb94da5b9f7" x="311.6875" y="13.098437" style="fill: #0000ff; stroke: #0000ff"/>
    </g>
   </g>
   <g id="text_15">
    <!-- Measured -->
    <g transform="translate(329.6875 16.598437) scale(0.1 -0.1)">
     <defs>
      <path id="DejaVuSans-73" d="M 2834 3397 
L 2834 2853 
Q 2591 2978 2328 3040 
Q 2066 3103 1784 3103 
Q 1356 3103 1142 2972 
Q 928 2841 928 2578 
Q 928 2378 1081 2264 
Q 1234 2150 1697 2047 
L 1894 2003 
Q 2506 1872 2764 1633 
Q 3022 1394 3022 966 
Q 3022 478 2636 193 
Q 2250 -91 1575 -91 
Q 1294 -91 989 -36 
Q 684 19 347 128 
L 347 722 
Q 666 556 975 473 
Q 1284 391 1588 391 
Q 1994 391 2212 530 
Q 2431 669 2431 922 
Q 2431 1156 2273 1281 
Q 2116 1406 1581 1522 
L 1381 1569 
Q 847 1681 609 1914 
Q 372 2147 372 2553 
Q 372 3047 722 3315 
Q 1072 3584 1716 3584 
Q 2034 3584 2315 3537 
Q 2597 3491 2834 3397 
z
" transform="scale(0.015625)"/>
     </defs>
     <use xlink:href="#DejaVuSans-4d"/>
     <use xlink:href="#DejaVuSans-65" transform="translate(86.279297 0)"/>
     <use xlink:href="#DejaVuSans-61" transform="translate(147.802734 0)"/>
     <use xlink:href="#DejaVuSans-73" transform="translate(209.082031 0)"/>
     <use xlink:href="#DejaVuSans-75" transform="translate(261.181641 0)"/>
     <use xlink:href="#DejaVuSans-72" transform="translate(324.560547 0)"/>
     <use xlink:href="#DejaVuSans-65" transform="translate(363.423828 0)"/>
     <use xlink:href="#DejaVuSans-64" transform="translate(424.947266 0)"/>
    </g>
   </g>
   <g id="line2d_35">
    <path d="M 301.6875 27.776563 
L 311.6875 27.776563 
L 321.6875 27.776563 
" style="fill: none; stroke-dasharray: 5.55,2.4; stroke-dashoffset: 0; stroke: #ff0000; stroke-width: 1.5"/>
   </g>
   <g id="text_16">
    <!-- VG -->
    <g transform="translate(329.6875 31.276563) scale(0.1 -0.1)">
     <defs>
      <path id="DejaVuSans-47" d="M 3809 666 
L 3809 1919 
L 2778 1919 
L 2778 2438 
L 4434 2438 
L 4434 434 
Q 4069 175 3628 42 
Q 3188 -91 2688 -91 
Q 1594 -91 976 548 
Q 359 1188 359 2328 
Q 359 3472 976 4111 
Q 1594 4750 2688 4750 
Q 3144 4750 3555 4637 
Q 3966 4525 4313 4306 
L 4313 3634 
Q 3963 3931 3569 4081 
Q 3175 4231 2741 4231 
Q 1884 4231 1454 3753 
Q 1025 3275 1025 2328 
Q 1025 1384 1454 906 
Q 1884 428 2741 428 
Q 3075 428 3337 486 
Q 3600 544 3809 666 
z
" transform="scale(0.015625)"/>
     </defs>
     <use xlink:href="#DejaVuSans-56"/>
     <use xlink:href="#DejaVuSans-47" transform="translate(68.408203 0)"/>
    </g>
   </g>
   <g id="line2d_36">
    <path d="M 301.6875 42.454687 
L 311.6875 42.454687 
L 321.6875 42.454687 
" style="fill: none; stroke-dasharray: 9.6,2.4,1.5,2.4; stroke-dashoffset: 0; stroke: #0000ff; stroke-width: 1.5"/>
   </g>
   <g id="text_17">
    <!-- dual-BC-CH -->
    <g transform="translate(329.6875 45.954687) scale(0.1 -0.1)">
     <defs>
      <path id="DejaVuSans-2d" d="M 313 2009 
L 1997 2009 
L 1997 1497 
L 313 1497 
L 313 2009 
z
" transform="scale(0.015625)"/>
      <path id="DejaVuSans-42" d="M 1259 2228 
L 1259 519 
L 2272 519 
Q 2781 519 3026 730 
Q 3272 941 3272 1375 
Q 3272 1813 3026 2020 
Q 2781 2228 2272 2228 
L 1259 2228 
z
M 1259 4147 
L 1259 2741 
L 2194 2741 
Q 2656 2741 2882 2914 
Q 3109 3088 3109 3444 
Q 3109 3797 2882 3972 
Q 2656 4147 2194 4147 
L 1259 4147 
z
M 628 4666 
L 2241 4666 
Q 2963 4666 3353 4366 
Q 3744 4066 3744 3513 
Q 3744 3084 3544 2831 
Q 3344 2578 2956 2516 
Q 3422 2416 3680 2098 
Q 3938 1781 3938 1306 
Q 3938 681 3513 340 
Q 3088 0 2303 0 
L 628 0 
L 628 4666 
z
" transform="scale(0.015625)"/>
      <path id="DejaVuSans-43" d="M 4122 4306 
L 4122 3641 
Q 3803 3938 3442 4084 
Q 3081 4231 2675 4231 
Q 1875 4231 1450 3742 
Q 1025 3253 1025 2328 
Q 1025 1406 1450 917 
Q 1875 428 2675 428 
Q 3081 428 3442 575 
Q 3803 722 4122 1019 
L 4122 359 
Q 3791 134 3420 21 
Q 3050 -91 2638 -91 
Q 1578 -91 968 557 
Q 359 1206 359 2328 
Q 359 3453 968 4101 
Q 1578 4750 2638 4750 
Q 3056 4750 3426 4639 
Q 3797 4528 4122 4306 
z
" transform="scale(0.015625)"/>
      <path id="DejaVuSans-48" d="M 628 4666 
L 1259 4666 
L 1259 2753 
L 3553 2753 
L 3553 4666 
L 4184 4666 
L 4184 0 
L 3553 0 
L 3553 2222 
L 1259 2222 
L 1259 0 
L 628 0 
L 628 4666 
z
" transform="scale(0.015625)"/>
     </defs>
     <use xlink:href="#DejaVuSans-64"/>
     <use xlink:href="#DejaVuSans-75" transform="translate(63.476562 0)"/>
     <use xlink:href="#DejaVuSans-61" transform="translate(126.855469 0)"/>
     <use xlink:href="#DejaVuSans-6c" transform="translate(188.134766 0)"/>
     <use xlink:href="#DejaVuSans-2d" transform="translate(215.917969 0)"/>
     <use xlink:href="#DejaVuSans-42" transform="translate(248.376953 0)"/>
     <use xlink:href="#DejaVuSans-43" transform="translate(315.230469 0)"/>
     <use xlink:href="#DejaVuSans-2d" transform="translate(385.054688 0)"/>
     <use xlink:href="#DejaVuSans-43" transform="translate(421.138672 0)"/>
     <use xlink:href="#DejaVuSans-48" transform="translate(490.962891 0)"/>
    </g>
   </g>
   <g id="line2d_37">
    <path d="M 301.6875 57.132812 
L 311.6875 57.132812 
L 321.6875 57.132812 
" style="fill: none; stroke: #008000; stroke-width: 1.5; stroke-linecap: square"/>
   </g>
   <g id="text_18">
    <!-- $\mathrm{VG}_1\mathrm{BC}_2$-CH -->
    <g transform="translate(329.6875 60.632812) scale(0.1 -0.1)">
     <use xlink:href="#DejaVuSans-56" transform="translate(0 0.78125)"/>
     <use xlink:href="#DejaVuSans-47" transform="translate(68.408203 0.78125)"/>
     <use xlink:href="#DejaVuSans-31" transform="translate(146.855469 -15.625) scale(0.7)"/>
     <use xlink:href="#DejaVuSans-42" transform="translate(194.125977 0.78125)"/>
     <use xlink:href="#DejaVuSans-43" transform="translate(262.729492 0.78125)"/>
     <use xlink:href="#DejaVuSans-32" transform="translate(333.510742 -15.625) scale(0.7)"/>
     <use xlink:href="#DejaVuSans-2d" transform="translate(380.78125 0.78125)"/>
     <use xlink:href="#DejaVuSans-43" transform="translate(416.865234 0.78125)"/>
     <use xlink:href="#DejaVuSans-48" transform="translate(486.689453 0.78125)"/>
    </g>
   </g>
   <g id="line2d_38">
    <path d="M 301.6875 71.810937 
L 311.6875 71.810937 
L 321.6875 71.810937 
" style="fill: none; stroke-dasharray: 1.5,2.475; stroke-dashoffset: 0; stroke: #ff00ff; stroke-width: 1.5"/>
   </g>
   <g id="text_19">
    <!-- dual-VG-CH -->
    <g transform="translate(329.6875 75.310937) scale(0.1 -0.1)">
     <use xlink:href="#DejaVuSans-64"/>
     <use xlink:href="#DejaVuSans-75" transform="translate(63.476562 0)"/>
     <use xlink:href="#DejaVuSans-61" transform="translate(126.855469 0)"/>
     <use xlink:href="#DejaVuSans-6c" transform="translate(188.134766 0)"/>
     <use xlink:href="#DejaVuSans-2d" transform="translate(215.917969 0)"/>
     <use xlink:href="#DejaVuSans-56" transform="translate(246.126953 0)"/>
     <use xlink:href="#DejaVuSans-47" transform="translate(314.535156 0)"/>
     <use xlink:href="#DejaVuSans-2d" transform="translate(392.025391 0)"/>
     <use xlink:href="#DejaVuSans-43" transform="translate(428.109375 0)"/>
     <use xlink:href="#DejaVuSans-48" transform="translate(497.933594 0)"/>
    </g>
   </g>
  </g>
 </g>
 <defs>
  <clipPath id="pf725a09b1c">
   <rect x="59.4" y="16.2" width="316.8" height="268.92"/>
  </clipPath>
 </defs>
</svg>
