<?xml version="1.0" encoding="utf-8" standalone="no"?>
<!DOCTYPE svg PUBLIC "-//W3C//DTD SVG 1.1//EN"
  "http://www.w3.org/Graphics/SVG/1.1/DTD/svg11.dtd">
<svg xmlns:xlink="http://www.w3.org/1999/xlink" width="252pt" height="180pt" viewBox="0 0 252 180" xmlns="http://www.w3.org/2000/svg" version="1.1">
 <metadata>
  <rdf:RDF xmlns:dc="http://purl.org/dc/elements/1.1/" xmlns:cc="http://creativecommons.org/ns#" xmlns:rdf="http://www.w3.org/1999/02/22-rdf-syntax-ns#">
   <cc:Work>
    <dc:type rdf:resource="http://purl.org/dc/dcmitype/StillImage"/>
    <dc:date>2026-01-20T20:38:57.109136</dc:date>
    <dc:format>image/svg+xml</dc:format>
    <dc:creator>
     <cc:Agent>
      <dc:title>Matplotlib v3.10.8, https://matplotlib.org/</dc:title>
     </cc:Agent>
    </dc:creator>
   </cc:Work>
  </rdf:RDF>
 </metadata>
 <defs>
  <style type="text/css">*{stroke-linejoin: round; stroke-linecap: butt}</style>
 </defs>
 <g id="figure_1">
  <g id="patch_1">
   <path d="M 0 180 
L 252 180 
L 252 0 
L 0 0 
z
" style="fill: #ffffff"/>
  </g>
  <g id="axes_1">
   <g id="patch_2">
    <path d="M 42.84 144 
L 239.4 144 
L 239.4 9 
L 42.84 9 
z
" style="fill: #ffffff"/>
   </g>
   <g id="matplotlib.axis_1">
    <g id="xtick_1">
     <g id="line2d_1">
      <defs>
       <path id="m74b7738f75" d="M 0 0 
L 0 3.5 
" style="stroke: #000000; stroke-width: 0.8"/>
      </defs>
      <g>
       <use xlink:href="#m74b7738f75" x="42.84" y="144" style="stroke: #000000; stroke-width: 0.8"/>
      </g>
     </g>
     <g id="text_1">
      <!-- 0 -->
      <g transform="translate(39.65875 158.598438) scale(0.1 -0.1)">
       <defs>
        <path id="DejaVuSans-30" d="M 2034 4250 
Q 1547 4250 1301 3770 
Q 1056 3291 1056 2328 
Q 1056 1369 1301 889 
Q 1547 409 2034 409 
Q 2525 409 2770 889 
Q 3016 1369 3016 2328 
Q 3016 3291 2770 3770 
Q 2525 4250 2034 4250 
z
M 2034 4750 
Q 2819 4750 3233 4129 
Q 3647 3509 3647 2328 
Q 3647 1150 3233 529 
Q 2819 -91 2034 -91 
Q 1250 -91 836 529 
Q 422 1150 422 2328 
Q 422 3509 836 4129 
Q 1250 4750 2034 4750 
z
" transform="scale(0.015625)"/>
       </defs>
       <use xlink:href="#DejaVuSans-30"/>
      </g>
     </g>
    </g>
    <g id="xtick_2">
     <g id="line2d_2">
      <g>
       <use xlink:href="#m74b7738f75" x="92.982857" y="144" style="stroke: #000000; stroke-width: 0.8"/>
      </g>
     </g>
     <g id="text_2">
      <!-- 2 -->
      <g transform="translate(89.801607 158.598438) scale(0.1 -0.1)">
       <defs>
        <path id="DejaVuSans-32" d="M 1228 531 
L 3431 531 
L 3431 0 
L 469 0 
L 469 531 
Q 828 903 1448 1529 
Q 2069 2156 2228 2338 
Q 2531 2678 2651 2914 
Q 2772 3150 2772 3378 
Q 2772 3750 2511 3984 
Q 2250 4219 1831 4219 
Q 1534 4219 1204 4116 
Q 875 4013 500 3803 
L 500 4441 
Q 881 4594 1212 4672 
Q 1544 4750 1819 4750 
Q 2544 4750 2975 4387 
Q 3406 4025 3406 3419 
Q 3406 3131 3298 2873 
Q 3191 2616 2906 2266 
Q 2828 2175 2409 1742 
Q 1991 1309 1228 531 
z
" transform="scale(0.015625)"/>
       </defs>
       <use xlink:href="#DejaVuSans-32"/>
      </g>
     </g>
    </g>
    <g id="xtick_3">
     <g id="line2d_3">
      <g>
       <use xlink:href="#m74b7738f75" x="143.125714" y="144" style="stroke: #000000; stroke-width: 0.8"/>
      </g>
     </g>
     <g id="text_3">
      <!-- 4 -->
      <g transform="translate(139.944464 158.598438) scale(0.1 -0.1)">
       <defs>
        <path id="DejaVuSans-34" d="M 2419 4116 
L 825 1625 
L 2419 1625 
L 2419 4116 
z
M 2253 4666 
L 3047 4666 
L 3047 1625 
L 3713 1625 
L 3713 1100 
L 3047 1100 
L 3047 0 
L 2419 0 
L 2419 1100 
L 313 1100 
L 313 1709 
L 2253 4666 
z
" transform="scale(0.015625)"/>
       </defs>
       <use xlink:href="#DejaVuSans-34"/>
      </g>
     </g>
    </g>
    <g id="xtick_4">
     <g id="line2d_4">
      <g>
       <use xlink:href="#m74b7738f75" x="193.268571" y="144" style="stroke: #000000; stroke-width: 0.8"/>
      </g>
     </g>
     <g id="text_4">
      <!-- 6 -->
      <g transform="translate(190.087321 158.598438) scale(0.1 -0.1)">
       <defs>
        <path id="DejaVuSans-36" d="M 2113 2584 
Q 1688 2584 1439 2293 
Q 1191 2003 1191 1497 
Q 1191 994 1439 701 
Q 1688 409 2113 409 
Q 2538 409 2786 701 
Q 3034 994 3034 1497 
Q 3034 2003 2786 2293 
Q 2538 2584 2113 2584 
z
M 3366 4563 
L 3366 3988 
Q 3128 4100 2886 4159 
Q 2644 4219 2406 4219 
Q 1781 4219 1451 3797 
Q 1122 3375 1075 2522 
Q 1259 2794 1537 2939 
Q 1816 3084 2150 3084 
Q 2853 3084 3261 2657 
Q 3669 2231 3669 1497 
Q 3669 778 3244 343 
Q 2819 -91 2113 -91 
Q 1303 -91 875 529 
Q 447 1150 447 2328 
Q 447 3434 972 4092 
Q 1497 4750 2381 4750 
Q 2619 4750 2861 4703 
Q 3103 4656 3366 4563 
z
" transform="scale(0.015625)"/>
       </defs>
       <use xlink:href="#DejaVuSans-36"/>
      </g>
     </g>
    </g>
    <g id="text_5">
     <!-- $p$ -->
     <g transform="translate(137.92 172.25625) scale(0.1 -0.1)">
      <defs>
       <path id="DejaVuSans-Oblique-70" d="M 3175 2156 
Q 3175 2616 2975 2859 
Q 2775 3103 2400 3103 
Q 2144 3103 1911 2972 
Q 1678 2841 1497 2591 
Q 1319 2344 1212 1994 
Q 1106 1644 1106 1300 
Q 1106 863 1306 627 
Q 1506 391 1875 391 
Q 2147 391 2380 519 
Q 2613 647 2778 891 
Q 2956 1147 3065 1494 
Q 3175 1841 3175 2156 
z
M 1394 2969 
Q 1625 3272 1939 3428 
Q 2253 3584 2638 3584 
Q 3175 3584 3472 3232 
Q 3769 2881 3769 2247 
Q 3769 1728 3584 1258 
Q 3400 788 3053 416 
Q 2822 169 2531 39 
Q 2241 -91 1919 -91 
Q 1547 -91 1294 64 
Q 1041 219 916 525 
L 556 -1331 
L -19 -1331 
L 922 3500 
L 1497 3500 
L 1394 2969 
z
" transform="scale(0.015625)"/>
      </defs>
      <use xlink:href="#DejaVuSans-Oblique-70"/>
     </g>
    </g>
   </g>
   <g id="matplotlib.axis_2">
    <g id="ytick_1">
     <g id="line2d_5">
      <defs>
       <path id="m58a20eca79" d="M 0 0 
L -3.5 0 
" style="stroke: #000000; stroke-width: 0.8"/>
      </defs>
      <g>
       <use xlink:href="#m58a20eca79" x="42.84" y="144" style="stroke: #000000; stroke-width: 0.8"/>
      </g>
     </g>
     <g id="text_6">
      <!-- 0.0 -->
      <g transform="translate(19.936875 147.799219) scale(0.1 -0.1)">
       <defs>
        <path id="DejaVuSans-2e" d="M 684 794 
L 1344 794 
L 1344 0 
L 684 0 
L 684 794 
z
" transform="scale(0.015625)"/>
       </defs>
       <use xlink:href="#DejaVuSans-30"/>
       <use xlink:href="#DejaVuSans-2e" transform="translate(63.623047 0)"/>
       <use xlink:href="#DejaVuSans-30" transform="translate(95.410156 0)"/>
      </g>
     </g>
    </g>
    <g id="ytick_2">
     <g id="line2d_6">
      <g>
       <use xlink:href="#m58a20eca79" x="42.84" y="112.692022" style="stroke: #000000; stroke-width: 0.8"/>
      </g>
     </g>
     <g id="text_7">
      <!-- 0.5 -->
      <g transform="translate(19.936875 116.491241) scale(0.1 -0.1)">
       <defs>
        <path id="DejaVuSans-35" d="M 691 4666 
L 3169 4666 
L 3169 4134 
L 1269 4134 
L 1269 2991 
Q 1406 3038 1543 3061 
Q 1681 3084 1819 3084 
Q 2600 3084 3056 2656 
Q 3513 2228 3513 1497 
Q 3513 744 3044 326 
Q 2575 -91 1722 -91 
Q 1428 -91 1123 -41 
Q 819 9 494 109 
L 494 744 
Q 775 591 1075 516 
Q 1375 441 1709 441 
Q 2250 441 2565 725 
Q 2881 1009 2881 1497 
Q 2881 1984 2565 2268 
Q 2250 2553 1709 2553 
Q 1456 2553 1204 2497 
Q 953 2441 691 2322 
L 691 4666 
z
" transform="scale(0.015625)"/>
       </defs>
       <use xlink:href="#DejaVuSans-30"/>
       <use xlink:href="#DejaVuSans-2e" transform="translate(63.623047 0)"/>
       <use xlink:href="#DejaVuSans-35" transform="translate(95.410156 0)"/>
      </g>
     </g>
    </g>
    <g id="ytick_3">
     <g id="line2d_7">
      <g>
       <use xlink:href="#m58a20eca79" x="42.84" y="81.384045" style="stroke: #000000; stroke-width: 0.8"/>
      </g>
     </g>
     <g id="text_8">
      <!-- 1.0 -->
      <g transform="translate(19.936875 85.183263) scale(0.1 -0.1)">
       <defs>
        <path id="DejaVuSans-31" d="M 794 531 
L 1825 531 
L 1825 4091 
L 703 3866 
L 703 4441 
L 1819 4666 
L 2450 4666 
L 2450 531 
L 3481 531 
L 3481 0 
L 794 0 
L 794 531 
z
" transform="scale(0.015625)"/>
       </defs>
       <use xlink:href="#DejaVuSans-31"/>
       <use xlink:href="#DejaVuSans-2e" transform="translate(63.623047 0)"/>
       <use xlink:href="#DejaVuSans-30" transform="translate(95.410156 0)"/>
      </g>
     </g>
    </g>
    <g id="ytick_4">
     <g id="line2d_8">
      <g>
       <use xlink:href="#m58a20eca79" x="42.84" y="50.076067" style="stroke: #000000; stroke-width: 0.8"/>
      </g>
     </g>
     <g id="text_9">
      <!-- 1.5 -->
      <g transform="translate(19.936875 53.875286) scale(0.1 -0.1)">
       <use xlink:href="#DejaVuSans-31"/>
       <use xlink:href="#DejaVuSans-2e" transform="translate(63.623047 0)"/>
       <use xlink:href="#DejaVuSans-35" transform="translate(95.410156 0)"/>
      </g>
     </g>
    </g>
    <g id="ytick_5">
     <g id="line2d_9">
      <g>
       <use xlink:href="#m58a20eca79" x="42.84" y="18.768089" style="stroke: #000000; stroke-width: 0.8"/>
      </g>
     </g>
     <g id="text_10">
      <!-- 2.0 -->
      <g transform="translate(19.936875 22.567308) scale(0.1 -0.1)">
       <use xlink:href="#DejaVuSans-32"/>
       <use xlink:href="#DejaVuSans-2e" transform="translate(63.623047 0)"/>
       <use xlink:href="#DejaVuSans-30" transform="translate(95.410156 0)"/>
      </g>
     </g>
    </g>
    <g id="text_11">
     <!-- $q$ -->
     <g transform="translate(13.836875 79.7) rotate(-90) scale(0.1 -0.1)">
      <defs>
       <path id="DejaVuSans-Oblique-71" d="M 2669 525 
Q 2438 222 2123 65 
Q 1809 -91 1428 -91 
Q 897 -91 595 267 
Q 294 625 294 1253 
Q 294 1759 480 2231 
Q 666 2703 1013 3078 
Q 1238 3322 1530 3453 
Q 1822 3584 2144 3584 
Q 2531 3584 2781 3431 
Q 3031 3278 3144 2969 
L 3244 3494 
L 3822 3494 
L 2888 -1319 
L 2309 -1319 
L 2669 525 
z
M 891 1338 
Q 891 875 1084 633 
Q 1278 391 1644 391 
Q 2188 391 2572 911 
Q 2956 1431 2956 2175 
Q 2956 2625 2757 2864 
Q 2559 3103 2188 3103 
Q 1916 3103 1684 2976 
Q 1453 2850 1281 2606 
Q 1100 2350 995 2006 
Q 891 1663 891 1338 
z
" transform="scale(0.015625)"/>
      </defs>
      <use xlink:href="#DejaVuSans-Oblique-71"/>
     </g>
    </g>
   </g>
   <g id="QuadContourSet_1">
    <path clip-path="url(#p039acc3231)" style="fill: none; stroke: #000000; stroke-width: 1.5"/>
    <path d="M 207.542607 144 
L 207.308571 143.844169 
L 203.297143 141.370996 
L 203.087325 141.244898 
L 199.285714 138.708754 
L 198.943683 138.489796 
L 195.274286 135.908194 
L 195.018969 135.734694 
L 191.321788 132.979592 
L 191.262857 132.92672 
L 188.144204 130.22449 
L 187.707362 129.801227 
M 198.70683 130.217321 
L 198.72011 130.22449 
L 199.285714 130.529212 
L 203.297143 132.812841 
L 203.572316 132.979592 
L 207.308571 135.219252 
L 208.168469 135.734694 
L 211.32 137.617852 
L 212.801285 138.489796 
L 215.331429 139.990513 
L 217.521799 141.244898 
L 219.342857 142.313387 
L 222.409347 144 
" clip-path="url(#p039acc3231)" style="fill: none; stroke: #000000; stroke-width: 1.5"/>
    <path d="M 189.748953 144 
L 187.251429 142.492752 
L 185.170798 141.244898 
L 183.24 140.023241 
L 180.801937 138.489796 
L 179.228571 137.45229 
L 176.608641 135.734694 
L 175.217143 134.78282 
L 172.565789 132.979592 
L 171.205714 132.01802 
L 168.654081 130.22449 
L 167.194286 129.161077 
L 164.858291 127.469388 
L 163.182857 126.215086 
L 161.166115 124.714286 
L 159.171429 123.183054 
L 157.567401 121.959184 
L 155.16 120.067931 
L 154.053595 119.204082 
L 151.148571 116.872659 
L 150.61736 116.44898 
L 147.258678 113.693878 
L 147.137143 113.590453 
L 143.999244 110.938776 
L 143.125714 110.181699 
L 140.804551 108.183673 
L 140.717988 108.107368 
M 121.826313 90.371926 
L 120.423268 88.897959 
L 119.057143 87.443616 
L 117.833427 86.142857 
L 115.309793 83.387755 
L 115.045714 83.071157 
L 113.021108 80.632653 
L 111.034286 78.237774 
L 110.736787 77.877551 
L 108.81059 75.122449 
L 107.022857 72.519348 
L 106.919951 72.367347 
L 105.715157 69.612245 
L 105.294991 66.857143 
L 107.022857 64.98732 
L 111.034286 65.235052 
L 115.045714 66.384723 
L 116.162585 66.857143 
L 119.057143 68.017015 
L 122.624083 69.612245 
L 123.068571 69.800877 
L 127.08 71.820713 
L 128.075727 72.367347 
L 131.091429 73.959087 
L 133.158191 75.122449 
L 135.102857 76.176387 
L 138.056605 77.877551 
L 139.114286 78.464913 
L 142.800062 80.632653 
L 143.125714 80.817604 
L 147.137143 83.240852 
L 147.368782 83.387755 
L 151.148571 85.723963 
L 151.801132 86.142857 
L 155.16 88.24687 
L 156.163119 88.897959 
L 159.171429 90.805712 
L 160.463898 91.653061 
L 163.182857 93.396799 
L 164.711687 94.408163 
L 167.194286 96.016572 
L 168.913942 97.163265 
L 171.205714 98.661559 
L 173.077522 99.918367 
L 175.217143 101.328335 
L 177.208838 102.673469 
L 179.228571 104.01347 
L 181.313997 105.428571 
L 183.24 106.713479 
L 185.398945 108.183673 
L 187.251429 109.424768 
L 189.469611 110.938776 
L 191.262857 112.143574 
L 193.532063 113.693878 
L 195.274286 114.865903 
L 197.592678 116.44898 
L 199.285714 117.587463 
L 201.658337 119.204082 
L 203.297143 120.303591 
L 205.736663 121.959184 
L 207.308571 123.009187 
L 209.836312 124.714286 
L 211.32 125.698635 
L 213.967351 127.469388 
L 215.331429 128.365734 
L 218.141762 130.22449 
L 219.342857 131.003645 
L 222.374137 132.979592 
L 223.354286 133.604853 
L 226.682681 135.734694 
L 227.365714 136.161176 
L 231.0907 138.489796 
L 231.377143 138.663856 
L 235.388571 141.102857 
L 235.62182 141.244898 
L 239.4 143.46607 
" clip-path="url(#p039acc3231)" style="fill: none; stroke: #000000; stroke-width: 1.5"/>
    <path d="M 174.888984 144 
L 165.891529 138.489796 
L 157.567415 132.979592 
L 156.481857 132.226022 
M 135.644997 116.891633 
L 131.091429 113.297937 
L 121.433628 105.428571 
L 111.034286 96.579579 
L 102.338181 88.897959 
L 93.324487 80.632653 
L 84.635192 72.367347 
L 76.282157 64.102041 
L 68.301074 55.836735 
L 62.897143 49.997358 
L 56.015017 42.061224 
L 51.573585 36.55102 
L 47.563029 31.040816 
L 45.791137 28.285714 
L 44.226787 25.530612 
L 42.84 22.823804 
M 42.84 16.178107 
L 46.851429 14.966774 
L 50.862857 15.562888 
L 54.874286 16.658183 
L 62.897143 19.722298 
L 75.063308 25.530612 
L 82.954286 29.763728 
L 94.988571 36.606392 
L 107.022857 43.892012 
L 125.779241 55.836735 
L 135.102857 61.972543 
L 151.148571 72.82458 
L 171.205714 86.763239 
L 226.620346 125.780911 
L 226.620346 125.780911 
" clip-path="url(#p039acc3231)" style="fill: none; stroke: #000000; stroke-width: 1.5"/>
    <path d="M 160.519021 144 
L 151.495341 138.489796 
L 143.125714 132.976062 
L 135.102857 127.37562 
L 127.08 121.504757 
L 116.859029 113.693878 
L 109.823331 108.118555 
M 89.881952 91.56158 
L 78.942857 82.048826 
L 68.109825 72.367347 
L 54.874286 60.164748 
L 44.503478 50.326531 
L 42.84 48.719767 
M 74.043087 9 
L 80.334158 12.986616 
M 102.036542 27.158064 
L 115.045714 35.907767 
L 139.891537 53.081633 
L 159.171429 66.748513 
L 195.274286 92.892413 
L 220.119635 110.938776 
L 235.621827 121.959184 
L 239.4 124.587288 
L 239.4 124.587288 
" clip-path="url(#p039acc3231)" style="fill: none; stroke: #000000; stroke-width: 1.5"/>
    <path d="M 146.325025 144 
L 143.125714 142.090103 
L 141.709122 141.244898 
L 139.114286 139.626961 
L 137.28942 138.489796 
L 135.102857 137.075112 
L 133.029697 135.734694 
L 131.091429 134.440111 
L 128.903075 132.979592 
L 127.08 131.727709 
L 124.889062 130.22449 
L 123.068571 128.943491 
L 120.971675 127.469388 
L 119.057143 126.092702 
L 117.138201 124.714286 
L 115.045714 123.180193 
L 113.378362 121.959184 
L 111.034286 120.210404 
L 109.683723 119.204082 
L 107.022857 117.187393 
L 106.047269 116.44898 
L 103.011429 114.114859 
L 102.463098 113.693878 
L 101.102853 112.634269 
M 80.971665 96.451826 
L 78.942857 94.769492 
L 78.506189 94.408163 
L 75.210807 91.653061 
L 74.931429 91.417006 
L 71.942816 88.897959 
L 70.92 88.027953 
L 68.698341 86.142857 
L 66.908571 84.610979 
L 65.475853 83.387755 
L 62.897143 81.167804 
L 62.273942 80.632653 
L 59.092836 77.877551 
L 58.885714 77.696388 
L 55.934798 75.122449 
L 54.874286 74.190397 
L 52.794205 72.367347 
L 50.862857 70.66237 
L 49.669996 69.612245 
L 46.851429 67.113725 
L 46.561175 66.857143 
L 43.473067 64.102041 
L 42.84 63.532788 
M 93.60942 9 
L 94.988571 9.938631 
L 97.628002 11.755102 
L 99 12.693337 
L 101.628172 14.510204 
L 103.011429 15.460603 
L 105.610489 17.265306 
L 107.022857 18.240215 
L 109.575502 20.020408 
L 111.034286 21.031957 
L 112.498203 22.057247 
M 133.599054 36.954746 
L 135.102857 38.024455 
L 136.889879 39.306122 
L 139.114286 40.894603 
L 140.735043 42.061224 
L 143.125714 43.774905 
L 144.56749 44.816327 
L 147.137143 46.665056 
L 148.38773 47.571429 
L 151.148571 49.564726 
L 152.196287 50.326531 
L 155.16 52.47356 
L 155.993694 53.081633 
L 159.171429 55.391175 
L 159.780505 55.836735 
L 163.182857 58.317154 
L 163.557294 58.591837 
L 167.194286 61.251043 
L 167.324662 61.346939 
L 171.081991 64.102041 
L 171.205714 64.192449 
L 174.830055 66.857143 
L 175.217143 67.140736 
L 178.57099 69.612245 
L 179.228571 70.095154 
L 182.305547 72.367347 
L 183.24 73.055037 
L 186.034536 75.122449 
L 187.251429 76.01965 
L 189.75883 77.877551 
L 191.262857 78.988177 
L 193.479379 80.632653 
L 195.274286 81.959715 
L 197.197216 83.387755 
L 199.285714 84.933257 
L 200.913478 86.142857 
L 203.297143 87.907685 
L 204.629418 88.897959 
L 207.308571 90.88175 
L 208.34642 91.653061 
L 211.32 93.854061 
L 212.06603 94.408163 
L 215.331429 96.823064 
L 215.789973 97.163265 
L 219.342857 99.787022 
L 219.520187 99.918367 
L 223.258485 102.673469 
L 223.354286 102.743681 
L 227.00719 105.428571 
L 227.365714 105.690465 
L 230.769877 108.183673 
L 231.377143 108.625407 
L 234.549783 110.938776 
L 235.388571 111.545749 
L 238.350651 113.693878 
L 239.4 114.448399 
" clip-path="url(#p039acc3231)" style="fill: none; stroke: #000000; stroke-width: 1.5"/>
    <path d="M 132.217983 144 
L 131.091429 143.327987 
L 127.598069 141.244898 
L 127.08 140.922218 
L 123.173073 138.489796 
L 123.068571 138.422282 
L 119.057143 135.831755 
L 118.906785 135.734694 
L 115.045714 133.161863 
L 114.772045 132.979592 
L 111.034286 130.420285 
L 110.748175 130.22449 
L 107.022857 127.61216 
L 106.819129 127.469388 
L 103.011429 124.742398 
L 102.972148 124.714286 
L 99.197182 121.959184 
L 99 121.812684 
L 95.48568 119.204082 
L 94.988571 118.829053 
L 94.944803 118.796066 
M 74.520613 102.911881 
L 74.222075 102.673469 
L 70.92 100.009248 
L 70.807203 99.918367 
L 67.422531 97.163265 
L 66.908571 96.740941 
L 64.065011 94.408163 
L 62.897143 93.441634 
L 60.732375 91.653061 
L 58.885714 90.114606 
L 57.422828 88.897959 
L 54.874286 86.761681 
L 54.134745 86.142857 
L 50.866664 83.387755 
L 50.862857 83.384518 
L 47.620151 80.632653 
L 46.851429 79.97572 
L 44.391328 77.877551 
L 42.84 76.545623 
M 110.589057 9 
L 111.034286 9.314491 
L 114.4648 11.755102 
L 115.045714 12.166936 
L 118.328021 14.510204 
L 119.057143 15.028971 
L 122.179004 17.265306 
L 123.068571 17.900474 
L 126.018033 20.020408 
L 127.08 20.781317 
L 129.845396 22.77551 
L 131.091429 23.671361 
L 133.661382 25.530612 
L 135.102857 26.570458 
L 137.466288 28.285714 
L 139.114286 29.478445 
L 141.260414 31.040816 
L 143.125714 32.395149 
L 144.717742 33.557636 
M 165.575208 48.870334 
L 167.194286 50.06637 
L 167.544862 50.326531 
L 171.205714 53.037593 
L 171.264922 53.081633 
L 174.975881 55.836735 
L 175.217143 56.015454 
L 178.679622 58.591837 
L 179.228571 58.999391 
L 182.377076 61.346939 
L 183.24 61.988918 
L 186.068785 64.102041 
L 187.251429 64.983535 
L 189.755334 66.857143 
L 191.262857 67.982681 
L 193.437354 69.612245 
L 195.274286 70.98574 
L 197.115533 72.367347 
L 199.285714 73.992023 
L 200.79062 75.122449 
L 203.297143 77.000768 
L 204.463436 77.877551 
L 207.308571 80.011124 
L 208.134881 80.632653 
L 211.32 83.022149 
L 211.805948 83.387755 
L 215.331429 86.032793 
L 215.477735 86.142857 
L 219.15084 88.897959 
L 219.342857 89.041511 
L 222.826908 91.653061 
L 223.354286 92.046947 
L 226.507948 94.408163 
L 227.365714 95.047874 
L 230.195643 97.163265 
L 231.377143 98.042644 
L 233.891893 99.918367 
L 235.388571 101.029418 
L 237.598846 102.673469 
L 239.4 104.006136 
" clip-path="url(#p039acc3231)" style="fill: none; stroke: #000000; stroke-width: 1.5"/>
    <path d="M 118.159354 144 
L 115.045714 142.143946 
L 113.537142 141.244898 
L 111.034286 139.687551 
L 109.108803 138.489796 
L 107.022857 137.143962 
L 104.83789 135.734694 
L 103.011429 134.519119 
L 100.69735 132.979592 
L 99 131.819144 
L 96.666554 130.22449 
L 94.988571 129.049958 
L 92.729412 127.469388 
L 90.977143 126.217116 
L 88.873134 124.714286 
L 88.074945 124.133226 
M 67.461196 108.570953 
L 66.964193 108.183673 
L 66.908571 108.139834 
L 63.465187 105.428571 
L 62.897143 104.976645 
L 59.99914 102.673469 
L 58.885714 101.779999 
L 56.563227 99.918367 
L 54.874286 98.552309 
L 53.154955 97.163265 
L 50.862857 95.295788 
L 49.772111 94.408163 
L 46.851429 92.012472 
L 46.412719 91.653061 
L 43.075474 88.897959 
L 42.84 88.702071 
M 126.49387 9 
L 127.08 9.424016 
L 130.286516 11.755102 
L 131.091429 12.339133 
L 134.069296 14.510204 
L 135.102857 15.262351 
L 137.842404 17.265306 
L 139.114286 18.19357 
L 141.606039 20.020408 
L 143.125714 21.13268 
L 145.360407 22.77551 
L 147.137143 24.079559 
L 149.105724 25.530612 
L 151.148571 27.03407 
L 152.842214 28.285714 
L 155.16 29.996062 
L 156.570113 31.040816 
L 159.171429 32.965369 
L 160.289668 33.795918 
L 163.182857 35.941802 
L 164.001141 36.55102 
L 167.194286 38.925156 
L 167.704808 39.306122 
L 171.205714 41.9152 
L 171.400963 42.061224 
L 172.901706 43.182256 
M 193.559933 58.687908 
L 195.274286 59.979041 
L 197.085252 61.346939 
L 199.285714 63.006614 
L 200.734004 64.102041 
L 203.297143 66.037767 
L 204.37919 66.857143 
L 207.308571 69.07191 
L 208.021422 69.612245 
L 211.32 72.108389 
L 211.66137 72.367347 
L 215.29968 75.122449 
L 215.331429 75.146444 
L 218.936369 77.877551 
L 219.342857 78.184852 
L 222.573343 80.632653 
L 223.354286 81.223029 
L 226.211575 83.387755 
L 227.365714 84.259965 
L 229.852141 86.142857 
L 231.377143 87.294537 
L 233.496237 88.897959 
L 235.388571 90.325496 
L 237.145201 91.653061 
L 239.4 93.351447 
" clip-path="url(#p039acc3231)" style="fill: none; stroke: #000000; stroke-width: 1.5"/>
    <path d="M 104.130916 144 
L 103.011429 143.332924 
L 99.506655 141.244898 
L 99 140.929817 
L 95.075569 138.489796 
L 94.988571 138.433707 
L 90.977143 135.848062 
L 90.801223 135.734694 
L 86.965714 133.185132 
L 86.65642 132.979592 
L 82.954286 130.452308 
L 82.620458 130.22449 
L 81.567862 129.489034 
M 60.641944 114.19712 
L 59.978749 113.693878 
L 58.885714 112.854001 
L 56.391529 110.938776 
L 54.874286 109.76025 
L 52.843143 108.183673 
L 50.862857 106.630219 
L 49.329887 105.428571 
L 46.851429 103.466699 
L 45.848536 102.673469 
L 42.84 100.272233 
M 141.828315 9 
L 143.125714 9.95426 
L 145.565445 11.755102 
L 147.137143 12.914083 
L 149.294176 14.510204 
L 151.148571 15.881104 
L 153.014667 17.265306 
L 155.16 18.855221 
L 156.727089 20.020408 
L 159.171429 21.836321 
L 160.431619 22.77551 
L 163.182857 24.824277 
L 164.128445 25.530612 
L 167.194286 27.818948 
L 167.817768 28.285714 
L 171.205714 30.820174 
L 171.4998 31.040816 
L 175.174594 33.795918 
L 175.217143 33.827794 
L 178.841418 36.55102 
L 179.228571 36.84168 
L 180.916703 38.11269 
M 201.591969 53.745307 
L 203.297143 55.039262 
L 204.345637 55.836735 
L 207.308571 58.088212 
L 207.969876 58.591837 
L 211.32 61.140651 
L 211.590567 61.346939 
L 215.207931 64.102041 
L 215.331429 64.195989 
L 218.822253 66.857143 
L 219.342857 67.253497 
L 222.434814 69.612245 
L 223.354286 70.312688 
L 226.046273 72.367347 
L 227.365714 73.372858 
L 229.657355 75.122449 
L 231.377143 76.433228 
L 233.268856 77.877551 
L 235.388571 79.492932 
L 236.881656 80.632653 
L 239.4 82.551011 
" clip-path="url(#p039acc3231)" style="fill: none; stroke: #000000; stroke-width: 1.5"/>
    <path d="M 90.122364 144 
L 86.965714 142.119762 
L 85.496745 141.244898 
L 82.954286 139.664672 
L 81.063702 138.489796 
L 78.942857 137.123494 
L 76.786682 135.734694 
L 75.31323 134.75594 
M 54.186935 119.89968 
L 53.242577 119.204082 
L 50.862857 117.425198 
L 49.556332 116.44898 
L 46.851429 114.400769 
L 45.917447 113.693878 
L 42.84 111.336252 
M 156.817149 9 
L 159.171429 10.752853 
L 160.513982 11.755102 
L 163.182857 13.746702 
L 164.203347 14.510204 
L 167.194286 16.74712 
L 167.885392 17.265306 
L 171.205714 19.753997 
L 171.560276 20.020408 
L 175.217143 22.76721 
L 175.228167 22.77551 
L 178.888155 25.530612 
L 179.228571 25.786762 
L 182.541574 28.285714 
L 183.24 28.81232 
L 186.188664 31.040816 
L 187.251429 31.843703 
L 188.996488 33.165056 
M 209.55873 48.797782 
L 211.32 50.141833 
L 211.56158 50.326531 
L 215.167087 53.081633 
L 215.331429 53.207132 
L 218.768516 55.836735 
L 219.342857 56.27583 
L 222.366816 58.591837 
L 223.354286 59.347531 
L 225.96245 61.346939 
L 227.365714 62.421738 
L 229.555925 64.102041 
L 231.377143 65.4979 
L 233.147794 66.857143 
L 235.388571 68.575411 
L 236.738661 69.612245 
L 239.4 71.653596 
" clip-path="url(#p039acc3231)" style="fill: none; stroke: #000000; stroke-width: 1.5"/>
    <path d="M 76.127769 144 
L 74.931429 143.287572 
L 71.500905 141.244898 
L 70.92 140.883966 
L 69.500819 140.002305 
M 48.011395 125.598484 
L 46.851429 124.773334 
L 46.768399 124.714286 
L 42.96363 121.959184 
L 42.84 121.868202 
M 171.577965 9 
L 175.217143 11.734919 
L 175.243944 11.755102 
L 178.902223 14.510204 
L 179.228571 14.755964 
L 182.553823 17.265306 
L 183.24 17.783081 
L 186.198975 20.020408 
L 187.251429 20.816134 
L 189.837842 22.77551 
L 191.262857 23.854984 
L 193.4706 25.530612 
L 195.274286 26.899481 
L 197.017333 28.224808 
M 217.583892 43.926126 
L 218.745514 44.816327 
L 219.342857 45.273967 
L 222.33687 47.571429 
L 223.354286 48.351887 
L 225.924489 50.326531 
L 227.365714 51.433371 
L 229.508735 53.081633 
L 231.377143 54.518029 
L 233.090004 55.836735 
L 235.388571 57.605427 
L 236.668726 58.591837 
L 239.4 60.695088 
" clip-path="url(#p039acc3231)" style="fill: none; stroke: #000000; stroke-width: 1.5"/>
    <path d="M 62.143216 144 
L 58.885714 142.060623 
L 57.515454 141.244898 
L 54.874286 139.604463 
L 53.079442 138.489796 
L 50.862857 137.063154 
L 48.798563 135.734694 
L 46.851429 134.442844 
L 44.645625 132.979592 
L 42.84 131.749865 
M 186.176975 9 
L 187.251429 9.812074 
L 189.817784 11.755102 
L 191.262857 12.8494 
L 193.452315 14.510204 
L 195.274286 15.892518 
L 197.080712 17.265306 
L 199.285714 18.941308 
L 200.703127 20.020408 
L 201.268879 20.451203 
M 221.787189 36.141546 
L 222.320598 36.55102 
L 223.354286 37.344547 
L 225.905969 39.306122 
L 227.365714 40.428255 
L 229.487117 42.061224 
L 231.377143 43.515986 
L 233.064333 44.816327 
L 235.388571 46.607428 
L 236.637932 47.571429 
L 239.4 49.702238 
" clip-path="url(#p039acc3231)" style="fill: none; stroke: #000000; stroke-width: 1.5"/>
    <path d="M 48.166253 144 
L 46.851429 143.217331 
L 43.537654 141.244898 
L 42.84 140.811681 
M 200.659934 9 
L 203.297143 11.005772 
L 204.280985 11.755102 
L 207.308571 14.061913 
L 207.896126 14.510204 
L 209.030539 15.376063 
M 229.638722 31.171095 
L 231.377143 32.508927 
L 233.047494 33.795918 
L 235.388571 35.600028 
L 236.621177 36.55102 
L 239.4 38.695271 
" clip-path="url(#p039acc3231)" style="fill: none; stroke: #000000; stroke-width: 1.5"/>
    <path d="M 215.055582 9 
L 215.331429 9.210633 
L 218.659639 11.755102 
L 219.342857 12.277691 
L 222.25812 14.510204 
L 223.354286 15.350052 
L 225.851171 17.265306 
L 227.365714 18.427585 
L 229.438947 20.020408 
L 231.377143 21.510144 
L 233.021614 22.77551 
L 235.388571 24.597567 
L 236.59935 25.530612 
L 239.4 27.689677 
" clip-path="url(#p039acc3231)" style="fill: none; stroke: #000000; stroke-width: 1.5"/>
    <path d="M 229.382452 9 
L 231.377143 10.530016 
L 232.972675 11.755102 
L 235.388571 13.611198 
L 236.55756 14.510204 
L 239.4 16.697443 
" clip-path="url(#p039acc3231)" style="fill: none; stroke: #000000; stroke-width: 1.5"/>
    <path clip-path="url(#p039acc3231)" style="fill: none; stroke: #000000; stroke-width: 1.5"/>
   </g>
   <g id="line2d_10">
    <defs>
     <path id="m34630f3d2d" d="M 0 3 
C 0.795609 3 1.55874 2.683901 2.12132 2.12132 
C 2.683901 1.55874 3 0.795609 3 0 
C 3 -0.795609 2.683901 -1.55874 2.12132 -2.12132 
C 1.55874 -2.683901 0.795609 -3 0 -3 
C -0.795609 -3 -1.55874 -2.683901 -2.12132 -2.12132 
C -2.683901 -1.55874 -3 -0.795609 -3 0 
C -3 0.795609 -2.683901 1.55874 -2.12132 2.12132 
C -1.55874 2.683901 -0.795609 3 0 3 
z
" style="stroke: #000000"/>
    </defs>
    <g clip-path="url(#p039acc3231)">
     <use xlink:href="#m34630f3d2d" x="204.754696" y="137.738043" style="stroke: #000000"/>
    </g>
   </g>
   <g id="patch_3">
    <path d="M 42.84 144 
L 42.84 9 
" style="fill: none; stroke: #000000; stroke-width: 0.8; stroke-linejoin: miter; stroke-linecap: square"/>
   </g>
   <g id="patch_4">
    <path d="M 239.4 144 
L 239.4 9 
" style="fill: none; stroke: #000000; stroke-width: 0.8; stroke-linejoin: miter; stroke-linecap: square"/>
   </g>
   <g id="patch_5">
    <path d="M 42.84 144 
L 239.4 144 
" style="fill: none; stroke: #000000; stroke-width: 0.8; stroke-linejoin: miter; stroke-linecap: square"/>
   </g>
   <g id="patch_6">
    <path d="M 42.84 9 
L 239.4 9 
" style="fill: none; stroke: #000000; stroke-width: 0.8; stroke-linejoin: miter; stroke-linecap: square"/>
   </g>
   <g id="text_12">
    <g clip-path="url(#p039acc3231)">
     <!-- 0.25 -->
     <g transform="translate(175.94306 126.12308) rotate(-355.700023) scale(0.1 -0.1)">
      <use xlink:href="#DejaVuSans-30"/>
      <use xlink:href="#DejaVuSans-2e" transform="translate(63.623047 0)"/>
      <use xlink:href="#DejaVuSans-32" transform="translate(95.410156 0)"/>
      <use xlink:href="#DejaVuSans-35" transform="translate(159.033203 0)"/>
     </g>
    </g>
   </g>
   <g id="text_13">
    <g clip-path="url(#p039acc3231)">
     <!-- 0.50 -->
     <g transform="translate(121.075315 93.843218) rotate(-316.919936) scale(0.1 -0.1)">
      <use xlink:href="#DejaVuSans-30"/>
      <use xlink:href="#DejaVuSans-2e" transform="translate(63.623047 0)"/>
      <use xlink:href="#DejaVuSans-35" transform="translate(95.410156 0)"/>
      <use xlink:href="#DejaVuSans-30" transform="translate(159.033203 0)"/>
     </g>
    </g>
   </g>
   <g id="text_14">
    <g clip-path="url(#p039acc3231)">
     <!-- 0.75 -->
     <g transform="translate(135.348271 120.335381) rotate(-323.635204) scale(0.1 -0.1)">
      <defs>
       <path id="DejaVuSans-37" d="M 525 4666 
L 3525 4666 
L 3525 4397 
L 1831 0 
L 1172 0 
L 2766 4134 
L 525 4134 
L 525 4666 
z
" transform="scale(0.015625)"/>
      </defs>
      <use xlink:href="#DejaVuSans-30"/>
      <use xlink:href="#DejaVuSans-2e" transform="translate(63.623047 0)"/>
      <use xlink:href="#DejaVuSans-37" transform="translate(95.410156 0)"/>
      <use xlink:href="#DejaVuSans-35" transform="translate(159.033203 0)"/>
     </g>
    </g>
   </g>
   <g id="text_15">
    <g clip-path="url(#p039acc3231)">
     <!-- 0.75 -->
     <g transform="translate(226.569192 129.11971) rotate(-326.413691) scale(0.1 -0.1)">
      <use xlink:href="#DejaVuSans-30"/>
      <use xlink:href="#DejaVuSans-2e" transform="translate(63.623047 0)"/>
      <use xlink:href="#DejaVuSans-37" transform="translate(95.410156 0)"/>
      <use xlink:href="#DejaVuSans-35" transform="translate(159.033203 0)"/>
     </g>
    </g>
   </g>
   <g id="text_16">
    <g clip-path="url(#p039acc3231)">
     <!-- 1.00 -->
     <g transform="translate(89.460274 94.928504) rotate(-320.290888) scale(0.1 -0.1)">
      <use xlink:href="#DejaVuSans-31"/>
      <use xlink:href="#DejaVuSans-2e" transform="translate(63.623047 0)"/>
      <use xlink:href="#DejaVuSans-30" transform="translate(95.410156 0)"/>
      <use xlink:href="#DejaVuSans-30" transform="translate(159.033203 0)"/>
     </g>
    </g>
   </g>
   <g id="text_17">
    <g clip-path="url(#p039acc3231)">
     <!-- 1.00 -->
     <g transform="translate(80.389564 16.242618) rotate(-326.848585) scale(0.1 -0.1)">
      <use xlink:href="#DejaVuSans-31"/>
      <use xlink:href="#DejaVuSans-2e" transform="translate(63.623047 0)"/>
      <use xlink:href="#DejaVuSans-30" transform="translate(95.410156 0)"/>
      <use xlink:href="#DejaVuSans-30" transform="translate(159.033203 0)"/>
     </g>
    </g>
   </g>
   <g id="text_18">
    <g clip-path="url(#p039acc3231)">
     <!-- 1.25 -->
     <g transform="translate(80.572155 99.791923) rotate(-321.196783) scale(0.1 -0.1)">
      <use xlink:href="#DejaVuSans-31"/>
      <use xlink:href="#DejaVuSans-2e" transform="translate(63.623047 0)"/>
      <use xlink:href="#DejaVuSans-32" transform="translate(95.410156 0)"/>
      <use xlink:href="#DejaVuSans-35" transform="translate(159.033203 0)"/>
     </g>
    </g>
   </g>
   <g id="text_19">
    <g clip-path="url(#p039acc3231)">
     <!-- 1.25 -->
     <g transform="translate(112.382406 25.311269) rotate(-324.778703) scale(0.1 -0.1)">
      <use xlink:href="#DejaVuSans-31"/>
      <use xlink:href="#DejaVuSans-2e" transform="translate(63.623047 0)"/>
      <use xlink:href="#DejaVuSans-32" transform="translate(95.410156 0)"/>
      <use xlink:href="#DejaVuSans-35" transform="translate(159.033203 0)"/>
     </g>
    </g>
   </g>
   <g id="text_20">
    <g clip-path="url(#p039acc3231)">
     <!-- 1.50 -->
     <g transform="translate(74.185496 106.280883) rotate(-322.118861) scale(0.1 -0.1)">
      <use xlink:href="#DejaVuSans-31"/>
      <use xlink:href="#DejaVuSans-2e" transform="translate(63.623047 0)"/>
      <use xlink:href="#DejaVuSans-35" transform="translate(95.410156 0)"/>
      <use xlink:href="#DejaVuSans-30" transform="translate(159.033203 0)"/>
     </g>
    </g>
   </g>
   <g id="text_21">
    <g clip-path="url(#p039acc3231)">
     <!-- 1.50 -->
     <g transform="translate(144.553192 36.831011) rotate(-323.712773) scale(0.1 -0.1)">
      <use xlink:href="#DejaVuSans-31"/>
      <use xlink:href="#DejaVuSans-2e" transform="translate(63.623047 0)"/>
      <use xlink:href="#DejaVuSans-35" transform="translate(95.410156 0)"/>
      <use xlink:href="#DejaVuSans-30" transform="translate(159.033203 0)"/>
     </g>
    </g>
   </g>
   <g id="text_22">
    <g clip-path="url(#p039acc3231)">
     <!-- 1.75 -->
     <g transform="translate(67.148083 111.941593) rotate(-322.93902) scale(0.1 -0.1)">
      <use xlink:href="#DejaVuSans-31"/>
      <use xlink:href="#DejaVuSans-2e" transform="translate(63.623047 0)"/>
      <use xlink:href="#DejaVuSans-37" transform="translate(95.410156 0)"/>
      <use xlink:href="#DejaVuSans-35" transform="translate(159.033203 0)"/>
     </g>
    </g>
   </g>
   <g id="text_23">
    <g clip-path="url(#p039acc3231)">
     <!-- 1.75 -->
     <g transform="translate(172.679803 46.446701) rotate(-323.108608) scale(0.1 -0.1)">
      <use xlink:href="#DejaVuSans-31"/>
      <use xlink:href="#DejaVuSans-2e" transform="translate(63.623047 0)"/>
      <use xlink:href="#DejaVuSans-37" transform="translate(95.410156 0)"/>
      <use xlink:href="#DejaVuSans-35" transform="translate(159.033203 0)"/>
     </g>
    </g>
   </g>
   <g id="text_24">
    <g clip-path="url(#p039acc3231)">
     <!-- 2.00 -->
     <g transform="translate(60.404638 117.61585) rotate(-323.827327) scale(0.1 -0.1)">
      <use xlink:href="#DejaVuSans-32"/>
      <use xlink:href="#DejaVuSans-2e" transform="translate(63.623047 0)"/>
      <use xlink:href="#DejaVuSans-30" transform="translate(95.410156 0)"/>
      <use xlink:href="#DejaVuSans-30" transform="translate(159.033203 0)"/>
     </g>
    </g>
   </g>
   <g id="text_25">
    <g clip-path="url(#p039acc3231)">
     <!-- 2.00 -->
     <g transform="translate(180.718524 41.404337) rotate(-322.906398) scale(0.1 -0.1)">
      <use xlink:href="#DejaVuSans-32"/>
      <use xlink:href="#DejaVuSans-2e" transform="translate(63.623047 0)"/>
      <use xlink:href="#DejaVuSans-30" transform="translate(95.410156 0)"/>
      <use xlink:href="#DejaVuSans-30" transform="translate(159.033203 0)"/>
     </g>
    </g>
   </g>
   <g id="text_26">
    <g clip-path="url(#p039acc3231)">
     <!-- 2.25 -->
     <g transform="translate(53.958347 123.318752) rotate(-324.863611) scale(0.1 -0.1)">
      <use xlink:href="#DejaVuSans-32"/>
      <use xlink:href="#DejaVuSans-2e" transform="translate(63.623047 0)"/>
      <use xlink:href="#DejaVuSans-32" transform="translate(95.410156 0)"/>
      <use xlink:href="#DejaVuSans-35" transform="translate(159.033203 0)"/>
     </g>
    </g>
   </g>
   <g id="text_27">
    <g clip-path="url(#p039acc3231)">
     <!-- 2.25 -->
     <g transform="translate(188.753378 36.42944) rotate(-322.754564) scale(0.1 -0.1)">
      <use xlink:href="#DejaVuSans-32"/>
      <use xlink:href="#DejaVuSans-2e" transform="translate(63.623047 0)"/>
      <use xlink:href="#DejaVuSans-32" transform="translate(95.410156 0)"/>
      <use xlink:href="#DejaVuSans-35" transform="translate(159.033203 0)"/>
     </g>
    </g>
   </g>
   <g id="text_28">
    <g clip-path="url(#p039acc3231)">
     <!-- 2.50 -->
     <g transform="translate(47.854422 129.067337) rotate(-326.135615) scale(0.1 -0.1)">
      <use xlink:href="#DejaVuSans-32"/>
      <use xlink:href="#DejaVuSans-2e" transform="translate(63.623047 0)"/>
      <use xlink:href="#DejaVuSans-35" transform="translate(95.410156 0)"/>
      <use xlink:href="#DejaVuSans-30" transform="translate(159.033203 0)"/>
     </g>
    </g>
   </g>
   <g id="text_29">
    <g clip-path="url(#p039acc3231)">
     <!-- 2.50 -->
     <g transform="translate(196.785357 31.502627) rotate(-322.639745) scale(0.1 -0.1)">
      <use xlink:href="#DejaVuSans-32"/>
      <use xlink:href="#DejaVuSans-2e" transform="translate(63.623047 0)"/>
      <use xlink:href="#DejaVuSans-35" transform="translate(95.410156 0)"/>
      <use xlink:href="#DejaVuSans-30" transform="translate(159.033203 0)"/>
     </g>
    </g>
   </g>
   <g id="text_30">
    <g clip-path="url(#p039acc3231)">
     <!-- 2.75 -->
     <g transform="translate(201.016617 23.714899) rotate(-322.594) scale(0.1 -0.1)">
      <use xlink:href="#DejaVuSans-32"/>
      <use xlink:href="#DejaVuSans-2e" transform="translate(63.623047 0)"/>
      <use xlink:href="#DejaVuSans-37" transform="translate(95.410156 0)"/>
      <use xlink:href="#DejaVuSans-35" transform="translate(159.033203 0)"/>
     </g>
    </g>
   </g>
   <g id="text_31">
    <g clip-path="url(#p039acc3231)">
     <!-- 3.00 -->
     <g transform="translate(208.828305 18.680504) rotate(-322.531209) scale(0.1 -0.1)">
      <defs>
       <path id="DejaVuSans-33" d="M 2597 2516 
Q 3050 2419 3304 2112 
Q 3559 1806 3559 1356 
Q 3559 666 3084 287 
Q 2609 -91 1734 -91 
Q 1441 -91 1130 -33 
Q 819 25 488 141 
L 488 750 
Q 750 597 1062 519 
Q 1375 441 1716 441 
Q 2309 441 2620 675 
Q 2931 909 2931 1356 
Q 2931 1769 2642 2001 
Q 2353 2234 1838 2234 
L 1294 2234 
L 1294 2753 
L 1863 2753 
Q 2328 2753 2575 2939 
Q 2822 3125 2822 3475 
Q 2822 3834 2567 4026 
Q 2313 4219 1838 4219 
Q 1578 4219 1281 4162 
Q 984 4106 628 3988 
L 628 4550 
Q 988 4650 1302 4700 
Q 1616 4750 1894 4750 
Q 2613 4750 3031 4423 
Q 3450 4097 3450 3541 
Q 3450 3153 3228 2886 
Q 3006 2619 2597 2516 
z
" transform="scale(0.015625)"/>
      </defs>
      <use xlink:href="#DejaVuSans-33"/>
      <use xlink:href="#DejaVuSans-2e" transform="translate(63.623047 0)"/>
      <use xlink:href="#DejaVuSans-30" transform="translate(95.410156 0)"/>
      <use xlink:href="#DejaVuSans-30" transform="translate(159.033203 0)"/>
     </g>
    </g>
   </g>
  </g>
 </g>
 <defs>
  <clipPath id="p039acc3231">
   <rect x="42.84" y="9" width="196.56" height="135"/>
  </clipPath>
 </defs>
</svg>
