<?xml version="1.0" encoding="utf-8" standalone="no"?>
<!DOCTYPE svg PUBLIC "-//W3C//DTD SVG 1.1//EN"
  "http://www.w3.org/Graphics/SVG/1.1/DTD/svg11.dtd">
<svg xmlns:xlink="http://www.w3.org/1999/xlink" width="309.6pt" height="338.4pt" viewBox="0 0 309.6 338.4" xmlns="http://www.w3.org/2000/svg" version="1.1">
 <metadata>
  <rdf:RDF xmlns:dc="http://purl.org/dc/elements/1.1/" xmlns:cc="http://creativecommons.org/ns#" xmlns:rdf="http://www.w3.org/1999/02/22-rdf-syntax-ns#">
   <cc:Work>
    <dc:type rdf:resource="http://purl.org/dc/dcmitype/StillImage"/>
    <dc:date>2026-01-20T20:39:59.810427</dc:date>
    <dc:format>image/svg+xml</dc:format>
    <dc:creator>
     <cc:Agent>
      <dc:title>Matplotlib v3.10.8, https://matplotlib.org/</dc:title>
     </cc:Agent>
    </dc:creator>
   </cc:Work>
  </rdf:RDF>
 </metadata>
 <defs>
  <style type="text/css">*{stroke-linejoin: round; stroke-linecap: butt}</style>
 </defs>
 <g id="figure_1">
  <g id="patch_1">
   <path d="M 0 338.4 
L 309.6 338.4 
L 309.6 0 
L 0 0 
z
" style="fill: #ffffff"/>
  </g>
  <g id="axes_1">
   <g id="patch_2">
    <path d="M 52.632 152.606957 
L 294.12 152.606957 
L 294.12 16.92 
L 52.632 16.92 
z
" style="fill: #ffffff"/>
   </g>
   <g id="matplotlib.axis_1">
    <g id="xtick_1">
     <g id="line2d_1">
      <defs>
       <path id="m9c4e94bcb4" d="M 0 0 
L 0 3.5 
" style="stroke: #000000; stroke-width: 0.8"/>
      </defs>
      <g>
       <use xlink:href="#m9c4e94bcb4" x="52.632" y="152.606957" style="stroke: #000000; stroke-width: 0.8"/>
      </g>
     </g>
    </g>
    <g id="xtick_2">
     <g id="line2d_2">
      <g>
       <use xlink:href="#m9c4e94bcb4" x="97.727224" y="152.606957" style="stroke: #000000; stroke-width: 0.8"/>
      </g>
     </g>
    </g>
    <g id="xtick_3">
     <g id="line2d_3">
      <g>
       <use xlink:href="#m9c4e94bcb4" x="142.822448" y="152.606957" style="stroke: #000000; stroke-width: 0.8"/>
      </g>
     </g>
    </g>
    <g id="xtick_4">
     <g id="line2d_4">
      <g>
       <use xlink:href="#m9c4e94bcb4" x="187.917672" y="152.606957" style="stroke: #000000; stroke-width: 0.8"/>
      </g>
     </g>
    </g>
    <g id="xtick_5">
     <g id="line2d_5">
      <g>
       <use xlink:href="#m9c4e94bcb4" x="233.012896" y="152.606957" style="stroke: #000000; stroke-width: 0.8"/>
      </g>
     </g>
    </g>
    <g id="xtick_6">
     <g id="line2d_6">
      <g>
       <use xlink:href="#m9c4e94bcb4" x="278.10812" y="152.606957" style="stroke: #000000; stroke-width: 0.8"/>
      </g>
     </g>
    </g>
    <g id="xtick_7">
     <g id="line2d_7">
      <defs>
       <path id="mac8dd1268f" d="M 0 0 
L 0 2 
" style="stroke: #000000; stroke-width: 0.6"/>
      </defs>
      <g>
       <use xlink:href="#mac8dd1268f" x="66.207015" y="152.606957" style="stroke: #000000; stroke-width: 0.6"/>
      </g>
     </g>
    </g>
    <g id="xtick_8">
     <g id="line2d_8">
      <g>
       <use xlink:href="#mac8dd1268f" x="74.14789" y="152.606957" style="stroke: #000000; stroke-width: 0.6"/>
      </g>
     </g>
    </g>
    <g id="xtick_9">
     <g id="line2d_9">
      <g>
       <use xlink:href="#mac8dd1268f" x="79.78203" y="152.606957" style="stroke: #000000; stroke-width: 0.6"/>
      </g>
     </g>
    </g>
    <g id="xtick_10">
     <g id="line2d_10">
      <g>
       <use xlink:href="#mac8dd1268f" x="84.152209" y="152.606957" style="stroke: #000000; stroke-width: 0.6"/>
      </g>
     </g>
    </g>
    <g id="xtick_11">
     <g id="line2d_11">
      <g>
       <use xlink:href="#mac8dd1268f" x="87.722905" y="152.606957" style="stroke: #000000; stroke-width: 0.6"/>
      </g>
     </g>
    </g>
    <g id="xtick_12">
     <g id="line2d_12">
      <g>
       <use xlink:href="#mac8dd1268f" x="90.741885" y="152.606957" style="stroke: #000000; stroke-width: 0.6"/>
      </g>
     </g>
    </g>
    <g id="xtick_13">
     <g id="line2d_13">
      <g>
       <use xlink:href="#mac8dd1268f" x="93.357045" y="152.606957" style="stroke: #000000; stroke-width: 0.6"/>
      </g>
     </g>
    </g>
    <g id="xtick_14">
     <g id="line2d_14">
      <g>
       <use xlink:href="#mac8dd1268f" x="95.66378" y="152.606957" style="stroke: #000000; stroke-width: 0.6"/>
      </g>
     </g>
    </g>
    <g id="xtick_15">
     <g id="line2d_15">
      <g>
       <use xlink:href="#mac8dd1268f" x="111.302239" y="152.606957" style="stroke: #000000; stroke-width: 0.6"/>
      </g>
     </g>
    </g>
    <g id="xtick_16">
     <g id="line2d_16">
      <g>
       <use xlink:href="#mac8dd1268f" x="119.243114" y="152.606957" style="stroke: #000000; stroke-width: 0.6"/>
      </g>
     </g>
    </g>
    <g id="xtick_17">
     <g id="line2d_17">
      <g>
       <use xlink:href="#mac8dd1268f" x="124.877254" y="152.606957" style="stroke: #000000; stroke-width: 0.6"/>
      </g>
     </g>
    </g>
    <g id="xtick_18">
     <g id="line2d_18">
      <g>
       <use xlink:href="#mac8dd1268f" x="129.247433" y="152.606957" style="stroke: #000000; stroke-width: 0.6"/>
      </g>
     </g>
    </g>
    <g id="xtick_19">
     <g id="line2d_19">
      <g>
       <use xlink:href="#mac8dd1268f" x="132.818129" y="152.606957" style="stroke: #000000; stroke-width: 0.6"/>
      </g>
     </g>
    </g>
    <g id="xtick_20">
     <g id="line2d_20">
      <g>
       <use xlink:href="#mac8dd1268f" x="135.837109" y="152.606957" style="stroke: #000000; stroke-width: 0.6"/>
      </g>
     </g>
    </g>
    <g id="xtick_21">
     <g id="line2d_21">
      <g>
       <use xlink:href="#mac8dd1268f" x="138.452269" y="152.606957" style="stroke: #000000; stroke-width: 0.6"/>
      </g>
     </g>
    </g>
    <g id="xtick_22">
     <g id="line2d_22">
      <g>
       <use xlink:href="#mac8dd1268f" x="140.759004" y="152.606957" style="stroke: #000000; stroke-width: 0.6"/>
      </g>
     </g>
    </g>
    <g id="xtick_23">
     <g id="line2d_23">
      <g>
       <use xlink:href="#mac8dd1268f" x="156.397463" y="152.606957" style="stroke: #000000; stroke-width: 0.6"/>
      </g>
     </g>
    </g>
    <g id="xtick_24">
     <g id="line2d_24">
      <g>
       <use xlink:href="#mac8dd1268f" x="164.338338" y="152.606957" style="stroke: #000000; stroke-width: 0.6"/>
      </g>
     </g>
    </g>
    <g id="xtick_25">
     <g id="line2d_25">
      <g>
       <use xlink:href="#mac8dd1268f" x="169.972478" y="152.606957" style="stroke: #000000; stroke-width: 0.6"/>
      </g>
     </g>
    </g>
    <g id="xtick_26">
     <g id="line2d_26">
      <g>
       <use xlink:href="#mac8dd1268f" x="174.342657" y="152.606957" style="stroke: #000000; stroke-width: 0.6"/>
      </g>
     </g>
    </g>
    <g id="xtick_27">
     <g id="line2d_27">
      <g>
       <use xlink:href="#mac8dd1268f" x="177.913353" y="152.606957" style="stroke: #000000; stroke-width: 0.6"/>
      </g>
     </g>
    </g>
    <g id="xtick_28">
     <g id="line2d_28">
      <g>
       <use xlink:href="#mac8dd1268f" x="180.932333" y="152.606957" style="stroke: #000000; stroke-width: 0.6"/>
      </g>
     </g>
    </g>
    <g id="xtick_29">
     <g id="line2d_29">
      <g>
       <use xlink:href="#mac8dd1268f" x="183.547493" y="152.606957" style="stroke: #000000; stroke-width: 0.6"/>
      </g>
     </g>
    </g>
    <g id="xtick_30">
     <g id="line2d_30">
      <g>
       <use xlink:href="#mac8dd1268f" x="185.854228" y="152.606957" style="stroke: #000000; stroke-width: 0.6"/>
      </g>
     </g>
    </g>
    <g id="xtick_31">
     <g id="line2d_31">
      <g>
       <use xlink:href="#mac8dd1268f" x="201.492687" y="152.606957" style="stroke: #000000; stroke-width: 0.6"/>
      </g>
     </g>
    </g>
    <g id="xtick_32">
     <g id="line2d_32">
      <g>
       <use xlink:href="#mac8dd1268f" x="209.433562" y="152.606957" style="stroke: #000000; stroke-width: 0.6"/>
      </g>
     </g>
    </g>
    <g id="xtick_33">
     <g id="line2d_33">
      <g>
       <use xlink:href="#mac8dd1268f" x="215.067702" y="152.606957" style="stroke: #000000; stroke-width: 0.6"/>
      </g>
     </g>
    </g>
    <g id="xtick_34">
     <g id="line2d_34">
      <g>
       <use xlink:href="#mac8dd1268f" x="219.437881" y="152.606957" style="stroke: #000000; stroke-width: 0.6"/>
      </g>
     </g>
    </g>
    <g id="xtick_35">
     <g id="line2d_35">
      <g>
       <use xlink:href="#mac8dd1268f" x="223.008577" y="152.606957" style="stroke: #000000; stroke-width: 0.6"/>
      </g>
     </g>
    </g>
    <g id="xtick_36">
     <g id="line2d_36">
      <g>
       <use xlink:href="#mac8dd1268f" x="226.027557" y="152.606957" style="stroke: #000000; stroke-width: 0.6"/>
      </g>
     </g>
    </g>
    <g id="xtick_37">
     <g id="line2d_37">
      <g>
       <use xlink:href="#mac8dd1268f" x="228.642717" y="152.606957" style="stroke: #000000; stroke-width: 0.6"/>
      </g>
     </g>
    </g>
    <g id="xtick_38">
     <g id="line2d_38">
      <g>
       <use xlink:href="#mac8dd1268f" x="230.949451" y="152.606957" style="stroke: #000000; stroke-width: 0.6"/>
      </g>
     </g>
    </g>
    <g id="xtick_39">
     <g id="line2d_39">
      <g>
       <use xlink:href="#mac8dd1268f" x="246.587911" y="152.606957" style="stroke: #000000; stroke-width: 0.6"/>
      </g>
     </g>
    </g>
    <g id="xtick_40">
     <g id="line2d_40">
      <g>
       <use xlink:href="#mac8dd1268f" x="254.528786" y="152.606957" style="stroke: #000000; stroke-width: 0.6"/>
      </g>
     </g>
    </g>
    <g id="xtick_41">
     <g id="line2d_41">
      <g>
       <use xlink:href="#mac8dd1268f" x="260.162926" y="152.606957" style="stroke: #000000; stroke-width: 0.6"/>
      </g>
     </g>
    </g>
    <g id="xtick_42">
     <g id="line2d_42">
      <g>
       <use xlink:href="#mac8dd1268f" x="264.533105" y="152.606957" style="stroke: #000000; stroke-width: 0.6"/>
      </g>
     </g>
    </g>
    <g id="xtick_43">
     <g id="line2d_43">
      <g>
       <use xlink:href="#mac8dd1268f" x="268.103801" y="152.606957" style="stroke: #000000; stroke-width: 0.6"/>
      </g>
     </g>
    </g>
    <g id="xtick_44">
     <g id="line2d_44">
      <g>
       <use xlink:href="#mac8dd1268f" x="271.122781" y="152.606957" style="stroke: #000000; stroke-width: 0.6"/>
      </g>
     </g>
    </g>
    <g id="xtick_45">
     <g id="line2d_45">
      <g>
       <use xlink:href="#mac8dd1268f" x="273.737941" y="152.606957" style="stroke: #000000; stroke-width: 0.6"/>
      </g>
     </g>
    </g>
    <g id="xtick_46">
     <g id="line2d_46">
      <g>
       <use xlink:href="#mac8dd1268f" x="276.044675" y="152.606957" style="stroke: #000000; stroke-width: 0.6"/>
      </g>
     </g>
    </g>
    <g id="xtick_47">
     <g id="line2d_47">
      <g>
       <use xlink:href="#mac8dd1268f" x="291.683135" y="152.606957" style="stroke: #000000; stroke-width: 0.6"/>
      </g>
     </g>
    </g>
   </g>
   <g id="matplotlib.axis_2">
    <g id="ytick_1">
     <g id="line2d_48">
      <defs>
       <path id="me16bbf4d40" d="M 0 0 
L -3.5 0 
" style="stroke: #000000; stroke-width: 0.8"/>
      </defs>
      <g>
       <use xlink:href="#me16bbf4d40" x="52.632" y="152.606957" style="stroke: #000000; stroke-width: 0.8"/>
      </g>
     </g>
     <g id="text_1">
      <!-- 0.0 -->
      <g transform="translate(29.728875 156.406175) scale(0.1 -0.1)">
       <defs>
        <path id="DejaVuSans-30" d="M 2034 4250 
Q 1547 4250 1301 3770 
Q 1056 3291 1056 2328 
Q 1056 1369 1301 889 
Q 1547 409 2034 409 
Q 2525 409 2770 889 
Q 3016 1369 3016 2328 
Q 3016 3291 2770 3770 
Q 2525 4250 2034 4250 
z
M 2034 4750 
Q 2819 4750 3233 4129 
Q 3647 3509 3647 2328 
Q 3647 1150 3233 529 
Q 2819 -91 2034 -91 
Q 1250 -91 836 529 
Q 422 1150 422 2328 
Q 422 3509 836 4129 
Q 1250 4750 2034 4750 
z
" transform="scale(0.015625)"/>
        <path id="DejaVuSans-2e" d="M 684 794 
L 1344 794 
L 1344 0 
L 684 0 
L 684 794 
z
" transform="scale(0.015625)"/>
       </defs>
       <use xlink:href="#DejaVuSans-30"/>
       <use xlink:href="#DejaVuSans-2e" transform="translate(63.623047 0)"/>
       <use xlink:href="#DejaVuSans-30" transform="translate(95.410156 0)"/>
      </g>
     </g>
    </g>
    <g id="ytick_2">
     <g id="line2d_49">
      <g>
       <use xlink:href="#me16bbf4d40" x="52.632" y="125.791352" style="stroke: #000000; stroke-width: 0.8"/>
      </g>
     </g>
     <g id="text_2">
      <!-- 0.1 -->
      <g transform="translate(29.728875 129.590571) scale(0.1 -0.1)">
       <defs>
        <path id="DejaVuSans-31" d="M 794 531 
L 1825 531 
L 1825 4091 
L 703 3866 
L 703 4441 
L 1819 4666 
L 2450 4666 
L 2450 531 
L 3481 531 
L 3481 0 
L 794 0 
L 794 531 
z
" transform="scale(0.015625)"/>
       </defs>
       <use xlink:href="#DejaVuSans-30"/>
       <use xlink:href="#DejaVuSans-2e" transform="translate(63.623047 0)"/>
       <use xlink:href="#DejaVuSans-31" transform="translate(95.410156 0)"/>
      </g>
     </g>
    </g>
    <g id="ytick_3">
     <g id="line2d_50">
      <g>
       <use xlink:href="#me16bbf4d40" x="52.632" y="98.975748" style="stroke: #000000; stroke-width: 0.8"/>
      </g>
     </g>
     <g id="text_3">
      <!-- 0.2 -->
      <g transform="translate(29.728875 102.774967) scale(0.1 -0.1)">
       <defs>
        <path id="DejaVuSans-32" d="M 1228 531 
L 3431 531 
L 3431 0 
L 469 0 
L 469 531 
Q 828 903 1448 1529 
Q 2069 2156 2228 2338 
Q 2531 2678 2651 2914 
Q 2772 3150 2772 3378 
Q 2772 3750 2511 3984 
Q 2250 4219 1831 4219 
Q 1534 4219 1204 4116 
Q 875 4013 500 3803 
L 500 4441 
Q 881 4594 1212 4672 
Q 1544 4750 1819 4750 
Q 2544 4750 2975 4387 
Q 3406 4025 3406 3419 
Q 3406 3131 3298 2873 
Q 3191 2616 2906 2266 
Q 2828 2175 2409 1742 
Q 1991 1309 1228 531 
z
" transform="scale(0.015625)"/>
       </defs>
       <use xlink:href="#DejaVuSans-30"/>
       <use xlink:href="#DejaVuSans-2e" transform="translate(63.623047 0)"/>
       <use xlink:href="#DejaVuSans-32" transform="translate(95.410156 0)"/>
      </g>
     </g>
    </g>
    <g id="ytick_4">
     <g id="line2d_51">
      <g>
       <use xlink:href="#me16bbf4d40" x="52.632" y="72.160144" style="stroke: #000000; stroke-width: 0.8"/>
      </g>
     </g>
     <g id="text_4">
      <!-- 0.3 -->
      <g transform="translate(29.728875 75.959363) scale(0.1 -0.1)">
       <defs>
        <path id="DejaVuSans-33" d="M 2597 2516 
Q 3050 2419 3304 2112 
Q 3559 1806 3559 1356 
Q 3559 666 3084 287 
Q 2609 -91 1734 -91 
Q 1441 -91 1130 -33 
Q 819 25 488 141 
L 488 750 
Q 750 597 1062 519 
Q 1375 441 1716 441 
Q 2309 441 2620 675 
Q 2931 909 2931 1356 
Q 2931 1769 2642 2001 
Q 2353 2234 1838 2234 
L 1294 2234 
L 1294 2753 
L 1863 2753 
Q 2328 2753 2575 2939 
Q 2822 3125 2822 3475 
Q 2822 3834 2567 4026 
Q 2313 4219 1838 4219 
Q 1578 4219 1281 4162 
Q 984 4106 628 3988 
L 628 4550 
Q 988 4650 1302 4700 
Q 1616 4750 1894 4750 
Q 2613 4750 3031 4423 
Q 3450 4097 3450 3541 
Q 3450 3153 3228 2886 
Q 3006 2619 2597 2516 
z
" transform="scale(0.015625)"/>
       </defs>
       <use xlink:href="#DejaVuSans-30"/>
       <use xlink:href="#DejaVuSans-2e" transform="translate(63.623047 0)"/>
       <use xlink:href="#DejaVuSans-33" transform="translate(95.410156 0)"/>
      </g>
     </g>
    </g>
    <g id="ytick_5">
     <g id="line2d_52">
      <g>
       <use xlink:href="#me16bbf4d40" x="52.632" y="45.34454" style="stroke: #000000; stroke-width: 0.8"/>
      </g>
     </g>
     <g id="text_5">
      <!-- 0.4 -->
      <g transform="translate(29.728875 49.143759) scale(0.1 -0.1)">
       <defs>
        <path id="DejaVuSans-34" d="M 2419 4116 
L 825 1625 
L 2419 1625 
L 2419 4116 
z
M 2253 4666 
L 3047 4666 
L 3047 1625 
L 3713 1625 
L 3713 1100 
L 3047 1100 
L 3047 0 
L 2419 0 
L 2419 1100 
L 313 1100 
L 313 1709 
L 2253 4666 
z
" transform="scale(0.015625)"/>
       </defs>
       <use xlink:href="#DejaVuSans-30"/>
       <use xlink:href="#DejaVuSans-2e" transform="translate(63.623047 0)"/>
       <use xlink:href="#DejaVuSans-34" transform="translate(95.410156 0)"/>
      </g>
     </g>
    </g>
    <g id="ytick_6">
     <g id="line2d_53">
      <g>
       <use xlink:href="#me16bbf4d40" x="52.632" y="18.528936" style="stroke: #000000; stroke-width: 0.8"/>
      </g>
     </g>
     <g id="text_6">
      <!-- 0.5 -->
      <g transform="translate(29.728875 22.328155) scale(0.1 -0.1)">
       <defs>
        <path id="DejaVuSans-35" d="M 691 4666 
L 3169 4666 
L 3169 4134 
L 1269 4134 
L 1269 2991 
Q 1406 3038 1543 3061 
Q 1681 3084 1819 3084 
Q 2600 3084 3056 2656 
Q 3513 2228 3513 1497 
Q 3513 744 3044 326 
Q 2575 -91 1722 -91 
Q 1428 -91 1123 -41 
Q 819 9 494 109 
L 494 744 
Q 775 591 1075 516 
Q 1375 441 1709 441 
Q 2250 441 2565 725 
Q 2881 1009 2881 1497 
Q 2881 1984 2565 2268 
Q 2250 2553 1709 2553 
Q 1456 2553 1204 2497 
Q 953 2441 691 2322 
L 691 4666 
z
" transform="scale(0.015625)"/>
       </defs>
       <use xlink:href="#DejaVuSans-30"/>
       <use xlink:href="#DejaVuSans-2e" transform="translate(63.623047 0)"/>
       <use xlink:href="#DejaVuSans-35" transform="translate(95.410156 0)"/>
      </g>
     </g>
    </g>
    <g id="text_7">
     <!-- Volumetric water content -->
     <g transform="translate(23.649187 148.080666) rotate(-90) scale(0.1 -0.1)">
      <defs>
       <path id="DejaVuSans-56" d="M 1831 0 
L 50 4666 
L 709 4666 
L 2188 738 
L 3669 4666 
L 4325 4666 
L 2547 0 
L 1831 0 
z
" transform="scale(0.015625)"/>
       <path id="DejaVuSans-6f" d="M 1959 3097 
Q 1497 3097 1228 2736 
Q 959 2375 959 1747 
Q 959 1119 1226 758 
Q 1494 397 1959 397 
Q 2419 397 2687 759 
Q 2956 1122 2956 1747 
Q 2956 2369 2687 2733 
Q 2419 3097 1959 3097 
z
M 1959 3584 
Q 2709 3584 3137 3096 
Q 3566 2609 3566 1747 
Q 3566 888 3137 398 
Q 2709 -91 1959 -91 
Q 1206 -91 779 398 
Q 353 888 353 1747 
Q 353 2609 779 3096 
Q 1206 3584 1959 3584 
z
" transform="scale(0.015625)"/>
       <path id="DejaVuSans-6c" d="M 603 4863 
L 1178 4863 
L 1178 0 
L 603 0 
L 603 4863 
z
" transform="scale(0.015625)"/>
       <path id="DejaVuSans-75" d="M 544 1381 
L 544 3500 
L 1119 3500 
L 1119 1403 
Q 1119 906 1312 657 
Q 1506 409 1894 409 
Q 2359 409 2629 706 
Q 2900 1003 2900 1516 
L 2900 3500 
L 3475 3500 
L 3475 0 
L 2900 0 
L 2900 538 
Q 2691 219 2414 64 
Q 2138 -91 1772 -91 
Q 1169 -91 856 284 
Q 544 659 544 1381 
z
M 1991 3584 
L 1991 3584 
z
" transform="scale(0.015625)"/>
       <path id="DejaVuSans-6d" d="M 3328 2828 
Q 3544 3216 3844 3400 
Q 4144 3584 4550 3584 
Q 5097 3584 5394 3201 
Q 5691 2819 5691 2113 
L 5691 0 
L 5113 0 
L 5113 2094 
Q 5113 2597 4934 2840 
Q 4756 3084 4391 3084 
Q 3944 3084 3684 2787 
Q 3425 2491 3425 1978 
L 3425 0 
L 2847 0 
L 2847 2094 
Q 2847 2600 2669 2842 
Q 2491 3084 2119 3084 
Q 1678 3084 1418 2786 
Q 1159 2488 1159 1978 
L 1159 0 
L 581 0 
L 581 3500 
L 1159 3500 
L 1159 2956 
Q 1356 3278 1631 3431 
Q 1906 3584 2284 3584 
Q 2666 3584 2933 3390 
Q 3200 3197 3328 2828 
z
" transform="scale(0.015625)"/>
       <path id="DejaVuSans-65" d="M 3597 1894 
L 3597 1613 
L 953 1613 
Q 991 1019 1311 708 
Q 1631 397 2203 397 
Q 2534 397 2845 478 
Q 3156 559 3463 722 
L 3463 178 
Q 3153 47 2828 -22 
Q 2503 -91 2169 -91 
Q 1331 -91 842 396 
Q 353 884 353 1716 
Q 353 2575 817 3079 
Q 1281 3584 2069 3584 
Q 2775 3584 3186 3129 
Q 3597 2675 3597 1894 
z
M 3022 2063 
Q 3016 2534 2758 2815 
Q 2500 3097 2075 3097 
Q 1594 3097 1305 2825 
Q 1016 2553 972 2059 
L 3022 2063 
z
" transform="scale(0.015625)"/>
       <path id="DejaVuSans-74" d="M 1172 4494 
L 1172 3500 
L 2356 3500 
L 2356 3053 
L 1172 3053 
L 1172 1153 
Q 1172 725 1289 603 
Q 1406 481 1766 481 
L 2356 481 
L 2356 0 
L 1766 0 
Q 1100 0 847 248 
Q 594 497 594 1153 
L 594 3053 
L 172 3053 
L 172 3500 
L 594 3500 
L 594 4494 
L 1172 4494 
z
" transform="scale(0.015625)"/>
       <path id="DejaVuSans-72" d="M 2631 2963 
Q 2534 3019 2420 3045 
Q 2306 3072 2169 3072 
Q 1681 3072 1420 2755 
Q 1159 2438 1159 1844 
L 1159 0 
L 581 0 
L 581 3500 
L 1159 3500 
L 1159 2956 
Q 1341 3275 1631 3429 
Q 1922 3584 2338 3584 
Q 2397 3584 2469 3576 
Q 2541 3569 2628 3553 
L 2631 2963 
z
" transform="scale(0.015625)"/>
       <path id="DejaVuSans-69" d="M 603 3500 
L 1178 3500 
L 1178 0 
L 603 0 
L 603 3500 
z
M 603 4863 
L 1178 4863 
L 1178 4134 
L 603 4134 
L 603 4863 
z
" transform="scale(0.015625)"/>
       <path id="DejaVuSans-63" d="M 3122 3366 
L 3122 2828 
Q 2878 2963 2633 3030 
Q 2388 3097 2138 3097 
Q 1578 3097 1268 2742 
Q 959 2388 959 1747 
Q 959 1106 1268 751 
Q 1578 397 2138 397 
Q 2388 397 2633 464 
Q 2878 531 3122 666 
L 3122 134 
Q 2881 22 2623 -34 
Q 2366 -91 2075 -91 
Q 1284 -91 818 406 
Q 353 903 353 1747 
Q 353 2603 823 3093 
Q 1294 3584 2113 3584 
Q 2378 3584 2631 3529 
Q 2884 3475 3122 3366 
z
" transform="scale(0.015625)"/>
       <path id="DejaVuSans-20" transform="scale(0.015625)"/>
       <path id="DejaVuSans-77" d="M 269 3500 
L 844 3500 
L 1563 769 
L 2278 3500 
L 2956 3500 
L 3675 769 
L 4391 3500 
L 4966 3500 
L 4050 0 
L 3372 0 
L 2619 2869 
L 1863 0 
L 1184 0 
L 269 3500 
z
" transform="scale(0.015625)"/>
       <path id="DejaVuSans-61" d="M 2194 1759 
Q 1497 1759 1228 1600 
Q 959 1441 959 1056 
Q 959 750 1161 570 
Q 1363 391 1709 391 
Q 2188 391 2477 730 
Q 2766 1069 2766 1631 
L 2766 1759 
L 2194 1759 
z
M 3341 1997 
L 3341 0 
L 2766 0 
L 2766 531 
Q 2569 213 2275 61 
Q 1981 -91 1556 -91 
Q 1019 -91 701 211 
Q 384 513 384 1019 
Q 384 1609 779 1909 
Q 1175 2209 1959 2209 
L 2766 2209 
L 2766 2266 
Q 2766 2663 2505 2880 
Q 2244 3097 1772 3097 
Q 1472 3097 1187 3025 
Q 903 2953 641 2809 
L 641 3341 
Q 956 3463 1253 3523 
Q 1550 3584 1831 3584 
Q 2591 3584 2966 3190 
Q 3341 2797 3341 1997 
z
" transform="scale(0.015625)"/>
       <path id="DejaVuSans-6e" d="M 3513 2113 
L 3513 0 
L 2938 0 
L 2938 2094 
Q 2938 2591 2744 2837 
Q 2550 3084 2163 3084 
Q 1697 3084 1428 2787 
Q 1159 2491 1159 1978 
L 1159 0 
L 581 0 
L 581 3500 
L 1159 3500 
L 1159 2956 
Q 1366 3272 1645 3428 
Q 1925 3584 2291 3584 
Q 2894 3584 3203 3211 
Q 3513 2838 3513 2113 
z
" transform="scale(0.015625)"/>
      </defs>
      <use xlink:href="#DejaVuSans-56"/>
      <use xlink:href="#DejaVuSans-6f" transform="translate(60.658203 0)"/>
      <use xlink:href="#DejaVuSans-6c" transform="translate(121.839844 0)"/>
      <use xlink:href="#DejaVuSans-75" transform="translate(149.623047 0)"/>
      <use xlink:href="#DejaVuSans-6d" transform="translate(213.001953 0)"/>
      <use xlink:href="#DejaVuSans-65" transform="translate(310.414062 0)"/>
      <use xlink:href="#DejaVuSans-74" transform="translate(371.9375 0)"/>
      <use xlink:href="#DejaVuSans-72" transform="translate(411.146484 0)"/>
      <use xlink:href="#DejaVuSans-69" transform="translate(452.259766 0)"/>
      <use xlink:href="#DejaVuSans-63" transform="translate(480.042969 0)"/>
      <use xlink:href="#DejaVuSans-20" transform="translate(535.023438 0)"/>
      <use xlink:href="#DejaVuSans-77" transform="translate(566.810547 0)"/>
      <use xlink:href="#DejaVuSans-61" transform="translate(648.597656 0)"/>
      <use xlink:href="#DejaVuSans-74" transform="translate(709.876953 0)"/>
      <use xlink:href="#DejaVuSans-65" transform="translate(749.085938 0)"/>
      <use xlink:href="#DejaVuSans-72" transform="translate(810.609375 0)"/>
      <use xlink:href="#DejaVuSans-20" transform="translate(851.722656 0)"/>
      <use xlink:href="#DejaVuSans-63" transform="translate(883.509766 0)"/>
      <use xlink:href="#DejaVuSans-6f" transform="translate(938.490234 0)"/>
      <use xlink:href="#DejaVuSans-6e" transform="translate(999.671875 0)"/>
      <use xlink:href="#DejaVuSans-74" transform="translate(1063.050781 0)"/>
      <use xlink:href="#DejaVuSans-65" transform="translate(1102.259766 0)"/>
      <use xlink:href="#DejaVuSans-6e" transform="translate(1163.783203 0)"/>
      <use xlink:href="#DejaVuSans-74" transform="translate(1227.162109 0)"/>
     </g>
    </g>
   </g>
   <g id="line2d_54">
    <defs>
     <path id="m43fedcb1c4" d="M 0 3 
C 0.795609 3 1.55874 2.683901 2.12132 2.12132 
C 2.683901 1.55874 3 0.795609 3 0 
C 3 -0.795609 2.683901 -1.55874 2.12132 -2.12132 
C 1.55874 -2.683901 0.795609 -3 0 -3 
C -0.795609 -3 -1.55874 -2.683901 -2.12132 -2.12132 
C -2.683901 -1.55874 -3 -0.795609 -3 0 
C -3 0.795609 -2.683901 1.55874 -2.12132 2.12132 
C -1.55874 2.683901 -0.795609 3 0 3 
z
" style="stroke: #000000"/>
    </defs>
    <g clip-path="url(#p2a557e1f23)">
     <use xlink:href="#m43fedcb1c4" x="59.221676" y="34.618299" style="stroke: #000000"/>
     <use xlink:href="#m43fedcb1c4" x="74.14789" y="34.618299" style="stroke: #000000"/>
     <use xlink:href="#m43fedcb1c4" x="97.727224" y="37.299859" style="stroke: #000000"/>
     <use xlink:href="#m43fedcb1c4" x="119.243114" y="39.981419" style="stroke: #000000"/>
     <use xlink:href="#m43fedcb1c4" x="124.381415" y="45.34454" style="stroke: #000000"/>
     <use xlink:href="#m43fedcb1c4" x="127.052987" y="50.707661" style="stroke: #000000"/>
     <use xlink:href="#m43fedcb1c4" x="129.090126" y="56.070782" style="stroke: #000000"/>
     <use xlink:href="#m43fedcb1c4" x="130.935189" y="61.433903" style="stroke: #000000"/>
     <use xlink:href="#m43fedcb1c4" x="132.818129" y="66.797024" style="stroke: #000000"/>
     <use xlink:href="#m43fedcb1c4" x="134.684741" y="72.160144" style="stroke: #000000"/>
     <use xlink:href="#m43fedcb1c4" x="136.524359" y="77.523265" style="stroke: #000000"/>
     <use xlink:href="#m43fedcb1c4" x="137.830483" y="82.886386" style="stroke: #000000"/>
     <use xlink:href="#m43fedcb1c4" x="139.868641" y="88.249507" style="stroke: #000000"/>
     <use xlink:href="#m43fedcb1c4" x="142.426786" y="93.612628" style="stroke: #000000"/>
     <use xlink:href="#m43fedcb1c4" x="145.388585" y="98.975748" style="stroke: #000000"/>
     <use xlink:href="#m43fedcb1c4" x="150.099374" y="104.338869" style="stroke: #000000"/>
     <use xlink:href="#m43fedcb1c4" x="158.264075" y="109.70199" style="stroke: #000000"/>
     <use xlink:href="#m43fedcb1c4" x="170.456073" y="115.065111" style="stroke: #000000"/>
     <use xlink:href="#m43fedcb1c4" x="186.390826" y="120.428232" style="stroke: #000000"/>
     <use xlink:href="#m43fedcb1c4" x="207.004039" y="125.791352" style="stroke: #000000"/>
     <use xlink:href="#m43fedcb1c4" x="227.638158" y="131.154473" style="stroke: #000000"/>
     <use xlink:href="#m43fedcb1c4" x="260.883913" y="136.517594" style="stroke: #000000"/>
     <use xlink:href="#m43fedcb1c4" x="286.179125" y="141.880715" style="stroke: #000000"/>
    </g>
   </g>
   <g id="line2d_55">
    <path d="M 52.632 36.629469 
L 123.015437 36.629469 
L 124.228945 39.594804 
L 126.65596 49.730272 
L 129.082975 58.567232 
L 131.50999 66.28298 
L 133.937005 73.030385 
L 136.36402 78.941268 
L 138.791035 84.129294 
L 141.21805 88.692484 
L 143.645065 92.715369 
L 146.07208 96.270848 
L 148.499095 99.421797 
L 150.926111 102.222447 
L 153.353126 104.719578 
L 155.780141 106.953544 
L 158.207156 108.959162 
L 161.847678 111.604008 
L 165.488201 113.886316 
L 169.128724 115.873939 
L 172.769246 117.621312 
L 177.623276 119.651656 
L 182.477307 121.412131 
L 188.544844 123.323451 
L 194.612382 124.991513 
L 201.893427 126.754811 
L 210.38798 128.569213 
L 220.09604 130.407678 
L 231.017608 132.252002 
L 243.152683 134.086067 
L 257.714774 136.046905 
L 273.490372 137.925521 
L 290.479477 139.705668 
L 294.12 140.057748 
L 294.12 140.057748 
" clip-path="url(#p2a557e1f23)" style="fill: none; stroke-dasharray: 1.5,2.475; stroke-dashoffset: 0; stroke: #0000ff; stroke-width: 1.5"/>
   </g>
   <g id="line2d_56">
    <path d="M 52.632 34.895663 
L 75.688643 35.104892 
L 89.037226 35.446096 
L 97.531779 35.860994 
L 103.599317 36.343996 
L 108.453347 36.952782 
L 112.093869 37.664269 
L 114.520884 38.355354 
L 116.947899 39.328036 
L 118.161407 39.963894 
L 119.374915 40.73067 
L 120.588422 41.657313 
L 121.80193 42.77713 
L 123.015437 44.127004 
L 124.228945 45.745636 
L 125.442452 47.670464 
L 126.65596 49.933105 
L 127.869467 52.553458 
L 129.082975 55.533208 
L 131.50999 62.454911 
L 138.791035 85.160894 
L 141.21805 91.192956 
L 142.431558 93.755312 
L 143.645065 96.028255 
L 144.858573 98.034074 
L 146.07208 99.799905 
L 147.285588 101.354557 
L 149.712603 103.94172 
L 152.139618 105.996064 
L 154.566633 107.674964 
L 156.993648 109.093782 
L 160.634171 110.904901 
L 165.488201 112.974212 
L 171.555739 115.27541 
L 180.050291 118.224781 
L 189.758352 121.336082 
L 199.466412 124.200249 
L 209.174472 126.824253 
L 218.882533 129.218052 
L 228.590593 131.395937 
L 239.512161 133.608344 
L 250.433729 135.591869 
L 262.568804 137.554851 
L 274.703879 139.291819 
L 288.052462 140.972102 
L 294.12 141.664114 
L 294.12 141.664114 
" clip-path="url(#p2a557e1f23)" style="fill: none; stroke-dasharray: 9.6,2.4,1.5,2.4; stroke-dashoffset: 0; stroke: #ff0000; stroke-width: 1.5"/>
   </g>
   <g id="line2d_57">
    <path d="M 52.632 35.600025 
L 107.239839 35.705563 
L 110.880362 35.970532 
L 113.307377 36.384167 
L 115.734392 37.149167 
L 116.947899 37.722702 
L 118.161407 38.460261 
L 119.374915 39.390783 
L 120.588422 40.542512 
L 121.80193 41.941025 
L 123.015437 43.607026 
L 124.228945 45.554077 
L 125.442452 47.786478 
L 126.65596 50.297555 
L 129.082975 56.068533 
L 131.50999 62.574808 
L 132.723497 65.96866 
L 137.577528 81.541825 
L 140.004543 88.243981 
L 141.21805 91.183274 
L 142.431558 93.830481 
L 143.645065 96.186859 
L 144.858573 98.26349 
L 146.07208 100.079261 
L 147.285588 101.658616 
L 148.499095 103.029304 
L 150.926111 105.260221 
L 153.353126 106.990866 
L 155.780141 108.400238 
L 159.420663 110.177753 
L 164.274693 112.255453 
L 171.555739 115.105303 
L 180.050291 118.166746 
L 188.544844 120.978001 
L 197.039397 123.55978 
L 205.53395 125.930816 
L 215.24201 128.40452 
L 224.95007 130.648835 
L 235.871638 132.925906 
L 246.793206 134.966843 
L 258.928281 136.9873 
L 271.063357 138.776338 
L 284.41194 140.508535 
L 294.12 141.630433 
L 294.12 141.630433 
" clip-path="url(#p2a557e1f23)" style="fill: none; stroke-dasharray: 5.55,2.4; stroke-dashoffset: 0; stroke: #008000; stroke-width: 1.5"/>
   </g>
   <g id="line2d_58">
    <path d="M 52.632 35.001747 
L 102.385809 35.085848 
L 107.239839 35.347926 
L 109.666854 35.656497 
L 112.093869 36.184276 
L 114.520884 37.042339 
L 115.734392 37.637439 
L 116.947899 38.368387 
L 118.161407 39.254845 
L 119.374915 40.316309 
L 120.588422 41.571266 
L 121.80193 43.036233 
L 123.015437 44.724738 
L 124.228945 46.646294 
L 125.442452 48.805427 
L 127.869467 53.824816 
L 130.296482 59.69351 
L 132.723497 66.215877 
L 136.36402 76.68249 
L 140.004543 87.101625 
L 142.431558 93.36068 
L 144.858573 98.809372 
L 147.285588 103.340311 
L 148.499095 105.256686 
L 149.712603 106.949123 
L 150.926111 108.429876 
L 152.139618 109.714523 
L 153.353126 110.820939 
L 155.780141 112.576254 
L 158.207156 113.850074 
L 160.634171 114.783056 
L 163.061186 115.490316 
L 166.701709 116.308887 
L 173.982754 117.626426 
L 195.825889 121.498377 
L 224.95007 126.943404 
L 294.12 140.143671 
L 294.12 140.143671 
" clip-path="url(#p2a557e1f23)" style="fill: none; stroke: #87ceeb; stroke-width: 1.5; stroke-linecap: square"/>
   </g>
   <g id="patch_3">
    <path d="M 52.632 152.606957 
L 52.632 16.92 
" style="fill: none; stroke: #000000; stroke-width: 0.8; stroke-linejoin: miter; stroke-linecap: square"/>
   </g>
   <g id="patch_4">
    <path d="M 294.12 152.606957 
L 294.12 16.92 
" style="fill: none; stroke: #000000; stroke-width: 0.8; stroke-linejoin: miter; stroke-linecap: square"/>
   </g>
   <g id="patch_5">
    <path d="M 52.632 152.606957 
L 294.12 152.606957 
" style="fill: none; stroke: #000000; stroke-width: 0.8; stroke-linejoin: miter; stroke-linecap: square"/>
   </g>
   <g id="patch_6">
    <path d="M 52.632 16.92 
L 294.12 16.92 
" style="fill: none; stroke: #000000; stroke-width: 0.8; stroke-linejoin: miter; stroke-linecap: square"/>
   </g>
  </g>
  <g id="axes_2">
   <g id="patch_7">
    <path d="M 52.632 297.792 
L 294.12 297.792 
L 294.12 162.105043 
L 52.632 162.105043 
z
" style="fill: #ffffff"/>
   </g>
   <g id="matplotlib.axis_3">
    <g id="xtick_48">
     <g id="line2d_59">
      <g>
       <use xlink:href="#m9c4e94bcb4" x="52.632" y="297.792" style="stroke: #000000; stroke-width: 0.8"/>
      </g>
     </g>
     <g id="text_8">
      <!-- $\mathdefault{10^{0}}$ -->
      <g transform="translate(43.832 312.390438) scale(0.1 -0.1)">
       <use xlink:href="#DejaVuSans-31" transform="translate(0 0.765625)"/>
       <use xlink:href="#DejaVuSans-30" transform="translate(63.623047 0.765625)"/>
       <use xlink:href="#DejaVuSans-30" transform="translate(128.203125 39.046875) scale(0.7)"/>
      </g>
     </g>
    </g>
    <g id="xtick_49">
     <g id="line2d_60">
      <g>
       <use xlink:href="#m9c4e94bcb4" x="97.727224" y="297.792" style="stroke: #000000; stroke-width: 0.8"/>
      </g>
     </g>
     <g id="text_9">
      <!-- $\mathdefault{10^{1}}$ -->
      <g transform="translate(88.927224 312.390438) scale(0.1 -0.1)">
       <use xlink:href="#DejaVuSans-31" transform="translate(0 0.684375)"/>
       <use xlink:href="#DejaVuSans-30" transform="translate(63.623047 0.684375)"/>
       <use xlink:href="#DejaVuSans-31" transform="translate(128.203125 38.965625) scale(0.7)"/>
      </g>
     </g>
    </g>
    <g id="xtick_50">
     <g id="line2d_61">
      <g>
       <use xlink:href="#m9c4e94bcb4" x="142.822448" y="297.792" style="stroke: #000000; stroke-width: 0.8"/>
      </g>
     </g>
     <g id="text_10">
      <!-- $\mathdefault{10^{2}}$ -->
      <g transform="translate(134.022448 312.390438) scale(0.1 -0.1)">
       <use xlink:href="#DejaVuSans-31" transform="translate(0 0.765625)"/>
       <use xlink:href="#DejaVuSans-30" transform="translate(63.623047 0.765625)"/>
       <use xlink:href="#DejaVuSans-32" transform="translate(128.203125 39.046875) scale(0.7)"/>
      </g>
     </g>
    </g>
    <g id="xtick_51">
     <g id="line2d_62">
      <g>
       <use xlink:href="#m9c4e94bcb4" x="187.917672" y="297.792" style="stroke: #000000; stroke-width: 0.8"/>
      </g>
     </g>
     <g id="text_11">
      <!-- $\mathdefault{10^{3}}$ -->
      <g transform="translate(179.117672 312.390438) scale(0.1 -0.1)">
       <use xlink:href="#DejaVuSans-31" transform="translate(0 0.765625)"/>
       <use xlink:href="#DejaVuSans-30" transform="translate(63.623047 0.765625)"/>
       <use xlink:href="#DejaVuSans-33" transform="translate(128.203125 39.046875) scale(0.7)"/>
      </g>
     </g>
    </g>
    <g id="xtick_52">
     <g id="line2d_63">
      <g>
       <use xlink:href="#m9c4e94bcb4" x="233.012896" y="297.792" style="stroke: #000000; stroke-width: 0.8"/>
      </g>
     </g>
     <g id="text_12">
      <!-- $\mathdefault{10^{4}}$ -->
      <g transform="translate(224.212896 312.390438) scale(0.1 -0.1)">
       <use xlink:href="#DejaVuSans-31" transform="translate(0 0.684375)"/>
       <use xlink:href="#DejaVuSans-30" transform="translate(63.623047 0.684375)"/>
       <use xlink:href="#DejaVuSans-34" transform="translate(128.203125 38.965625) scale(0.7)"/>
      </g>
     </g>
    </g>
    <g id="xtick_53">
     <g id="line2d_64">
      <g>
       <use xlink:href="#m9c4e94bcb4" x="278.10812" y="297.792" style="stroke: #000000; stroke-width: 0.8"/>
      </g>
     </g>
     <g id="text_13">
      <!-- $\mathdefault{10^{5}}$ -->
      <g transform="translate(269.30812 312.390438) scale(0.1 -0.1)">
       <use xlink:href="#DejaVuSans-31" transform="translate(0 0.684375)"/>
       <use xlink:href="#DejaVuSans-30" transform="translate(63.623047 0.684375)"/>
       <use xlink:href="#DejaVuSans-35" transform="translate(128.203125 38.965625) scale(0.7)"/>
      </g>
     </g>
    </g>
    <g id="xtick_54">
     <g id="line2d_65">
      <g>
       <use xlink:href="#mac8dd1268f" x="66.207015" y="297.792" style="stroke: #000000; stroke-width: 0.6"/>
      </g>
     </g>
    </g>
    <g id="xtick_55">
     <g id="line2d_66">
      <g>
       <use xlink:href="#mac8dd1268f" x="74.14789" y="297.792" style="stroke: #000000; stroke-width: 0.6"/>
      </g>
     </g>
    </g>
    <g id="xtick_56">
     <g id="line2d_67">
      <g>
       <use xlink:href="#mac8dd1268f" x="79.78203" y="297.792" style="stroke: #000000; stroke-width: 0.6"/>
      </g>
     </g>
    </g>
    <g id="xtick_57">
     <g id="line2d_68">
      <g>
       <use xlink:href="#mac8dd1268f" x="84.152209" y="297.792" style="stroke: #000000; stroke-width: 0.6"/>
      </g>
     </g>
    </g>
    <g id="xtick_58">
     <g id="line2d_69">
      <g>
       <use xlink:href="#mac8dd1268f" x="87.722905" y="297.792" style="stroke: #000000; stroke-width: 0.6"/>
      </g>
     </g>
    </g>
    <g id="xtick_59">
     <g id="line2d_70">
      <g>
       <use xlink:href="#mac8dd1268f" x="90.741885" y="297.792" style="stroke: #000000; stroke-width: 0.6"/>
      </g>
     </g>
    </g>
    <g id="xtick_60">
     <g id="line2d_71">
      <g>
       <use xlink:href="#mac8dd1268f" x="93.357045" y="297.792" style="stroke: #000000; stroke-width: 0.6"/>
      </g>
     </g>
    </g>
    <g id="xtick_61">
     <g id="line2d_72">
      <g>
       <use xlink:href="#mac8dd1268f" x="95.66378" y="297.792" style="stroke: #000000; stroke-width: 0.6"/>
      </g>
     </g>
    </g>
    <g id="xtick_62">
     <g id="line2d_73">
      <g>
       <use xlink:href="#mac8dd1268f" x="111.302239" y="297.792" style="stroke: #000000; stroke-width: 0.6"/>
      </g>
     </g>
    </g>
    <g id="xtick_63">
     <g id="line2d_74">
      <g>
       <use xlink:href="#mac8dd1268f" x="119.243114" y="297.792" style="stroke: #000000; stroke-width: 0.6"/>
      </g>
     </g>
    </g>
    <g id="xtick_64">
     <g id="line2d_75">
      <g>
       <use xlink:href="#mac8dd1268f" x="124.877254" y="297.792" style="stroke: #000000; stroke-width: 0.6"/>
      </g>
     </g>
    </g>
    <g id="xtick_65">
     <g id="line2d_76">
      <g>
       <use xlink:href="#mac8dd1268f" x="129.247433" y="297.792" style="stroke: #000000; stroke-width: 0.6"/>
      </g>
     </g>
    </g>
    <g id="xtick_66">
     <g id="line2d_77">
      <g>
       <use xlink:href="#mac8dd1268f" x="132.818129" y="297.792" style="stroke: #000000; stroke-width: 0.6"/>
      </g>
     </g>
    </g>
    <g id="xtick_67">
     <g id="line2d_78">
      <g>
       <use xlink:href="#mac8dd1268f" x="135.837109" y="297.792" style="stroke: #000000; stroke-width: 0.6"/>
      </g>
     </g>
    </g>
    <g id="xtick_68">
     <g id="line2d_79">
      <g>
       <use xlink:href="#mac8dd1268f" x="138.452269" y="297.792" style="stroke: #000000; stroke-width: 0.6"/>
      </g>
     </g>
    </g>
    <g id="xtick_69">
     <g id="line2d_80">
      <g>
       <use xlink:href="#mac8dd1268f" x="140.759004" y="297.792" style="stroke: #000000; stroke-width: 0.6"/>
      </g>
     </g>
    </g>
    <g id="xtick_70">
     <g id="line2d_81">
      <g>
       <use xlink:href="#mac8dd1268f" x="156.397463" y="297.792" style="stroke: #000000; stroke-width: 0.6"/>
      </g>
     </g>
    </g>
    <g id="xtick_71">
     <g id="line2d_82">
      <g>
       <use xlink:href="#mac8dd1268f" x="164.338338" y="297.792" style="stroke: #000000; stroke-width: 0.6"/>
      </g>
     </g>
    </g>
    <g id="xtick_72">
     <g id="line2d_83">
      <g>
       <use xlink:href="#mac8dd1268f" x="169.972478" y="297.792" style="stroke: #000000; stroke-width: 0.6"/>
      </g>
     </g>
    </g>
    <g id="xtick_73">
     <g id="line2d_84">
      <g>
       <use xlink:href="#mac8dd1268f" x="174.342657" y="297.792" style="stroke: #000000; stroke-width: 0.6"/>
      </g>
     </g>
    </g>
    <g id="xtick_74">
     <g id="line2d_85">
      <g>
       <use xlink:href="#mac8dd1268f" x="177.913353" y="297.792" style="stroke: #000000; stroke-width: 0.6"/>
      </g>
     </g>
    </g>
    <g id="xtick_75">
     <g id="line2d_86">
      <g>
       <use xlink:href="#mac8dd1268f" x="180.932333" y="297.792" style="stroke: #000000; stroke-width: 0.6"/>
      </g>
     </g>
    </g>
    <g id="xtick_76">
     <g id="line2d_87">
      <g>
       <use xlink:href="#mac8dd1268f" x="183.547493" y="297.792" style="stroke: #000000; stroke-width: 0.6"/>
      </g>
     </g>
    </g>
    <g id="xtick_77">
     <g id="line2d_88">
      <g>
       <use xlink:href="#mac8dd1268f" x="185.854228" y="297.792" style="stroke: #000000; stroke-width: 0.6"/>
      </g>
     </g>
    </g>
    <g id="xtick_78">
     <g id="line2d_89">
      <g>
       <use xlink:href="#mac8dd1268f" x="201.492687" y="297.792" style="stroke: #000000; stroke-width: 0.6"/>
      </g>
     </g>
    </g>
    <g id="xtick_79">
     <g id="line2d_90">
      <g>
       <use xlink:href="#mac8dd1268f" x="209.433562" y="297.792" style="stroke: #000000; stroke-width: 0.6"/>
      </g>
     </g>
    </g>
    <g id="xtick_80">
     <g id="line2d_91">
      <g>
       <use xlink:href="#mac8dd1268f" x="215.067702" y="297.792" style="stroke: #000000; stroke-width: 0.6"/>
      </g>
     </g>
    </g>
    <g id="xtick_81">
     <g id="line2d_92">
      <g>
       <use xlink:href="#mac8dd1268f" x="219.437881" y="297.792" style="stroke: #000000; stroke-width: 0.6"/>
      </g>
     </g>
    </g>
    <g id="xtick_82">
     <g id="line2d_93">
      <g>
       <use xlink:href="#mac8dd1268f" x="223.008577" y="297.792" style="stroke: #000000; stroke-width: 0.6"/>
      </g>
     </g>
    </g>
    <g id="xtick_83">
     <g id="line2d_94">
      <g>
       <use xlink:href="#mac8dd1268f" x="226.027557" y="297.792" style="stroke: #000000; stroke-width: 0.6"/>
      </g>
     </g>
    </g>
    <g id="xtick_84">
     <g id="line2d_95">
      <g>
       <use xlink:href="#mac8dd1268f" x="228.642717" y="297.792" style="stroke: #000000; stroke-width: 0.6"/>
      </g>
     </g>
    </g>
    <g id="xtick_85">
     <g id="line2d_96">
      <g>
       <use xlink:href="#mac8dd1268f" x="230.949451" y="297.792" style="stroke: #000000; stroke-width: 0.6"/>
      </g>
     </g>
    </g>
    <g id="xtick_86">
     <g id="line2d_97">
      <g>
       <use xlink:href="#mac8dd1268f" x="246.587911" y="297.792" style="stroke: #000000; stroke-width: 0.6"/>
      </g>
     </g>
    </g>
    <g id="xtick_87">
     <g id="line2d_98">
      <g>
       <use xlink:href="#mac8dd1268f" x="254.528786" y="297.792" style="stroke: #000000; stroke-width: 0.6"/>
      </g>
     </g>
    </g>
    <g id="xtick_88">
     <g id="line2d_99">
      <g>
       <use xlink:href="#mac8dd1268f" x="260.162926" y="297.792" style="stroke: #000000; stroke-width: 0.6"/>
      </g>
     </g>
    </g>
    <g id="xtick_89">
     <g id="line2d_100">
      <g>
       <use xlink:href="#mac8dd1268f" x="264.533105" y="297.792" style="stroke: #000000; stroke-width: 0.6"/>
      </g>
     </g>
    </g>
    <g id="xtick_90">
     <g id="line2d_101">
      <g>
       <use xlink:href="#mac8dd1268f" x="268.103801" y="297.792" style="stroke: #000000; stroke-width: 0.6"/>
      </g>
     </g>
    </g>
    <g id="xtick_91">
     <g id="line2d_102">
      <g>
       <use xlink:href="#mac8dd1268f" x="271.122781" y="297.792" style="stroke: #000000; stroke-width: 0.6"/>
      </g>
     </g>
    </g>
    <g id="xtick_92">
     <g id="line2d_103">
      <g>
       <use xlink:href="#mac8dd1268f" x="273.737941" y="297.792" style="stroke: #000000; stroke-width: 0.6"/>
      </g>
     </g>
    </g>
    <g id="xtick_93">
     <g id="line2d_104">
      <g>
       <use xlink:href="#mac8dd1268f" x="276.044675" y="297.792" style="stroke: #000000; stroke-width: 0.6"/>
      </g>
     </g>
    </g>
    <g id="xtick_94">
     <g id="line2d_105">
      <g>
       <use xlink:href="#mac8dd1268f" x="291.683135" y="297.792" style="stroke: #000000; stroke-width: 0.6"/>
      </g>
     </g>
    </g>
    <g id="text_14">
     <!-- Pressure head -->
     <g transform="translate(137.958812 326.068563) scale(0.1 -0.1)">
      <defs>
       <path id="DejaVuSans-50" d="M 1259 4147 
L 1259 2394 
L 2053 2394 
Q 2494 2394 2734 2622 
Q 2975 2850 2975 3272 
Q 2975 3691 2734 3919 
Q 2494 4147 2053 4147 
L 1259 4147 
z
M 628 4666 
L 2053 4666 
Q 2838 4666 3239 4311 
Q 3641 3956 3641 3272 
Q 3641 2581 3239 2228 
Q 2838 1875 2053 1875 
L 1259 1875 
L 1259 0 
L 628 0 
L 628 4666 
z
" transform="scale(0.015625)"/>
       <path id="DejaVuSans-73" d="M 2834 3397 
L 2834 2853 
Q 2591 2978 2328 3040 
Q 2066 3103 1784 3103 
Q 1356 3103 1142 2972 
Q 928 2841 928 2578 
Q 928 2378 1081 2264 
Q 1234 2150 1697 2047 
L 1894 2003 
Q 2506 1872 2764 1633 
Q 3022 1394 3022 966 
Q 3022 478 2636 193 
Q 2250 -91 1575 -91 
Q 1294 -91 989 -36 
Q 684 19 347 128 
L 347 722 
Q 666 556 975 473 
Q 1284 391 1588 391 
Q 1994 391 2212 530 
Q 2431 669 2431 922 
Q 2431 1156 2273 1281 
Q 2116 1406 1581 1522 
L 1381 1569 
Q 847 1681 609 1914 
Q 372 2147 372 2553 
Q 372 3047 722 3315 
Q 1072 3584 1716 3584 
Q 2034 3584 2315 3537 
Q 2597 3491 2834 3397 
z
" transform="scale(0.015625)"/>
       <path id="DejaVuSans-68" d="M 3513 2113 
L 3513 0 
L 2938 0 
L 2938 2094 
Q 2938 2591 2744 2837 
Q 2550 3084 2163 3084 
Q 1697 3084 1428 2787 
Q 1159 2491 1159 1978 
L 1159 0 
L 581 0 
L 581 4863 
L 1159 4863 
L 1159 2956 
Q 1366 3272 1645 3428 
Q 1925 3584 2291 3584 
Q 2894 3584 3203 3211 
Q 3513 2838 3513 2113 
z
" transform="scale(0.015625)"/>
       <path id="DejaVuSans-64" d="M 2906 2969 
L 2906 4863 
L 3481 4863 
L 3481 0 
L 2906 0 
L 2906 525 
Q 2725 213 2448 61 
Q 2172 -91 1784 -91 
Q 1150 -91 751 415 
Q 353 922 353 1747 
Q 353 2572 751 3078 
Q 1150 3584 1784 3584 
Q 2172 3584 2448 3432 
Q 2725 3281 2906 2969 
z
M 947 1747 
Q 947 1113 1208 752 
Q 1469 391 1925 391 
Q 2381 391 2643 752 
Q 2906 1113 2906 1747 
Q 2906 2381 2643 2742 
Q 2381 3103 1925 3103 
Q 1469 3103 1208 2742 
Q 947 2381 947 1747 
z
" transform="scale(0.015625)"/>
      </defs>
      <use xlink:href="#DejaVuSans-50"/>
      <use xlink:href="#DejaVuSans-72" transform="translate(58.552734 0)"/>
      <use xlink:href="#DejaVuSans-65" transform="translate(97.416016 0)"/>
      <use xlink:href="#DejaVuSans-73" transform="translate(158.939453 0)"/>
      <use xlink:href="#DejaVuSans-73" transform="translate(211.039062 0)"/>
      <use xlink:href="#DejaVuSans-75" transform="translate(263.138672 0)"/>
      <use xlink:href="#DejaVuSans-72" transform="translate(326.517578 0)"/>
      <use xlink:href="#DejaVuSans-65" transform="translate(365.380859 0)"/>
      <use xlink:href="#DejaVuSans-20" transform="translate(426.904297 0)"/>
      <use xlink:href="#DejaVuSans-68" transform="translate(458.691406 0)"/>
      <use xlink:href="#DejaVuSans-65" transform="translate(522.070312 0)"/>
      <use xlink:href="#DejaVuSans-61" transform="translate(583.59375 0)"/>
      <use xlink:href="#DejaVuSans-64" transform="translate(644.873047 0)"/>
     </g>
    </g>
   </g>
   <g id="matplotlib.axis_4">
    <g id="ytick_7">
     <g id="line2d_106">
      <g>
       <use xlink:href="#me16bbf4d40" x="52.632" y="267.498054" style="stroke: #000000; stroke-width: 0.8"/>
      </g>
     </g>
     <g id="text_15">
      <!-- $\mathdefault{10^{-10}}$ -->
      <g transform="translate(17.732 271.297273) scale(0.1 -0.1)">
       <defs>
        <path id="DejaVuSans-2212" d="M 678 2272 
L 4684 2272 
L 4684 1741 
L 678 1741 
L 678 2272 
z
" transform="scale(0.015625)"/>
       </defs>
       <use xlink:href="#DejaVuSans-31" transform="translate(0 0.765625)"/>
       <use xlink:href="#DejaVuSans-30" transform="translate(63.623047 0.765625)"/>
       <use xlink:href="#DejaVuSans-2212" transform="translate(128.203125 39.046875) scale(0.7)"/>
       <use xlink:href="#DejaVuSans-31" transform="translate(186.855469 39.046875) scale(0.7)"/>
       <use xlink:href="#DejaVuSans-30" transform="translate(231.391602 39.046875) scale(0.7)"/>
      </g>
     </g>
    </g>
    <g id="ytick_8">
     <g id="line2d_107">
      <g>
       <use xlink:href="#me16bbf4d40" x="52.632" y="236.669092" style="stroke: #000000; stroke-width: 0.8"/>
      </g>
     </g>
     <g id="text_16">
      <!-- $\mathdefault{10^{-8}}$ -->
      <g transform="translate(22.132 240.468311) scale(0.1 -0.1)">
       <defs>
        <path id="DejaVuSans-38" d="M 2034 2216 
Q 1584 2216 1326 1975 
Q 1069 1734 1069 1313 
Q 1069 891 1326 650 
Q 1584 409 2034 409 
Q 2484 409 2743 651 
Q 3003 894 3003 1313 
Q 3003 1734 2745 1975 
Q 2488 2216 2034 2216 
z
M 1403 2484 
Q 997 2584 770 2862 
Q 544 3141 544 3541 
Q 544 4100 942 4425 
Q 1341 4750 2034 4750 
Q 2731 4750 3128 4425 
Q 3525 4100 3525 3541 
Q 3525 3141 3298 2862 
Q 3072 2584 2669 2484 
Q 3125 2378 3379 2068 
Q 3634 1759 3634 1313 
Q 3634 634 3220 271 
Q 2806 -91 2034 -91 
Q 1263 -91 848 271 
Q 434 634 434 1313 
Q 434 1759 690 2068 
Q 947 2378 1403 2484 
z
M 1172 3481 
Q 1172 3119 1398 2916 
Q 1625 2713 2034 2713 
Q 2441 2713 2670 2916 
Q 2900 3119 2900 3481 
Q 2900 3844 2670 4047 
Q 2441 4250 2034 4250 
Q 1625 4250 1398 4047 
Q 1172 3844 1172 3481 
z
" transform="scale(0.015625)"/>
       </defs>
       <use xlink:href="#DejaVuSans-31" transform="translate(0 0.765625)"/>
       <use xlink:href="#DejaVuSans-30" transform="translate(63.623047 0.765625)"/>
       <use xlink:href="#DejaVuSans-2212" transform="translate(128.203125 39.046875) scale(0.7)"/>
       <use xlink:href="#DejaVuSans-38" transform="translate(186.855469 39.046875) scale(0.7)"/>
      </g>
     </g>
    </g>
    <g id="ytick_9">
     <g id="line2d_108">
      <g>
       <use xlink:href="#me16bbf4d40" x="52.632" y="205.84013" style="stroke: #000000; stroke-width: 0.8"/>
      </g>
     </g>
     <g id="text_17">
      <!-- $\mathdefault{10^{-6}}$ -->
      <g transform="translate(22.132 209.639348) scale(0.1 -0.1)">
       <defs>
        <path id="DejaVuSans-36" d="M 2113 2584 
Q 1688 2584 1439 2293 
Q 1191 2003 1191 1497 
Q 1191 994 1439 701 
Q 1688 409 2113 409 
Q 2538 409 2786 701 
Q 3034 994 3034 1497 
Q 3034 2003 2786 2293 
Q 2538 2584 2113 2584 
z
M 3366 4563 
L 3366 3988 
Q 3128 4100 2886 4159 
Q 2644 4219 2406 4219 
Q 1781 4219 1451 3797 
Q 1122 3375 1075 2522 
Q 1259 2794 1537 2939 
Q 1816 3084 2150 3084 
Q 2853 3084 3261 2657 
Q 3669 2231 3669 1497 
Q 3669 778 3244 343 
Q 2819 -91 2113 -91 
Q 1303 -91 875 529 
Q 447 1150 447 2328 
Q 447 3434 972 4092 
Q 1497 4750 2381 4750 
Q 2619 4750 2861 4703 
Q 3103 4656 3366 4563 
z
" transform="scale(0.015625)"/>
       </defs>
       <use xlink:href="#DejaVuSans-31" transform="translate(0 0.765625)"/>
       <use xlink:href="#DejaVuSans-30" transform="translate(63.623047 0.765625)"/>
       <use xlink:href="#DejaVuSans-2212" transform="translate(128.203125 39.046875) scale(0.7)"/>
       <use xlink:href="#DejaVuSans-36" transform="translate(186.855469 39.046875) scale(0.7)"/>
      </g>
     </g>
    </g>
    <g id="ytick_10">
     <g id="line2d_109">
      <g>
       <use xlink:href="#me16bbf4d40" x="52.632" y="175.011168" style="stroke: #000000; stroke-width: 0.8"/>
      </g>
     </g>
     <g id="text_18">
      <!-- $\mathdefault{10^{-4}}$ -->
      <g transform="translate(22.132 178.810386) scale(0.1 -0.1)">
       <use xlink:href="#DejaVuSans-31" transform="translate(0 0.684375)"/>
       <use xlink:href="#DejaVuSans-30" transform="translate(63.623047 0.684375)"/>
       <use xlink:href="#DejaVuSans-2212" transform="translate(128.203125 38.965625) scale(0.7)"/>
       <use xlink:href="#DejaVuSans-34" transform="translate(186.855469 38.965625) scale(0.7)"/>
      </g>
     </g>
    </g>
    <g id="text_19">
     <!-- Hydraulic conductivity -->
     <g transform="translate(11.652312 285.933678) rotate(-90) scale(0.1 -0.1)">
      <defs>
       <path id="DejaVuSans-48" d="M 628 4666 
L 1259 4666 
L 1259 2753 
L 3553 2753 
L 3553 4666 
L 4184 4666 
L 4184 0 
L 3553 0 
L 3553 2222 
L 1259 2222 
L 1259 0 
L 628 0 
L 628 4666 
z
" transform="scale(0.015625)"/>
       <path id="DejaVuSans-79" d="M 2059 -325 
Q 1816 -950 1584 -1140 
Q 1353 -1331 966 -1331 
L 506 -1331 
L 506 -850 
L 844 -850 
Q 1081 -850 1212 -737 
Q 1344 -625 1503 -206 
L 1606 56 
L 191 3500 
L 800 3500 
L 1894 763 
L 2988 3500 
L 3597 3500 
L 2059 -325 
z
" transform="scale(0.015625)"/>
       <path id="DejaVuSans-76" d="M 191 3500 
L 800 3500 
L 1894 563 
L 2988 3500 
L 3597 3500 
L 2284 0 
L 1503 0 
L 191 3500 
z
" transform="scale(0.015625)"/>
      </defs>
      <use xlink:href="#DejaVuSans-48"/>
      <use xlink:href="#DejaVuSans-79" transform="translate(75.195312 0)"/>
      <use xlink:href="#DejaVuSans-64" transform="translate(134.375 0)"/>
      <use xlink:href="#DejaVuSans-72" transform="translate(197.851562 0)"/>
      <use xlink:href="#DejaVuSans-61" transform="translate(238.964844 0)"/>
      <use xlink:href="#DejaVuSans-75" transform="translate(300.244141 0)"/>
      <use xlink:href="#DejaVuSans-6c" transform="translate(363.623047 0)"/>
      <use xlink:href="#DejaVuSans-69" transform="translate(391.40625 0)"/>
      <use xlink:href="#DejaVuSans-63" transform="translate(419.189453 0)"/>
      <use xlink:href="#DejaVuSans-20" transform="translate(474.169922 0)"/>
      <use xlink:href="#DejaVuSans-63" transform="translate(505.957031 0)"/>
      <use xlink:href="#DejaVuSans-6f" transform="translate(560.9375 0)"/>
      <use xlink:href="#DejaVuSans-6e" transform="translate(622.119141 0)"/>
      <use xlink:href="#DejaVuSans-64" transform="translate(685.498047 0)"/>
      <use xlink:href="#DejaVuSans-75" transform="translate(748.974609 0)"/>
      <use xlink:href="#DejaVuSans-63" transform="translate(812.353516 0)"/>
      <use xlink:href="#DejaVuSans-74" transform="translate(867.333984 0)"/>
      <use xlink:href="#DejaVuSans-69" transform="translate(906.542969 0)"/>
      <use xlink:href="#DejaVuSans-76" transform="translate(934.326172 0)"/>
      <use xlink:href="#DejaVuSans-69" transform="translate(993.505859 0)"/>
      <use xlink:href="#DejaVuSans-74" transform="translate(1021.289062 0)"/>
      <use xlink:href="#DejaVuSans-79" transform="translate(1060.498047 0)"/>
     </g>
    </g>
   </g>
   <g id="line2d_110">
    <g clip-path="url(#p2c4b5f38c6)">
     <use xlink:href="#m43fedcb1c4" x="29.052666" y="172.879303" style="stroke: #000000"/>
     <use xlink:href="#m43fedcb1c4" x="34.190967" y="175.297011" style="stroke: #000000"/>
     <use xlink:href="#m43fedcb1c4" x="36.862539" y="177.895011" style="stroke: #000000"/>
     <use xlink:href="#m43fedcb1c4" x="129.090126" y="180.872998" style="stroke: #000000"/>
     <use xlink:href="#m43fedcb1c4" x="130.935189" y="183.861236" style="stroke: #000000"/>
     <use xlink:href="#m43fedcb1c4" x="132.818129" y="187.004627" style="stroke: #000000"/>
     <use xlink:href="#m43fedcb1c4" x="134.684741" y="190.711492" style="stroke: #000000"/>
     <use xlink:href="#m43fedcb1c4" x="136.524359" y="194.847225" style="stroke: #000000"/>
     <use xlink:href="#m43fedcb1c4" x="137.830483" y="199.490038" style="stroke: #000000"/>
     <use xlink:href="#m43fedcb1c4" x="139.868641" y="204.125076" style="stroke: #000000"/>
     <use xlink:href="#m43fedcb1c4" x="142.426786" y="209.449931" style="stroke: #000000"/>
     <use xlink:href="#m43fedcb1c4" x="145.388585" y="215.34937" style="stroke: #000000"/>
     <use xlink:href="#m43fedcb1c4" x="150.099374" y="221.837589" style="stroke: #000000"/>
     <use xlink:href="#m43fedcb1c4" x="158.264075" y="229.897006" style="stroke: #000000"/>
     <use xlink:href="#m43fedcb1c4" x="170.456073" y="237.890701" style="stroke: #000000"/>
     <use xlink:href="#m43fedcb1c4" x="186.390826" y="246.415228" style="stroke: #000000"/>
     <use xlink:href="#m43fedcb1c4" x="207.004039" y="255.693374" style="stroke: #000000"/>
     <use xlink:href="#m43fedcb1c4" x="227.638158" y="264.529726" style="stroke: #000000"/>
     <use xlink:href="#m43fedcb1c4" x="260.883913" y="276.140449" style="stroke: #000000"/>
     <use xlink:href="#m43fedcb1c4" x="286.179125" y="287.01774" style="stroke: #000000"/>
    </g>
   </g>
   <g id="line2d_111">
    <path d="M 52.632 173.222682 
L 123.015437 173.222682 
L 124.228945 174.575918 
L 127.869467 181.872365 
L 131.50999 188.699377 
L 135.150513 195.04996 
L 138.791035 200.925926 
L 142.431558 206.33775 
L 146.07208 211.30382 
L 149.712603 215.849177 
L 153.353126 220.003936 
L 156.993648 223.801566 
L 160.634171 227.277222 
L 164.274693 230.466261 
L 167.915216 233.40304 
L 172.769246 236.982081 
L 177.623276 240.239912 
L 182.477307 243.237294 
L 188.544844 246.695345 
L 194.612382 249.907789 
L 201.893427 253.526226 
L 211.601487 258.076706 
L 223.736563 263.494803 
L 240.725668 270.818873 
L 271.063357 283.610909 
L 294.12 293.259474 
L 294.12 293.259474 
" clip-path="url(#p2c4b5f38c6)" style="fill: none; stroke-dasharray: 1.5,2.475; stroke-dashoffset: 0; stroke: #0000ff; stroke-width: 1.5"/>
   </g>
   <g id="line2d_112">
    <path d="M 52.632 173.25325 
L 82.969688 173.414568 
L 97.531779 173.684815 
L 106.026332 174.023789 
L 110.880362 174.376812 
L 114.520884 174.816689 
L 116.947899 175.264777 
L 119.374915 175.917753 
L 121.80193 176.88529 
L 123.015437 177.533409 
L 124.228945 178.321286 
L 125.442452 179.273888 
L 126.65596 180.416275 
L 127.869467 181.771155 
L 129.082975 183.355668 
L 130.296482 185.177709 
L 132.723497 189.500139 
L 135.150513 194.520113 
L 140.004543 204.960296 
L 142.431558 209.58342 
L 144.858573 213.539333 
L 147.285588 216.829242 
L 149.712603 219.543857 
L 152.139618 221.804261 
L 154.566633 223.726814 
L 156.993648 225.408401 
L 160.634171 227.636452 
L 165.488201 230.303757 
L 175.196261 235.287597 
L 195.825889 245.862976 
L 221.309548 259.223022 
L 294.12 297.751601 
L 294.12 297.751601 
" clip-path="url(#p2c4b5f38c6)" style="fill: none; stroke-dasharray: 9.6,2.4,1.5,2.4; stroke-dashoffset: 0; stroke: #ff0000; stroke-width: 1.5"/>
   </g>
   <g id="line2d_113">
    <path d="M 52.632 173.222682 
L 109.666854 173.333752 
L 113.307377 173.573543 
L 115.734392 173.91694 
L 118.161407 174.50984 
L 120.588422 175.46434 
L 121.80193 176.114933 
L 123.015437 176.900479 
L 124.228945 177.833658 
L 125.442452 178.924569 
L 126.65596 180.179785 
L 129.082975 183.186324 
L 131.50999 186.802791 
L 132.723497 188.796511 
L 135.150513 193.820533 
L 141.21805 206.754668 
L 143.645065 211.230881 
L 146.07208 215.010984 
L 148.499095 218.076962 
L 150.926111 220.5248 
L 153.353126 222.507478 
L 155.780141 224.179955 
L 159.420663 226.368192 
L 166.701709 230.35293 
L 241.939176 270.585375 
L 294.12 298.485169 
L 294.12 298.485169 
" clip-path="url(#p2c4b5f38c6)" style="fill: none; stroke-dasharray: 5.55,2.4; stroke-dashoffset: 0; stroke: #008000; stroke-width: 1.5"/>
   </g>
   <g id="line2d_114">
    <path d="M 52.632 172.05397 
L 102.385809 172.142998 
L 107.239839 172.35591 
L 110.880362 172.729714 
L 113.307377 173.154275 
L 115.734392 173.779853 
L 118.161407 174.667296 
L 120.588422 175.882385 
L 123.015437 177.492194 
L 125.442452 179.56082 
L 127.869467 182.144691 
L 130.296482 185.287417 
L 132.723497 189.013586 
L 135.150513 193.319475 
L 137.577528 198.231152 
L 140.004543 203.630126 
L 146.07208 217.651181 
L 147.285588 220.074318 
L 148.499095 222.201457 
L 149.712603 223.997691 
L 150.926111 225.471337 
L 152.139618 226.667085 
L 153.353126 227.647412 
L 155.780141 229.198897 
L 159.420663 231.074676 
L 170.342231 236.20521 
L 294.12 293.957415 
L 294.12 293.957415 
" clip-path="url(#p2c4b5f38c6)" style="fill: none; stroke: #87ceeb; stroke-width: 1.5; stroke-linecap: square"/>
   </g>
   <g id="patch_8">
    <path d="M 52.632 297.792 
L 52.632 162.105043 
" style="fill: none; stroke: #000000; stroke-width: 0.8; stroke-linejoin: miter; stroke-linecap: square"/>
   </g>
   <g id="patch_9">
    <path d="M 294.12 297.792 
L 294.12 162.105043 
" style="fill: none; stroke: #000000; stroke-width: 0.8; stroke-linejoin: miter; stroke-linecap: square"/>
   </g>
   <g id="patch_10">
    <path d="M 52.632 297.792 
L 294.12 297.792 
" style="fill: none; stroke: #000000; stroke-width: 0.8; stroke-linejoin: miter; stroke-linecap: square"/>
   </g>
   <g id="patch_11">
    <path d="M 52.632 162.105043 
L 294.12 162.105043 
" style="fill: none; stroke: #000000; stroke-width: 0.8; stroke-linejoin: miter; stroke-linecap: square"/>
   </g>
  </g>
  <g id="legend_1">
   <g id="patch_12">
    <path d="M 221.75625 81.390625 
L 302.6 81.390625 
Q 304.6 81.390625 304.6 79.390625 
L 304.6 7 
Q 304.6 5 302.6 5 
L 221.75625 5 
Q 219.75625 5 219.75625 7 
L 219.75625 79.390625 
Q 219.75625 81.390625 221.75625 81.390625 
z
" style="fill: #ffffff; stroke: #cccccc; stroke-linejoin: miter"/>
   </g>
   <g id="line2d_115">
    <g>
     <use xlink:href="#m43fedcb1c4" x="233.75625" y="13.098437" style="stroke: #000000"/>
    </g>
   </g>
   <g id="text_20">
    <!-- Measured -->
    <g transform="translate(251.75625 16.598437) scale(0.1 -0.1)">
     <defs>
      <path id="DejaVuSans-4d" d="M 628 4666 
L 1569 4666 
L 2759 1491 
L 3956 4666 
L 4897 4666 
L 4897 0 
L 4281 0 
L 4281 4097 
L 3078 897 
L 2444 897 
L 1241 4097 
L 1241 0 
L 628 0 
L 628 4666 
z
" transform="scale(0.015625)"/>
     </defs>
     <use xlink:href="#DejaVuSans-4d"/>
     <use xlink:href="#DejaVuSans-65" transform="translate(86.279297 0)"/>
     <use xlink:href="#DejaVuSans-61" transform="translate(147.802734 0)"/>
     <use xlink:href="#DejaVuSans-73" transform="translate(209.082031 0)"/>
     <use xlink:href="#DejaVuSans-75" transform="translate(261.181641 0)"/>
     <use xlink:href="#DejaVuSans-72" transform="translate(324.560547 0)"/>
     <use xlink:href="#DejaVuSans-65" transform="translate(363.423828 0)"/>
     <use xlink:href="#DejaVuSans-64" transform="translate(424.947266 0)"/>
    </g>
   </g>
   <g id="line2d_116">
    <path d="M 223.75625 27.776563 
L 233.75625 27.776563 
L 243.75625 27.776563 
" style="fill: none; stroke-dasharray: 1.5,2.475; stroke-dashoffset: 0; stroke: #0000ff; stroke-width: 1.5"/>
   </g>
   <g id="text_21">
    <!-- DBC -->
    <g transform="translate(251.75625 31.276563) scale(0.1 -0.1)">
     <defs>
      <path id="DejaVuSans-44" d="M 1259 4147 
L 1259 519 
L 2022 519 
Q 2988 519 3436 956 
Q 3884 1394 3884 2338 
Q 3884 3275 3436 3711 
Q 2988 4147 2022 4147 
L 1259 4147 
z
M 628 4666 
L 1925 4666 
Q 3281 4666 3915 4102 
Q 4550 3538 4550 2338 
Q 4550 1131 3912 565 
Q 3275 0 1925 0 
L 628 0 
L 628 4666 
z
" transform="scale(0.015625)"/>
      <path id="DejaVuSans-42" d="M 1259 2228 
L 1259 519 
L 2272 519 
Q 2781 519 3026 730 
Q 3272 941 3272 1375 
Q 3272 1813 3026 2020 
Q 2781 2228 2272 2228 
L 1259 2228 
z
M 1259 4147 
L 1259 2741 
L 2194 2741 
Q 2656 2741 2882 2914 
Q 3109 3088 3109 3444 
Q 3109 3797 2882 3972 
Q 2656 4147 2194 4147 
L 1259 4147 
z
M 628 4666 
L 2241 4666 
Q 2963 4666 3353 4366 
Q 3744 4066 3744 3513 
Q 3744 3084 3544 2831 
Q 3344 2578 2956 2516 
Q 3422 2416 3680 2098 
Q 3938 1781 3938 1306 
Q 3938 681 3513 340 
Q 3088 0 2303 0 
L 628 0 
L 628 4666 
z
" transform="scale(0.015625)"/>
      <path id="DejaVuSans-43" d="M 4122 4306 
L 4122 3641 
Q 3803 3938 3442 4084 
Q 3081 4231 2675 4231 
Q 1875 4231 1450 3742 
Q 1025 3253 1025 2328 
Q 1025 1406 1450 917 
Q 1875 428 2675 428 
Q 3081 428 3442 575 
Q 3803 722 4122 1019 
L 4122 359 
Q 3791 134 3420 21 
Q 3050 -91 2638 -91 
Q 1578 -91 968 557 
Q 359 1206 359 2328 
Q 359 3453 968 4101 
Q 1578 4750 2638 4750 
Q 3056 4750 3426 4639 
Q 3797 4528 4122 4306 
z
" transform="scale(0.015625)"/>
     </defs>
     <use xlink:href="#DejaVuSans-44"/>
     <use xlink:href="#DejaVuSans-42" transform="translate(77.001953 0)"/>
     <use xlink:href="#DejaVuSans-43" transform="translate(143.855469 0)"/>
    </g>
   </g>
   <g id="line2d_117">
    <path d="M 223.75625 42.454687 
L 233.75625 42.454687 
L 243.75625 42.454687 
" style="fill: none; stroke-dasharray: 9.6,2.4,1.5,2.4; stroke-dashoffset: 0; stroke: #ff0000; stroke-width: 1.5"/>
   </g>
   <g id="text_22">
    <!-- DVC -->
    <g transform="translate(251.75625 45.954687) scale(0.1 -0.1)">
     <use xlink:href="#DejaVuSans-44"/>
     <use xlink:href="#DejaVuSans-56" transform="translate(75.251953 0)"/>
     <use xlink:href="#DejaVuSans-43" transform="translate(143.660156 0)"/>
    </g>
   </g>
   <g id="line2d_118">
    <path d="M 223.75625 57.132812 
L 233.75625 57.132812 
L 243.75625 57.132812 
" style="fill: none; stroke-dasharray: 5.55,2.4; stroke-dashoffset: 0; stroke: #008000; stroke-width: 1.5"/>
   </g>
   <g id="text_23">
    <!-- KBC -->
    <g transform="translate(251.75625 60.632812) scale(0.1 -0.1)">
     <defs>
      <path id="DejaVuSans-4b" d="M 628 4666 
L 1259 4666 
L 1259 2694 
L 3353 4666 
L 4166 4666 
L 1850 2491 
L 4331 0 
L 3500 0 
L 1259 2247 
L 1259 0 
L 628 0 
L 628 4666 
z
" transform="scale(0.015625)"/>
     </defs>
     <use xlink:href="#DejaVuSans-4b"/>
     <use xlink:href="#DejaVuSans-42" transform="translate(65.576172 0)"/>
     <use xlink:href="#DejaVuSans-43" transform="translate(132.429688 0)"/>
    </g>
   </g>
   <g id="line2d_119">
    <path d="M 223.75625 71.810937 
L 233.75625 71.810937 
L 243.75625 71.810937 
" style="fill: none; stroke: #87ceeb; stroke-width: 1.5; stroke-linecap: square"/>
   </g>
   <g id="text_24">
    <!-- PE -->
    <g transform="translate(251.75625 75.310937) scale(0.1 -0.1)">
     <defs>
      <path id="DejaVuSans-45" d="M 628 4666 
L 3578 4666 
L 3578 4134 
L 1259 4134 
L 1259 2753 
L 3481 2753 
L 3481 2222 
L 1259 2222 
L 1259 531 
L 3634 531 
L 3634 0 
L 628 0 
L 628 4666 
z
" transform="scale(0.015625)"/>
     </defs>
     <use xlink:href="#DejaVuSans-50"/>
     <use xlink:href="#DejaVuSans-45" transform="translate(60.302734 0)"/>
    </g>
   </g>
  </g>
 </g>
 <defs>
  <clipPath id="p2a557e1f23">
   <rect x="52.632" y="16.92" width="241.488" height="135.686957"/>
  </clipPath>
  <clipPath id="p2c4b5f38c6">
   <rect x="52.632" y="162.105043" width="241.488" height="135.686957"/>
  </clipPath>
 </defs>
</svg>
